<?xml version="1.0" encoding="utf-8"?>
<!-- Generator: Adobe Illustrator 23.0.1, SVG Export Plug-In . SVG Version: 6.00 Build 0)  -->
<svg version="1.1" id="BRANCHE" xmlns="http://www.w3.org/2000/svg" xmlns:xlink="http://www.w3.org/1999/xlink" x="0px" y="0px"
	 viewBox="0 0 460.8 48" style="enable-background:new 0 0 460.8 48;" xml:space="preserve">
<g id="branche">
	<path fill="#6F6859" d="M461.08,15.56c0,5.68,0,11.36,0,17.04c-9.16,0.23-18.32,0.63-27.48,0.66c-24.82,0.07-49.64,0.33-74.46-0.11
		c-7.88-0.14-15.77-0.14-23.65-0.37c-3.67-0.1-7.34-0.06-11.01-0.29c1.18-0.16,2.38-0.24,3.55-0.43c1.38-0.22,2.8-0.16,4.14-0.62
		c0.49-0.17,1.29-0.21,0.99-1.02c-0.25-0.66-0.84-0.36-1.34-0.19c-0.49,0.17-0.99,0.36-1.5,0.41c-2.86,0.25-5.68,0.99-8.58,0.78
		c-0.39-0.03-0.94-0.12-1.06,0.34c-0.21,0.8-0.77,0.63-1.31,0.65c-2.29,0.1-4.55-0.22-6.8-0.58c-8.94-1.44-17.95-2.01-26.99-2.31
		c-5.57-0.19-11.12,0.12-16.69,0.26c-1.17,0.03-2.32,0.22-2.03-1.59c0.06-0.36-0.21-0.73-0.64-0.73c-0.48,0.01-0.67,0.38-0.7,0.82
		c-0.02,0.2-0.01,0.4,0.02,0.6c0.12,0.79-0.25,1.07-1.02,1.06c-1.68-0.02-3.36,0.12-5.03,0.23c-6.38,0.41-12.76,0.92-19.14,1.43
		c-1.4,0.11-2.8,0.46-4.49,0.22c1.35-0.76,2.58-1.06,3.84-1.12c3.25-0.16,6.42-0.61,9.52-1.72c1.12-0.4,2.37-1.01,3.61-0.56
		c1.37,0.49,2.74,0.84,4.19,0.91c0.46,0.02,1.07,0.36,1.13-0.35c0.05-0.57-0.57-0.7-1.07-0.7c-0.9-0.01-1.79-0.16-2.56-0.56
		c-1.39-0.72-2.75-0.56-4.2-0.25c-2.65,0.57-5.12,1.82-7.88,1.99c-1.9,0.12-3.87,0.01-5.67,0.79c-3.02,1.3-6.18,1.5-9.41,1.31
		c-0.4-0.02-0.86,0-0.76,0.46c0.15,0.7-0.25,0.6-0.64,0.63c-4.31,0.23-8.62,0.55-12.94,0.68c-4,0.12-8,0.07-12-0.23
		c-5.11-0.38-10.19-0.91-15.24-1.78c-3.7-0.64-7.37-1.46-11.15-1.57c-0.73-0.02-1.63,0.29-1.86-0.88c-0.03-0.14-0.48-0.27-0.74-0.29
		c-3.61-0.24-7.12-0.95-10.54-2.12c-0.37-0.13-0.76-0.11-0.92,0.31c-0.17,0.44,0.17,0.64,0.51,0.82c0.68,0.36,1.45,0.45,2.16,0.69
		c1.65,0.56,3.47,0.33,5.17,1.16c-0.4,0-0.7,0.01-0.99,0c-5.39-0.21-10.79-0.52-16.18-0.62c-5.24-0.1-10.47-0.33-15.72-0.13
		c-5.08,0.19-10.16,0.12-15.25,0.2c-8.48,0.14-16.96,0.38-25.43,0.84c-3.35,0.18-6.71,0.33-10.06,0.52
		c-7.47,0.41-14.93,0.8-22.38,1.43c-3.5,0.3-7.02,0.35-10.5,0.92c-1.97,0.32-3.95,0.74-5.93,0.77c-3.84,0.05-7.68-0.16-11.52-0.26
		c-3.64-0.1-7.28-0.16-10.92-0.3c-7.92-0.28-15.83-0.6-23.75-0.9c0-5.69,0-11.38,0-17.08c2.24,0.1,4.48,0.19,6.71,0.3
		c9.19,0.47,18.38,1,27.58,1.16c1.12,0.02,2.24,0.1,3.36,0.12c3.76,0.08,7.52,0.31,11.27,0.17c5.43-0.2,10.85-0.7,16.27-1.02
		c5.91-0.35,11.82-0.66,17.73-0.94c5.59-0.27,11.19-0.53,16.78-0.71c6.92-0.22,13.84-0.39,20.76-0.48
		c10.61-0.15,21.21,0.16,31.8,0.71c1.6,0.08,3.19,0.2,4.78,0.36c4.93,0.5,9.85,1.18,14.79,1.48c4.21,0.26,8.37,0.83,12.46,1.7
		c6.41,1.37,12.89,1.95,19.4,2.18c4.51,0.16,9.02,0.15,13.55-0.14c6.14-0.39,12.3-0.59,18.42-1.27c8.1-0.9,16.22-1.67,24.33-2.48
		c6.69-0.67,13.39-1.17,20.11-1.13c4.83,0.03,9.66,0.15,14.49,0.63c5.42,0.53,10.8,1.23,16.13,2.28c4.02,0.79,7.87,2.04,12.14,1.75
		c5.17-0.36,10.4-0.06,15.6,0.03c10.45,0.18,20.89-0.06,31.34-0.31c7.64-0.18,15.29-0.23,22.94-0.35c1.56-0.02,3.12-0.14,4.68-0.13
		c9.97,0.04,19.91-0.7,29.87-1.08c3.32-0.13,6.63-0.29,9.95-0.5C445.04,16.64,453.06,16.09,461.08,15.56z M412.74,31.05
		c-0.15,0.03-0.52,0.03-0.6,0.42c-0.1,0.51,0.29,0.76,0.68,0.82c1.02,0.16,2.06,0.23,3.09,0.35c2.49,0.29,4.94,0.24,7.34-0.61
		c1.24-0.44,2.5-0.87,3.84-0.85c3.77,0.06,7.52,0.06,11.1-1.41c0.25-0.11,0.54-0.18,0.82-0.18c1.38,0,2.75-0.98,4.11-0.27
		c1.56,0.81,3.28,0.97,4.92,1.45c0.39,0.12,0.73,0.14,0.92-0.27c0.18-0.39-0.05-0.7-0.34-0.94c-0.32-0.27-0.72-0.31-1.13-0.33
		c-1.05-0.07-2.06-0.34-2.97-0.85c-1.3-0.73-2.61-0.88-4.04-0.48c-4.2,1.17-8.39,2.28-12.83,1.92c-1.76-0.14-3.5,0.28-5.13,1.03
		c-0.88,0.4-1.81,0.55-2.79,0.58C417.44,31.5,415.17,31.33,412.74,31.05z M280.13,24.62c-1.92,0.1-3.83,0.2-5.75,0.31
		c-0.51,0.03-1.19,0.03-1.12,0.75c0.07,0.68,0.74,0.41,1.18,0.45c0.28,0.02,0.56-0.01,0.84-0.02c2.51-0.04,5.01-0.48,7.54-0.1
		c3.36,0.51,6.72,0.96,10.13,1.03c4.01,0.08,7.97,0.64,11.89,1.4c2.7,0.52,5.37,1.23,8.06,1.86c0.41,0.1,0.86,0.2,1.03-0.28
		c0.18-0.49-0.25-0.7-0.62-0.88c-0.78-0.37-1.65-0.29-2.46-0.5c-4.44-1.2-8.94-2.14-13.53-2.54c-2.91-0.25-5.82-0.45-8.73-0.62
		C285.76,25.3,282.99,24.49,280.13,24.62z M213.47,30.13c0.64,0,1.28,0.02,1.92-0.01c0.47-0.02,1.1-0.01,1.04-0.68
		c-0.05-0.63-0.66-0.61-1.14-0.6c-1,0.02-2.01,0.21-2.99,0.11c-2.61-0.27-5.19,0.02-7.76,0.36c-1.2,0.16-2.38,0.21-3.58,0.1
		c-1.31-0.13-2.63-0.23-3.94-0.36c-5.2-0.52-10.46-0.37-15.62-1.39c-0.48-0.1-1.07-0.08-1.13,0.54c-0.05,0.55,0.52,0.63,0.95,0.71
		c2.87,0.55,5.79,0.6,8.7,0.79c3.67,0.24,7.33,0.51,10.99,0.82c0.76,0.06,1.52,0.21,2.27,0.11
		C206.61,30.17,210.02,29.81,213.47,30.13z M81.92,29.71c0.23,0,0.63,0.05,1.03-0.01c1.3-0.2,2.6-0.42,3.89-0.67
		c0.4-0.08,0.84-0.3,0.75-0.78c-0.1-0.6-0.59-0.34-0.97-0.28c-0.67,0.1-1.35,0.26-2.02,0.26c-1.83,0.01-3.69,0.63-5.47-0.06
		c-1.8-0.69-3.62-0.96-5.52-0.82c-2.51,0.19-5.04,0.45-7.46-0.51c-3.57-1.43-6.47,0.61-9.53,1.78c-0.39,0.15-0.6,0.54-0.53,0.98
		c0.05,0.34,0.26,0.67,0.65,0.49c1.26-0.58,2.7-0.76,3.78-1.73c0.53-0.47,1.16-0.81,1.85-0.74c1.23,0.12,2.49,0.24,3.65,0.61
		c2.4,0.77,4.82,0.64,7.25,0.4c1.58-0.15,3.13-0.16,4.6,0.46C79.14,29.64,80.41,29.82,81.92,29.71z M279.26,16.07
		c-2.56,0.09-5.12-0.12-7.67,0.2c-0.44,0.06-0.99,0.07-0.95,0.66c0.04,0.62,0.6,0.53,1.03,0.52c2-0.04,4-0.1,5.99-0.17
		c5.53-0.19,11.02,0.13,16.43,1.45c1.11,0.27,2.3,0.27,3.45,0.33c0.44,0.02,0.94-0.16,0.99-0.68c0.06-0.63-0.49-0.61-0.93-0.66
		c-1.03-0.1-2.09-0.1-3.1-0.31C289.48,16.34,284.4,15.84,279.26,16.07z M138.93,16.49c0,0.02,0,0.04,0,0.06
		c-0.64,0-1.28-0.02-1.92,0c-0.79,0.03-1.61-0.14-2.35,0.27c-0.28,0.16-0.57,0.37-0.48,0.75c0.09,0.39,0.43,0.42,0.77,0.41
		c0.48-0.02,0.96-0.05,1.44-0.05c8.19,0.05,16.38,0.07,24.43,1.87c0.48,0.11,1.16,0.27,1.27-0.46c0.1-0.68-0.58-0.61-1.02-0.73
		c-3.21-0.9-6.53-1.15-9.81-1.49C147.17,16.69,143.04,16.68,138.93,16.49z M359.7,23.12c0.34,0.1,0.71,0.09,0.8-0.28
		c0.1-0.44-0.28-0.66-0.63-0.72c-0.51-0.09-1.03-0.1-1.55-0.09c-8.39,0.09-16.79-0.2-25.16,0.56c-0.56,0.05-1.51-0.19-1.48,0.56
		c0.03,0.88,1.01,0.57,1.58,0.5c4.57-0.51,9.16-0.58,13.75-0.58c0.72,0,1.44,0.14,2.15,0.09C352.67,22.95,356.18,23.07,359.7,23.12z
		 M208.27,22.23c4.13,0.13,6.89-0.11,9.65-0.22c0.65-0.03,1.78,0.28,1.73-0.69c-0.04-0.88-1.13-0.44-1.73-0.43
		c-7.35,0.22-14.69,0.84-22.05,0.51c-0.33-0.02-0.69,0.02-0.76,0.41c-0.09,0.47,0.26,0.64,0.64,0.68c1.07,0.11,2.14,0.26,3.23,0.23
		C202.53,22.63,206.07,22.04,208.27,22.23z M131.64,24.65c-0.05-0.23-0.14-0.54-0.18-0.85c-0.33-2.07-1.6-3.93-1.33-6.14
		c0.02-0.2-0.12-0.52-0.29-0.61c-0.57-0.34-0.69-0.82-0.65-1.42c0.02-0.35-0.12-0.66-0.51-0.69c-0.42-0.03-0.7,0.24-0.76,0.62
		c-0.06,0.38-0.03,0.8,0.05,1.18c0.4,1.86,1.05,3.66,1.17,5.6c0.06,0.93,0.44,1.85,0.75,2.76c0.16,0.47,0.38,1.09,1.05,0.92
		C131.53,25.86,131.56,25.25,131.64,24.65z M363.03,29.01c0.02,0.74,0.03,1.44,0.77,1.58c0.75,0.15,0.85-0.59,1.03-1.09
		c0.96-2.54,1.09-5.31,2.18-7.81c0.09-0.2,0.05-0.47-0.01-0.7c-0.06-0.25-0.29-0.37-0.55-0.39c-0.26-0.03-0.56,0.05-0.6,0.29
		c-0.17,1.23-1.56,1.97-1.3,3.38c0.1,0.56-0.27,1.06-0.52,1.57C363.52,26.88,363.24,28,363.03,29.01z M104.74,18.87
		c0,0.6-0.05,1.2,0.01,1.79c0.11,1.19,0.3,2.32,1.39,3.14c0.75,0.56,1.01,0.2,1.16-0.43c0.08-0.37-0.01-0.79-0.08-1.18
		c-0.33-1.91-1.03-3.77-0.79-5.76c0.04-0.37-0.16-0.69-0.34-1c-0.22-0.37-0.37-0.89-0.94-0.71c-0.56,0.17-0.64,0.69-0.55,1.19
		C104.78,16.88,104.79,17.87,104.74,18.87z M102.76,21.48c0.09-2.06,0.19-3.98-0.94-5.69c-0.22-0.34-0.44-0.73-0.92-0.6
		c-0.51,0.13-0.55,0.59-0.41,0.97c0.91,2.67,0.67,5.43,0.69,8.17c0,0.55,0.08,1.15,0.72,1.19c0.75,0.04,0.83-0.64,0.85-1.19
		C102.79,23.33,102.76,22.33,102.76,21.48z M398.6,26.34c-0.07,1.08,0.02,1.88,0.98,1.88c0.92-0.01,0.97-0.88,0.91-1.54
		c-0.14-1.56,0.47-2.89,1.14-4.21c0.27-0.53,0.6-1.06,0.75-1.63c0.21-0.76-0.22-1.06-0.94-0.88c-0.97,0.24-2.55,2.09-2.58,3.1
		C398.83,24.26,398.76,25.46,398.6,26.34z M392.41,21.19c-0.07-0.6,0.17-1.17-0.41-1.42c-0.64-0.28-0.9,0.32-1.25,0.67
		c-0.31,0.31-0.4,0.69-0.34,1.1c0.12,0.82-0.14,1.57-0.31,2.35c-0.25,1.13-0.83,2.17-0.86,3.35c-0.02,0.63,0.24,1.33,0.92,0.94
		c0.61-0.35,1.29-0.76,1.64-1.59C392.59,24.78,391.74,22.85,392.41,21.19z M34.35,22.33c-0.3-1.21-0.61-2.73-1.09-4.19
		c-0.17-0.52-0.52-1.33-1.33-1.12c-0.73,0.19-1.1,0.84-1.24,1.59c-0.34,1.85,0.88,4.29,2.52,5.01
		C33.88,23.93,34.36,23.52,34.35,22.33z M375.64,25.16c0.81,0,1.85,0,2.88,0c0.37,0,0.76,0.04,0.83-0.45
		c0.06-0.43-0.22-0.67-0.59-0.78c-0.3-0.09-0.62-0.14-0.94-0.15c-1.72-0.01-3.44-0.08-5.15,0.02c-1.67,0.1-3.32,0.39-4.93,0.89
		c-0.42,0.13-0.96,0.27-0.81,0.83c0.15,0.57,0.71,0.35,1.13,0.33c0.08-0.01,0.16-0.03,0.23-0.05
		C370.64,25.27,373,24.93,375.64,25.16z M99.21,22.77c-0.08-1.27-0.22-2.34-0.19-3.41c0.03-1.39-0.59-2.44-1.48-3.4
		c-0.35-0.37-0.73-0.85-1.32-0.49c-0.6,0.37-0.28,0.92-0.13,1.4c0.67,2.11,1.7,4.14,1.47,6.46c-0.05,0.5,0.18,1.03,0.76,1.03
		c0.62,0.01,0.85-0.51,0.89-1.07C99.23,23.05,99.21,22.81,99.21,22.77z M127.06,21.18c0.41,0.06,0.77-0.06,0.85-0.47
		c0.11-0.5-0.31-0.67-0.7-0.81c-2.92-1.05-5.94-1.07-8.99-0.84c-0.59,0.05-1.2,0.08-1.77,0.22c-0.36,0.08-0.63,0.39-0.56,0.81
		c0.09,0.46,0.46,0.5,0.84,0.46c0.59-0.06,1.19-0.15,1.78-0.18C121.4,20.24,124.27,20.25,127.06,21.18z M394.52,25.73
		c0,0.8-0.02,1.6,0.01,2.4c0.02,0.65,0.02,1.4,0.95,1.34c0.88-0.06,0.74-0.8,0.73-1.38c-0.02-2.28-0.14-4.56,0.77-6.73
		c0.2-0.47,0.47-1.07-0.18-1.35c-0.6-0.26-0.87,0.31-1.22,0.71C394.3,22.19,394.52,23.98,394.52,25.73z M429.9,20.61
		c-0.03-0.36,0.01-0.74-0.1-1.07c-0.2-0.58-0.56-1.11-1.17-1.25c-0.58-0.13-0.76,0.45-1.05,0.82c-1.05,1.35-1,3.07-1.49,4.6
		c-0.18,0.55,0.53,1.23,1.05,0.76C428.3,23.4,430.2,22.76,429.9,20.61z M413.28,21.31c3.29-0.69,6.68-0.32,9.98-0.92
		c0.43-0.08,1.01-0.05,0.96-0.63c-0.05-0.56-0.63-0.5-1.06-0.51c-0.16-0.01-0.32,0.02-0.47,0.05c-3.19,0.52-6.45,0.23-9.63,0.82
		c-0.54,0.1-1.42-0.21-1.38,0.67c0.03,0.77,0.86,0.46,1.37,0.52C413.12,21.32,413.2,21.31,413.28,21.31z M86.11,17.91
		c0.39-0.05,0.79-0.1,1.18-0.15c0.42-0.06,0.84-0.16,0.78-0.7c-0.04-0.45-0.43-0.49-0.8-0.55c-2.98-0.43-5.98,0.22-8.96-0.14
		c-0.5-0.06-1.16,0.09-1.11,0.79c0.04,0.66,0.68,0.5,1.14,0.57C80.92,18.1,83.52,17.39,86.11,17.91z M384.25,27.3
		c0.83-0.14,1.41-0.68,1.6-1.6c0.24-1.19,0.67-2.29,1.34-3.31c0.22-0.32,0.35-0.72,0.44-1.11c0.14-0.61-0.29-0.87-0.78-1.01
		c-0.43-0.12-0.82,0-0.94,0.48c-0.47,1.81-1.28,3.42-2.73,4.68c-0.32,0.28-0.53,0.73-0.23,1.19
		C383.22,27.06,383.61,27.31,384.25,27.3z M75.63,21.03c-0.55-1.4-0.43-3.16-1.38-4.6c-0.55-0.84-0.93-0.83-1.45,0.05
		c-1.12,1.87-0.25,4.75,1.72,5.66C75.11,22.4,75.63,21.96,75.63,21.03z M108.75,16.27c0.7,1.95,1.24,3.94,1.82,5.93
		c0.21,0.72,0.97,0.98,1.68,0.5c0.73-0.49,0.84-1.24,0.25-1.85c-1.33-1.37-1.72-3.12-2.17-4.86c-0.13-0.51-0.21-0.99-0.86-0.87
		C108.85,15.24,108.81,15.75,108.75,16.27z M226.99,22.78c2.79-0.41,5.75-0.83,8.71-1.27c0.46-0.07,0.94-0.29,0.86-0.81
		c-0.09-0.59-0.63-0.47-1.07-0.4c-3.04,0.45-6.08,0.88-9.11,1.34c-0.42,0.06-0.98,0.17-0.91,0.74c0.07,0.54,0.62,0.35,0.99,0.39
		C226.58,22.79,226.7,22.78,226.99,22.78z M241.48,21.08c0.03-0.8,0.07-1.63-0.82-1.84c-0.82-0.2-1.2,0.56-1.47,1.15
		c-0.55,1.19-0.82,2.48-1.11,3.75c-0.07,0.31-0.02,0.64,0.28,0.85c0.27,0.19,0.57,0.16,0.77-0.06
		C240.2,23.81,241.65,22.89,241.48,21.08z M441.33,19.11c-0.09-0.32-0.2-0.79-0.37-1.23c-0.13-0.35-0.39-0.66-0.81-0.54
		c-0.43,0.12-0.66,0.44-0.51,0.92c0.2,0.68-0.12,1.25-0.39,1.82c-0.39,0.83-0.81,1.64-1.21,2.47c-0.16,0.32-0.35,0.67-0.02,0.99
		c0.34,0.32,0.74,0.45,1.21,0.29c0.6-0.21,1-0.65,1.25-1.21C440.95,21.54,441.11,20.39,441.33,19.11z M42.97,19.65
		c0.56,0,1.12,0.02,1.67-0.01c0.35-0.02,0.9,0.47,0.98-0.37c0.07-0.68-0.27-0.97-0.88-1c-2.51-0.13-5.01-0.24-7.52-0.35
		c-0.41-0.02-0.87,0.03-0.9,0.56c-0.03,0.52,0.38,0.63,0.81,0.67C39.09,19.3,41.01,19.7,42.97,19.65z M454.36,18.45
		c0-0.28,0.01-0.56,0-0.83c-0.02-0.45-0.19-0.78-0.68-0.81c-0.43-0.02-1-0.12-1.16,0.38c-0.46,1.39-1.02,2.79-0.77,4.29
		c0.14,0.85,1.04,0.92,1.67,1.11c0.39,0.12,0.68-0.4,0.66-0.82C454.02,20.65,454.36,19.56,454.36,18.45z M6.2,17.52
		c0.09,1.07,0.18,2.1,0.26,3.12c0.09,1.08,0.42,1.2,1.45,0.83c0.81-0.29,0.98-0.77,0.98-1.53c0-0.9-0.3-1.72-0.47-2.57
		C8.25,16.57,8.06,15.88,7,16C5.92,16.12,6.3,16.95,6.2,17.52z M445,21.43c0.05,0.66,0.03,1.11,0.13,1.52
		c0.19,0.78,1.05,1.01,1.41,0.33c0.78-1.45,1.15-3.04,0.88-4.71c-0.07-0.46-0.5-0.73-0.97-0.76c-0.45-0.03-0.79,0.28-0.85,0.7
		C445.45,19.57,444.75,20.52,445,21.43z M346.17,32.11c0.59-0.02,0.63-0.49,0.69-0.92c0.14-0.99,0.32-1.98,0.87-2.83
		c0.27-0.42,0.49-0.76-0.03-1.1c-0.48-0.32-1-0.09-1.09,0.33c-0.32,1.39-1.18,1.9-2.52,1.82c-0.07,0-0.15,0.05-0.21,0.1
		c-0.44,0.32-1.15,0.59-0.88,1.24c0.31,0.74,0.92,0.35,1.42,0.08c0.61-0.33,1.08-0.37,1.1,0.54
		C345.53,31.77,345.73,32.03,346.17,32.11z M260.9,20.95c-0.22,0.76,0.5,0.99,1.14,1.22c0.53,0.19,0.86-0.19,0.98-0.64
		c0.29-1.16,0.55-2.33,0.77-3.51c0.08-0.41,0.19-0.95-0.36-1.14c-0.53-0.18-1.09-0.06-1.34,0.49
		C261.59,18.46,261.02,19.53,260.9,20.95z M251.76,19.24c0.01-0.61,0.03-1.19-0.59-1.37c-0.41-0.12-0.73,0.24-0.75,0.6
		c-0.07,1.45-1,2.49-1.63,3.68c-0.29,0.55-0.79,1.21-0.01,1.67c0.74,0.44,1.29-0.11,1.67-0.71
		C251.23,21.91,251.6,20.57,251.76,19.24z M63.93,17.34c0.11-0.66,0.15-1.19-0.44-1.22c-0.52-0.03-0.67,0.52-0.74,0.95
		c-0.26,1.7,0.05,3.32,0.85,4.84c0.31,0.58,0.8,0.8,1.39,0.51c0.69-0.34,0.64-0.91,0.34-1.52C64.74,19.69,64.08,18.51,63.93,17.34z
		 M51.39,18.92c0.08,0.89,0.15,1.95,0.26,3.02c0.05,0.47,0.26,0.97,0.82,0.66c0.72-0.4,1.47-0.9,1.26-1.93
		c-0.2-1.01-0.42-2.02-0.65-3.02c-0.1-0.46-0.42-0.65-0.89-0.57c-0.43,0.07-0.77,0.24-0.8,0.73C51.37,18.11,51.39,18.43,51.39,18.92
		z M146.7,22.75c-0.68,0.06-0.81,0.52-0.53,1.01c0.61,1.09,1.02,2.24,1.29,3.44c0.08,0.33,0.22,0.61,0.62,0.61
		c0.47,0,0.62-0.3,0.61-0.7c-0.02-0.97,0.46-0.84,1.05-0.49c0.39,0.24,0.84,0.73,1.22,0.14c0.39-0.6-0.22-0.93-0.62-1.22
		c-0.28-0.2-0.68-0.41-0.98-0.36c-1.12,0.17-1.46-0.47-1.67-1.38C147.57,23.31,147.38,22.79,146.7,22.75z M254.8,22.48
		c-0.07,0.37,0,0.75,0.39,0.89c0.51,0.19,0.85-0.14,1.06-0.54c0.59-1.1,0.93-2.27,1.12-3.51c0.09-0.58,0.05-1.09-0.54-1.28
		c-0.61-0.21-0.93,0.25-1.17,0.75C255.09,19.96,254.83,21.19,254.8,22.48z M92.73,18.64c-0.04-0.8-0.11-1.85-0.82-2.69
		c-0.38-0.45-0.9-0.69-1.49-0.41c-0.51,0.24-0.65,0.76-0.47,1.23c0.43,1.11,0.94,2.19,1.45,3.27c0.13,0.28,0.39,0.54,0.77,0.4
		c0.33-0.12,0.52-0.37,0.55-0.72C92.75,19.44,92.73,19.16,92.73,18.64z M57.24,19.22c0.09,0.86,0.26,2,0.68,3.08
		c0.13,0.34,0.35,0.66,0.77,0.64c0.44-0.02,0.59-0.36,0.62-0.74c0.13-1.43,0.09-2.84-0.38-4.21c-0.12-0.35-0.26-0.71-0.7-0.71
		c-0.4,0-0.63,0.3-0.82,0.62C57.24,18.21,57.2,18.57,57.24,19.22z M408.42,19.6c-0.46,0.01-0.86,0.18-1.2,0.46
		c-0.92,0.76-0.95,1.87-1.12,2.92c-0.07,0.4-0.03,0.82,0.46,0.97c0.41,0.13,0.84,0.06,1.08-0.29c0.63-0.95,1.33-1.88,1.71-2.97
		C409.61,19.92,409.19,19.58,408.42,19.6z M137.2,24.74c0,0.87,0,1.39,0,1.91c0,0.43,0.09,0.84,0.6,0.88
		c0.57,0.05,0.73-0.35,0.79-0.84c0.04-0.36-0.17-0.8,0.34-1.05c1.07-0.52,1.15-0.98,0.27-1.77c-0.31-0.28-0.6-0.5-0.63-0.95
		c-0.02-0.3-0.21-0.54-0.53-0.55c-0.39-0.02-0.6,0.27-0.65,0.59C137.28,23.65,137.24,24.37,137.2,24.74z M357.29,30.78
		c-0.09-0.98-0.18-1.93-0.27-2.88c-0.03-0.39-0.16-0.71-0.58-0.8c-0.26-0.06-0.54,0.05-0.58,0.3c-0.11,0.67-0.7,0.92-1.06,1.37
		c-0.59,0.75-0.45,1.28,0.44,1.4c0.59,0.07,0.57,0.4,0.65,0.79c0.11,0.54,0.2,1.24,0.96,1.1C357.59,31.92,357.2,31.22,357.29,30.78z
		 M433.92,20.55c0.01,0,0.03,0,0.04,0c0-0.6,0.01-1.19,0-1.79c-0.01-0.45-0.03-0.95-0.62-0.98c-0.53-0.03-0.75,0.39-0.82,0.86
		c-0.17,1.29-0.3,2.58-0.28,3.88c0.01,0.53,0.13,0.97,0.77,0.98c0.6,0,0.85-0.41,0.89-0.93C433.96,21.9,433.92,21.23,433.92,20.55z
		 M341.87,28.1c0.03-0.34,0.04-0.65-0.29-0.85c-0.29-0.17-0.57-0.1-0.74,0.16c-0.24,0.36-0.51,0.41-0.91,0.31
		c-0.49-0.12-0.74,0.24-0.83,0.65c-0.1,0.42-0.24,0.94,0.31,1.14c0.65,0.24,0.76,0.73,0.8,1.31c0.03,0.51,0.3,0.85,0.84,0.78
		c0.51-0.07,0.56-0.49,0.56-0.91C341.6,29.81,341.52,28.93,341.87,28.1z M220.79,24.39c0.07,0.44-0.18,1.15,0.63,1.25
		c0.71,0.09,0.89-0.5,1.11-1.03c0.3-0.73,0.64-1.44,0.95-2.17c0.19-0.43,0.23-0.86-0.21-1.17c-0.42-0.29-0.82-0.16-1.21,0.11
		C221.04,22.11,220.84,23.17,220.79,24.39z M123.23,16.71c0.4-0.02,0.8,0,1.19-0.06c0.33-0.05,0.6-0.25,0.66-0.61
		c0.06-0.41-0.26-0.6-0.57-0.64c-1.5-0.19-3-0.35-4.5-0.49c-0.34-0.03-0.64,0.2-0.7,0.54c-0.09,0.47,0.33,0.69,0.65,0.69
		C121.09,16.13,122.09,16.8,123.23,16.71z M68.75,17.6c0.06,1.06,0.1,2.05,0.16,3.04c0.03,0.5,0.16,1.05,0.77,1
		c0.59-0.04,0.68-0.6,0.66-1.1c-0.04-0.95-0.11-1.9-0.19-2.84c-0.06-0.71,0.22-1.83-0.77-1.81C68.44,15.91,68.88,17.02,68.75,17.6z
		 M154.74,24.97c0.03-0.61-1.72-1.98-2.33-1.8c-0.34,0.1-0.59,0.42-0.46,0.73c0.39,0.95,0.4,1.93,0.47,2.92
		c0.03,0.36,0.2,0.72,0.65,0.72c0.51,0,0.69-0.33,0.69-0.78c0-0.53-0.01-1.04,0.69-1.19C154.72,25.5,154.74,25.22,154.74,24.97z
		 M243.4,22.26c0.13,0.61-0.28,1.49,0.56,1.57c0.85,0.08,0.99-0.77,1.06-1.46c0.1-0.95,0.18-1.9,0.26-2.85
		c0.03-0.36,0.07-0.8-0.35-0.93c-0.46-0.14-0.73,0.21-0.92,0.59C243.52,20.17,243.66,21.28,243.4,22.26z M134.97,25.86
		c-0.35-0.78-0.05-1.74-0.36-2.61c-0.12-0.35-0.28-0.69-0.74-0.63c-0.38,0.05-0.5,0.36-0.54,0.7c-0.11,0.91-0.2,1.81-0.32,2.72
		c-0.07,0.53-0.18,1.08,0.53,1.23C134.07,27.38,134.97,26.51,134.97,25.86z M361.66,31.02c-0.13-0.98-0.24-1.96-0.4-2.94
		c-0.06-0.37-0.28-0.68-0.69-0.72c-0.45-0.04-0.61,0.3-0.72,0.66c-0.28,0.89-0.23,1.82-0.14,2.71c0.08,0.75,0.83,1.03,1.5,1.08
		C361.64,31.85,361.73,31.4,361.66,31.02z M371.46,21.98c1.24,0.04,2.4-0.47,3.63-0.54c0.37-0.02,0.89-0.14,0.79-0.67
		c-0.08-0.42-0.55-0.39-0.91-0.36c-1.3,0.12-2.6,0.27-3.9,0.39c-0.49,0.05-1.14,0.12-1.13,0.63c0.01,0.54,0.69,0.5,1.16,0.55
		C371.22,21.98,371.34,21.98,371.46,21.98z M143.41,25.83c0.16-0.82-0.2-1.57-0.26-2.36c-0.03-0.39-0.22-0.69-0.67-0.68
		c-0.42,0.01-0.48,0.35-0.57,0.66c-0.22,0.8,0.07,1.59,0.16,2.36c0.07,0.61-0.11,1.74,0.88,1.67
		C144.04,27.41,143.27,26.4,143.41,25.83z M350.86,30.26c0,0.39-0.03,0.83,0.01,1.27c0.03,0.31,0.26,0.49,0.56,0.53
		c0.26,0.03,0.52-0.08,0.57-0.33c0.3-1.28,0.39-2.57,0.23-3.88c-0.04-0.28-0.27-0.5-0.59-0.5c-0.39,0.01-0.57,0.27-0.59,0.63
		C351.02,28.73,350.62,29.45,350.86,30.26z M42.46,22.79c0.63-0.23,1.8,0.43,1.8-0.7c0.01-1.05-1.14-0.74-1.82-0.71
		c-0.65,0.02-1.8-0.49-1.8,0.66C40.65,23.17,41.81,22.58,42.46,22.79z M82.54,19.44c-0.28,0.02-0.64,0.01-1,0.06
		c-0.42,0.07-0.6,0.36-0.58,0.77c0.02,0.39,0.26,0.56,0.63,0.56c0.64-0.01,1.27,0.01,1.9-0.06c0.37-0.04,0.69-0.28,0.67-0.7
		c-0.02-0.42-0.3-0.63-0.72-0.63C83.17,19.44,82.89,19.44,82.54,19.44z M406.1,30.02c-0.44,0.02-1.22,0-1.13,0.82
		c0.1,0.92,1.07,0.83,1.72,0.97c0.61,0.13,1.02-0.31,0.99-0.91C407.63,30.02,406.93,30.01,406.1,30.02z M1.87,29.45
		c0,0,0.01,0,0.01,0c0,0.2,0,0.4,0,0.6c0.01,0.49,0.01,1.04,0.65,1.08c0.66,0.04,0.7-0.52,0.75-1c0.04-0.35,0.04-0.71,0.04-1.07
		c0-0.6-0.14-1.22-0.85-1.18c-0.71,0.04-0.59,0.71-0.6,1.22C1.87,29.21,1.87,29.33,1.87,29.45z M458.7,30.25c0-0.2,0.01-0.35,0-0.51
		c-0.02-0.5,0.08-1.16-0.67-1.14c-0.64,0.01-0.78,0.57-0.79,1.13c0,0.16,0,0.32,0.02,0.47c0.09,0.62-0.2,1.59,0.73,1.6
		C459,31.81,458.56,30.8,458.7,30.25z M418.16,22.52c0,0.01,0,0.01,0,0.02c-0.36,0-0.71-0.01-1.07,0c-0.41,0.01-0.88,0.06-0.9,0.56
		c-0.02,0.53,0.45,0.58,0.86,0.58c0.63,0.01,1.27,0,1.9-0.02c0.42-0.01,0.9-0.14,0.91-0.59c0.01-0.62-0.56-0.52-0.98-0.55
		C418.64,22.51,418.4,22.52,418.16,22.52z M230.96,24.91c0.2-0.03,0.71-0.08,1.21-0.19c0.27-0.06,0.53-0.25,0.5-0.58
		c-0.03-0.31-0.27-0.54-0.55-0.52c-0.78,0.05-1.56,0.14-2.34,0.28c-0.27,0.05-0.48,0.32-0.39,0.64c0.07,0.25,0.3,0.35,0.55,0.37
		C230.17,24.92,230.41,24.91,230.96,24.91z M93.85,27.24c-0.11-0.7-0.62-0.66-1.1-0.66c-0.62,0-1.29,0-1.31,0.84
		c-0.01,0.44,0.27,0.92,0.82,0.83C92.92,28.15,93.63,28.03,93.85,27.24z M169.62,18.9c-0.29,0.04-1.14-0.45-1.16,0.5
		c-0.02,0.73,0.79,0.63,1.32,0.66c0.55,0.03,1.31,0.03,1.34-0.64C171.15,18.55,170.37,18.87,169.62,18.9z M309.78,19.22
		c-0.46,0-1.04,0.04-0.93,0.51c0.18,0.75,1.03,0.72,1.64,0.93c0.36,0.13,0.84-0.05,0.79-0.45
		C311.18,19.33,310.33,19.44,309.78,19.22z M323.68,22.05c-0.47,0.08-1.27-0.31-1.3,0.39c-0.03,0.75,0.85,0.66,1.4,0.71
		c0.49,0.04,1.26,0.12,1.24-0.54C325.01,21.84,324.18,22.16,323.68,22.05z M221.75,32.35c0.59,0.01,0.97-0.2,0.91-0.74
		c-0.08-0.62-0.63-0.65-1.11-0.6c-0.44,0.05-1.16-0.03-1.13,0.56C220.46,32.33,221.28,32.21,221.75,32.35z M49.11,30
		c-0.05-0.5,0.01-1.13-0.68-1.2c-0.6-0.06-0.63,0.49-0.63,0.94c-0.01,0.58,0.01,1.26,0.7,1.34C49.32,31.18,48.84,30.37,49.11,30z
		 M185.25,19.67c-0.46-0.01-0.93,0.03-0.91,0.56c0.03,0.66,0.56,0.8,1.13,0.78c0.4-0.01,0.91,0.01,0.88-0.54
		C186.32,19.83,185.76,19.7,185.25,19.67z M141.67,26.28c-0.08-0.35-0.23-0.71-0.65-0.69c-0.46,0.03-0.64,0.41-0.62,0.84
		c0.02,0.41,0.26,0.66,0.69,0.62C141.51,27,141.67,26.7,141.67,26.28z M353.47,31.63c0.3-0.06,0.59-0.19,0.52-0.59
		c-0.06-0.4-0.23-0.8-0.73-0.78c-0.38,0.01-0.52,0.32-0.51,0.67C352.78,31.34,353.01,31.57,353.47,31.63z M450.11,19.78
		c0.38-0.04,0.57-0.26,0.58-0.63c0.01-0.31-0.16-0.54-0.48-0.58c-0.38-0.04-0.6,0.19-0.63,0.55
		C449.55,19.49,449.73,19.72,450.11,19.78z M11.01,18.25c-0.01-0.33-0.19-0.51-0.51-0.52c-0.37-0.02-0.62,0.14-0.6,0.54
		c0.02,0.3,0.19,0.53,0.5,0.56C10.79,18.85,10.96,18.6,11.01,18.25z M458.19,18.02c-0.03-0.32-0.21-0.51-0.53-0.48
		c-0.35,0.04-0.58,0.24-0.55,0.62c0.03,0.32,0.25,0.48,0.56,0.48C458.06,18.64,458.19,18.38,458.19,18.02z M266.81,17.51
		c-0.3,0.07-0.53,0.26-0.54,0.62c-0.01,0.26,0.1,0.48,0.4,0.44c0.39-0.05,0.64-0.3,0.66-0.69C267.34,17.58,267.11,17.5,266.81,17.51
		z M48.98,18.67c-0.06-0.15-0.1-0.41-0.41-0.39c-0.39,0.03-0.53,0.3-0.49,0.65c0.02,0.27,0.19,0.43,0.47,0.41
		C48.9,19.31,48.97,19.04,48.98,18.67z M55.48,18.96c-0.02-0.26-0.12-0.48-0.42-0.47c-0.33,0.01-0.5,0.23-0.49,0.55
		c0.01,0.26,0.15,0.47,0.43,0.48C55.34,19.52,55.45,19.26,55.48,18.96z M260.17,19.19c0.01-0.29-0.11-0.46-0.33-0.46
		c-0.3,0-0.53,0.16-0.57,0.49c-0.03,0.24,0.13,0.37,0.34,0.38C259.93,19.62,260.14,19.46,260.17,19.19z"/>
	<path fill="#090908" d="M461.08,36.2c-9.37,0.13-18.6-0.82-27.97-0.85c-17.74-0.06-36.01-0.08-53.75-0.49
		c-9.01-0.21-18.04-0.21-27.04-0.4c-12.05-0.25-23.23,0.31-35.27-0.1c-2.1-0.07-4.63-0.15-6.7-0.59c-4.52-0.96-9.13-1.22-13.71-1.63
		c-5.66-0.51-11.35-0.72-17.03-0.68c-6.52,0.05-13.05,0.29-19.56,0.67c-6.95,0.4-13.89,0.97-20.82,1.56
		c-6.81,0.58-13.61,1.37-20.47,1.41c-2.71,0.01-5.42,0.28-8.15,0.28c-6.5,0-12.94-0.58-19.41-1.12c-4.44-0.37-8.82-0.99-13.19-1.74
		c-3.33-0.58-6.7-0.68-10.05-0.74c-10.13-0.18-20.25-0.79-30.38-0.54c-10.13,0.24-20.53-0.44-30.65,0.01
		c-18.08,0.8-36.14,2-54.15,3.73c-4.5,0.43-9.01,0.64-13.55,0.57c-12.93-0.22-25.59,0.4-38.51-0.02c-0.74-0.02-1.08-0.16-1-0.98
		c0.09-0.87,0.04-1.76,0.05-2.64c7.92,0.3,15.83,0.62,23.75,0.9c3.64,0.13,7.28,0.2,10.92,0.3c3.84,0.1,7.68,0.3,11.52,0.26
		c1.98-0.02,3.96-0.44,5.93-0.77c3.48-0.57,7-0.62,10.5-0.92c7.45-0.63,14.92-1.03,22.38-1.43c3.35-0.18,6.71-0.34,10.06-0.52
		c8.47-0.46,16.95-0.7,25.43-0.84c5.08-0.08,10.17-0.01,15.25-0.2c5.24-0.2,10.48,0.03,15.72,0.13c5.4,0.1,10.79,0.41,16.18,0.62
		c0.3,0.01,0.6,0,0.99,0c-1.7-0.83-3.52-0.59-5.17-1.16c-0.71-0.24-1.48-0.33-2.16-0.69c-0.33-0.18-0.67-0.38-0.51-0.82
		c0.16-0.42,0.55-0.43,0.92-0.31c3.42,1.18,6.93,1.88,10.54,2.12c0.26,0.02,0.71,0.14,0.74,0.29c0.23,1.18,1.13,0.86,1.86,0.88
		c3.78,0.11,7.45,0.93,11.15,1.57c5.04,0.87,10.13,1.4,15.24,1.78c4,0.3,8,0.35,12,0.23c4.31-0.13,8.62-0.44,12.94-0.68
		c0.39-0.02,0.79,0.08,0.64-0.63c-0.1-0.46,0.37-0.48,0.76-0.46c3.22,0.19,6.38-0.01,9.41-1.31c1.8-0.78,3.77-0.67,5.67-0.79
		c2.77-0.17,5.23-1.42,7.88-1.99c1.45-0.31,2.81-0.47,4.2,0.25c0.77,0.4,1.67,0.54,2.56,0.56c0.5,0.01,1.12,0.13,1.07,0.7
		c-0.06,0.71-0.67,0.38-1.13,0.35c-1.45-0.07-2.82-0.42-4.19-0.91c-1.24-0.45-2.49,0.16-3.61,0.56c-3.09,1.11-6.26,1.56-9.52,1.72
		c-1.26,0.06-2.49,0.37-3.84,1.12c1.68,0.24,3.08-0.11,4.49-0.22c6.38-0.51,12.75-1.02,19.14-1.43c1.68-0.11,3.35-0.25,5.03-0.23
		c0.77,0.01,1.13-0.27,1.02-1.06c-0.03-0.2-0.04-0.4-0.02-0.6c0.04-0.44,0.22-0.81,0.7-0.82c0.43-0.01,0.7,0.37,0.64,0.73
		c-0.29,1.81,0.86,1.62,2.03,1.59c5.56-0.14,11.12-0.44,16.69-0.26c9.04,0.3,18.05,0.86,26.99,2.31c2.25,0.36,4.51,0.68,6.8,0.58
		c0.54-0.02,1.1,0.15,1.31-0.65c0.12-0.45,0.67-0.36,1.06-0.34c2.9,0.21,5.72-0.54,8.58-0.78c0.51-0.04,1.01-0.23,1.5-0.41
		c0.5-0.18,1.09-0.48,1.34,0.19c0.31,0.81-0.5,0.85-0.99,1.02c-1.34,0.46-2.76,0.4-4.14,0.62c-1.18,0.19-2.37,0.26-3.55,0.43
		c3.67,0.23,7.34,0.19,11.01,0.29c7.88,0.22,15.77,0.23,23.65,0.37c24.82,0.44,49.64,0.19,74.46,0.11
		c9.16-0.03,18.32-0.43,27.48-0.66C461.08,33.8,461.08,35,461.08,36.2z"/>
	<path fill="#090908" d="M-0.23,14.82c-0.03-1.07-0.46-2.44,0.14-3.13c0.58-0.66,1.95-0.05,2.97,0c8.92,0.49,18.11,2,27.02,2.55
		c5.04,0.31,10.08,0.26,15.12,0.06c16.28-0.63,32.55-1.42,48.83-2.01c16.77-0.6,33.27-1.96,50.04-1.12
		c11.8,0.59,23.54,1.75,35.23,3.52c6.01,0.91,11.98,2.14,18.05,2.66c4.63,0.4,9.26,0.7,13.91,0.52c6.32-0.25,12.64-0.43,18.95-0.83
		c4.67-0.3,9.31-1.01,13.98-1.35c8.18-0.6,16.3-1.83,24.49-2.36c4.76-0.31,9.52-0.49,14.27-0.43c7.49,0.09,14.94,0.85,22.32,2.21
		c3.9,0.72,7.8,1.36,11.65,2.31c0.81,0.2,1.67,0.23,2.5,0.24c21.79,0.18,43.59,0.5,65.36-0.37c7.8-0.31,15.33-0.33,23.13-0.79
		c11.15-0.66,22.45-1.24,33.58-2.23c6.54-0.58,13.21-1.56,19.75-2.09c0,1.12,0,2.24,0,3.36c-8.02,0.53-16.04,1.08-24.06,1.6
		c-3.31,0.21-6.63,0.37-9.95,0.5c-9.96,0.38-19.9,1.12-29.87,1.08c-1.56-0.01-3.12,0.11-4.68,0.13c-7.65,0.12-15.29,0.17-22.94,0.35
		c-10.45,0.25-20.89,0.49-31.34,0.31c-5.2-0.09-10.43-0.39-15.6-0.03c-4.26,0.29-8.12-0.96-12.14-1.75
		c-5.33-1.05-10.72-1.75-16.13-2.28c-4.83-0.47-9.66-0.6-14.49-0.63c-6.72-0.04-13.42,0.46-20.11,1.13
		c-8.11,0.81-16.23,1.58-24.33,2.48c-6.13,0.68-12.28,0.88-18.42,1.27c-4.52,0.29-9.04,0.29-13.55,0.14
		c-6.51-0.23-12.99-0.81-19.4-2.18c-4.09-0.87-8.25-1.44-12.46-1.7c-4.94-0.31-9.86-0.99-14.79-1.48c-1.59-0.16-3.19-0.28-4.78-0.36
		c-10.59-0.55-21.19-0.85-31.8-0.71c-6.92,0.09-13.84,0.27-20.76,0.48c-5.6,0.17-11.19,0.44-16.78,0.71
		c-5.91,0.28-11.82,0.6-17.73,0.94c-5.43,0.32-10.84,0.82-16.27,1.02c-3.75,0.14-7.51-0.1-11.27-0.17c-1.12-0.02-2.24-0.1-3.36-0.12
		c-9.2-0.16-18.39-0.69-27.58-1.16C4.24,15.01,2,14.92-0.23,14.82z"/>
	<path fill="#090908" d="M412.74,31.05c2.43,0.28,4.7,0.45,6.98,0.38c0.98-0.03,1.91-0.18,2.79-0.58c1.63-0.75,3.37-1.17,5.13-1.03
		c4.45,0.36,8.64-0.75,12.83-1.92c1.43-0.4,2.74-0.25,4.04,0.48c0.91,0.51,1.92,0.78,2.97,0.85c0.41,0.03,0.81,0.06,1.13,0.33
		c0.29,0.24,0.52,0.54,0.34,0.94c-0.19,0.41-0.53,0.39-0.92,0.27c-1.64-0.49-3.36-0.64-4.92-1.45c-1.36-0.71-2.72,0.27-4.11,0.27
		c-0.27,0-0.56,0.07-0.82,0.18c-3.57,1.47-7.33,1.48-11.1,1.41c-1.34-0.02-2.6,0.41-3.84,0.85c-2.4,0.85-4.85,0.9-7.34,0.61
		c-1.03-0.12-2.07-0.19-3.09-0.35c-0.39-0.06-0.78-0.31-0.68-0.82C412.22,31.07,412.59,31.07,412.74,31.05z"/>
	<path fill="#090908" d="M280.13,24.62c2.87-0.13,5.63,0.68,8.47,0.86c2.91,0.18,5.82,0.37,8.73,0.62c4.59,0.4,9.08,1.34,13.53,2.54
		c0.81,0.22,1.68,0.13,2.46,0.5c0.37,0.18,0.8,0.39,0.62,0.88c-0.18,0.48-0.62,0.38-1.03,0.28c-2.68-0.63-5.35-1.33-8.06-1.86
		c-3.92-0.76-7.88-1.31-11.89-1.4c-3.4-0.07-6.77-0.52-10.13-1.03c-2.53-0.38-5.03,0.07-7.54,0.1c-0.28,0-0.56,0.04-0.84,0.02
		c-0.44-0.04-1.12,0.22-1.18-0.45c-0.07-0.72,0.61-0.72,1.12-0.75C276.29,24.82,278.21,24.72,280.13,24.62z"/>
	<path fill="#090908" d="M10.46,30.4c1.9,0.22,3.72-0.07,5.54-0.71c2.65-0.93,5.4-0.28,8.1-0.3c1.62-0.01,3.2-0.08,4.72-0.64
		c1.6-0.59,3.25,0.21,4.9-0.11c0.62-0.12,1.39,0.45,1.93,0.82c1.38,0.95,2.92-0.06,4.52,0.33c0.47,0.12,0.9,0.24,1.1-0.31
		c0.21-0.57-0.13-1.03-0.62-1.1c-1.81-0.28-2.63,0.47-4.3-0.13c-1.81-0.65-4.52-1.87-6.25-1.28c-3.29,1.13-6.62,0.99-9.96,0.86
		c-1.8-0.07-3.51,0.11-5.17,0.78c-2.07,0.83-4.19,0.3-6.3,0.28c-0.4,0-1.06-0.31-1.11,0.27c-0.05,0.58,0.36,1.11,1.12,1.13
		C9.26,30.31,9.86,30.36,10.46,30.4z"/>
	<path fill="#090908" d="M213.47,30.13c-3.45-0.31-6.86,0.04-10.27,0.49c-0.75,0.1-1.51-0.04-2.27-0.11c-3.66-0.3-7.33-0.58-10.99-0.82
		c-2.91-0.19-5.82-0.23-8.7-0.79c-0.43-0.08-1-0.16-0.95-0.71c0.06-0.62,0.64-0.64,1.13-0.54c5.16,1.02,10.42,0.87,15.62,1.39
		c1.31,0.13,2.63,0.23,3.94,0.36c1.2,0.12,2.38,0.06,3.58-0.1c2.57-0.34,5.15-0.63,7.76-0.36c0.98,0.1,1.99-0.08,2.99-0.11
		c0.47-0.01,1.09-0.03,1.14,0.6c0.05,0.67-0.58,0.66-1.04,0.68C214.75,30.15,214.11,30.13,213.47,30.13z"/>
	<path fill="#090908" d="M81.92,29.71c-1.51,0.11-2.79-0.08-4.04-0.6c-1.47-0.62-3.02-0.61-4.6-0.46c-2.43,0.23-4.85,0.37-7.25-0.4
		c-1.17-0.37-2.43-0.49-3.65-0.61c-0.69-0.07-1.32,0.27-1.85,0.74c-1.08,0.97-2.52,1.15-3.78,1.73c-0.39,0.18-0.6-0.15-0.65-0.49
		c-0.07-0.44,0.14-0.83,0.53-0.98c3.06-1.18,5.96-3.21,9.53-1.78c2.42,0.97,4.95,0.7,7.46,0.51c1.9-0.14,3.72,0.13,5.52,0.82
		c1.78,0.68,3.64,0.06,5.47,0.06c0.67,0,1.35-0.16,2.02-0.26c0.38-0.06,0.86-0.32,0.97,0.28c0.08,0.47-0.35,0.7-0.75,0.78
		c-1.29,0.25-2.59,0.47-3.89,0.67C82.56,29.76,82.15,29.71,81.92,29.71z"/>
	<path fill="#090908" d="M279.26,16.07c5.14-0.23,10.22,0.27,15.25,1.34c1.01,0.21,2.06,0.21,3.1,0.31c0.43,0.04,0.98,0.03,0.93,0.66
		c-0.05,0.53-0.55,0.71-0.99,0.68c-1.15-0.06-2.34-0.06-3.45-0.33c-5.41-1.31-10.9-1.63-16.43-1.45c-2,0.07-4,0.12-5.99,0.17
		c-0.43,0.01-1,0.1-1.03-0.52c-0.03-0.59,0.51-0.61,0.95-0.66C274.14,15.95,276.7,16.15,279.26,16.07z"/>
	<path fill="#090908" d="M138.93,16.49c4.11,0.19,8.24,0.21,12.33,0.63c3.28,0.34,6.6,0.6,9.81,1.49c0.44,0.12,1.12,0.05,1.02,0.73
		c-0.11,0.73-0.79,0.57-1.27,0.46c-8.05-1.8-16.24-1.82-24.43-1.87c-0.48,0-0.96,0.03-1.44,0.05c-0.34,0.01-0.67-0.02-0.77-0.41
		c-0.09-0.38,0.2-0.59,0.48-0.75c0.74-0.41,1.56-0.25,2.35-0.27c0.64-0.02,1.28,0,1.92,0C138.93,16.53,138.93,16.51,138.93,16.49z"
		/>
	<path fill="#090908" d="M359.7,23.12c-3.51-0.05-7.02-0.17-10.54,0.03c-0.71,0.04-1.43-0.09-2.15-0.09c-4.59,0-9.18,0.07-13.75,0.58
		c-0.57,0.06-1.54,0.38-1.58-0.5c-0.03-0.75,0.92-0.51,1.48-0.56c8.37-0.76,16.77-0.47,25.16-0.56c0.52-0.01,1.04,0.01,1.55,0.09
		c0.36,0.06,0.74,0.28,0.63,0.72C360.41,23.21,360.03,23.22,359.7,23.12z"/>
	<path fill="#090908" d="M208.27,22.23c-2.2-0.18-5.74,0.4-9.29,0.5c-1.09,0.03-2.16-0.11-3.23-0.23c-0.38-0.04-0.73-0.21-0.64-0.68
		c0.08-0.39,0.43-0.43,0.76-0.41c7.36,0.34,14.7-0.29,22.05-0.51c0.6-0.02,1.69-0.45,1.73,0.43c0.05,0.97-1.08,0.66-1.73,0.69
		C215.16,22.12,212.4,22.36,208.27,22.23z"/>
	<path fill="#090908" d="M131.64,24.65c-0.08,0.61-0.11,1.22-0.7,1.37c-0.67,0.17-0.89-0.45-1.05-0.92c-0.31-0.9-0.69-1.82-0.75-2.76
		c-0.12-1.94-0.77-3.74-1.17-5.6c-0.08-0.38-0.11-0.8-0.05-1.18c0.05-0.38,0.34-0.66,0.76-0.62c0.39,0.03,0.53,0.34,0.51,0.69
		c-0.03,0.6,0.09,1.08,0.65,1.42c0.17,0.1,0.31,0.42,0.29,0.61c-0.27,2.2,1.01,4.07,1.33,6.14
		C131.51,24.11,131.59,24.42,131.64,24.65z"/>
	<path fill="#090908" d="M363.03,29.01c0.22-1.01,0.5-2.13,1.01-3.17c0.25-0.5,0.62-1.01,0.52-1.57c-0.26-1.41,1.13-2.15,1.3-3.38
		c0.03-0.24,0.34-0.32,0.6-0.29c0.26,0.03,0.48,0.14,0.55,0.39c0.06,0.22,0.09,0.5,0.01,0.7c-1.09,2.51-1.22,5.28-2.18,7.81
		c-0.19,0.5-0.28,1.23-1.03,1.09C363.06,30.45,363.05,29.75,363.03,29.01z"/>
	<path fill="#090908" d="M104.74,18.87c0.05-1,0.04-1.99-0.15-2.97c-0.09-0.49-0.01-1.01,0.55-1.19c0.57-0.18,0.72,0.34,0.94,0.71
		c0.18,0.31,0.38,0.63,0.34,1c-0.24,1.99,0.46,3.85,0.79,5.76c0.07,0.39,0.16,0.81,0.08,1.18c-0.14,0.63-0.41,1-1.16,0.43
		c-1.08-0.81-1.28-1.95-1.39-3.14C104.69,20.06,104.74,19.46,104.74,18.87z"/>
	<path fill="#090908" d="M102.76,21.48c0,0.85,0.03,1.85-0.01,2.84c-0.02,0.56-0.11,1.24-0.85,1.19c-0.64-0.04-0.72-0.64-0.72-1.19
		c-0.01-2.74,0.23-5.5-0.69-8.17c-0.13-0.38-0.09-0.84,0.41-0.97c0.48-0.12,0.69,0.26,0.92,0.6
		C102.95,17.5,102.85,19.42,102.76,21.48z"/>
	<path fill="#090908" d="M398.6,26.34c0.16-0.88,0.23-2.07,0.27-3.27c0.03-1.02,1.61-2.86,2.58-3.1c0.72-0.18,1.15,0.12,0.94,0.88
		c-0.16,0.57-0.48,1.09-0.75,1.63c-0.67,1.33-1.28,2.65-1.14,4.21c0.06,0.66,0.01,1.53-0.91,1.54
		C398.63,28.22,398.53,27.42,398.6,26.34z"/>
	<path fill="#090908" d="M392.41,21.19c-0.67,1.66,0.19,3.59-0.6,5.41c-0.36,0.83-1.03,1.24-1.64,1.59c-0.68,0.39-0.94-0.31-0.92-0.94
		c0.03-1.18,0.61-2.22,0.86-3.35c0.17-0.78,0.43-1.53,0.31-2.35c-0.06-0.41,0.03-0.79,0.34-1.1c0.35-0.36,0.61-0.95,1.25-0.67
		C392.57,20.01,392.33,20.59,392.41,21.19z"/>
	<path fill="#090908" d="M34.35,22.33c0.01,1.18-0.47,1.6-1.14,1.3c-1.63-0.72-2.86-3.17-2.52-5.01c0.14-0.76,0.51-1.4,1.24-1.59
		c0.81-0.22,1.16,0.59,1.33,1.12C33.74,19.61,34.05,21.13,34.35,22.33z"/>
	<path fill="#090908" d="M375.64,25.16c-2.64-0.24-5,0.11-7.34,0.65c-0.08,0.02-0.16,0.04-0.23,0.05c-0.42,0.03-0.97,0.25-1.13-0.33
		c-0.15-0.57,0.39-0.71,0.81-0.83c1.61-0.49,3.26-0.79,4.93-0.89c1.71-0.1,3.43-0.03,5.15-0.02c0.31,0,0.63,0.06,0.94,0.15
		c0.37,0.11,0.65,0.35,0.59,0.78c-0.07,0.49-0.46,0.45-0.83,0.45C377.49,25.16,376.45,25.16,375.64,25.16z"/>
	<path fill="#090908" d="M99.21,22.77c0,0.04,0.01,0.28,0,0.52c-0.04,0.57-0.26,1.08-0.89,1.07c-0.58-0.01-0.81-0.54-0.76-1.03
		c0.24-2.33-0.79-4.35-1.47-6.46c-0.15-0.47-0.48-1.03,0.13-1.4c0.58-0.36,0.97,0.12,1.32,0.49c0.89,0.96,1.51,2.01,1.48,3.4
		C98.99,20.43,99.13,21.5,99.21,22.77z"/>
	<path fill="#090908" d="M127.06,21.18c-2.79-0.93-5.66-0.94-8.54-0.81c-0.6,0.03-1.19,0.12-1.78,0.18c-0.38,0.04-0.76,0-0.84-0.46
		c-0.08-0.42,0.2-0.73,0.56-0.81c0.58-0.13,1.18-0.17,1.77-0.22c3.04-0.23,6.06-0.21,8.99,0.84c0.39,0.14,0.81,0.31,0.7,0.81
		C127.83,21.12,127.47,21.24,127.06,21.18z"/>
	<path fill="#090908" d="M394.52,25.73c0-1.75-0.22-3.53,1.06-5.02c0.34-0.4,0.61-0.97,1.22-0.71c0.66,0.29,0.38,0.88,0.18,1.35
		c-0.9,2.17-0.79,4.46-0.77,6.73c0,0.58,0.15,1.32-0.73,1.38c-0.93,0.06-0.94-0.69-0.95-1.34
		C394.51,27.33,394.52,26.53,394.52,25.73z"/>
	<path fill="#090908" d="M429.9,20.61c0.3,2.15-1.6,2.8-2.77,3.87c-0.52,0.47-1.23-0.21-1.05-0.76c0.5-1.53,0.44-3.25,1.49-4.6
		c0.29-0.37,0.47-0.95,1.05-0.82c0.62,0.14,0.98,0.67,1.17,1.25C429.92,19.87,429.87,20.25,429.9,20.61z"/>
	<path fill="#090908" d="M413.28,21.31c-0.08,0-0.16,0.01-0.24,0c-0.51-0.06-1.34,0.25-1.37-0.52c-0.04-0.88,0.85-0.57,1.38-0.67
		c3.18-0.59,6.44-0.3,9.63-0.82c0.16-0.03,0.32-0.05,0.47-0.05c0.43,0.02,1.01-0.05,1.06,0.51c0.05,0.59-0.53,0.55-0.96,0.63
		C419.96,20.99,416.57,20.62,413.28,21.31z"/>
	<path fill="#090908" d="M86.11,17.91c-2.58-0.52-5.19,0.19-7.77-0.18c-0.46-0.07-1.1,0.09-1.14-0.57c-0.05-0.7,0.62-0.85,1.11-0.79
		c2.98,0.36,5.98-0.29,8.96,0.14c0.38,0.06,0.76,0.1,0.8,0.55c0.05,0.53-0.36,0.64-0.78,0.7C86.89,17.81,86.5,17.86,86.11,17.91z"/>
	<path fill="#090908" d="M384.25,27.3c-0.64,0.01-1.03-0.24-1.31-0.67c-0.29-0.46-0.09-0.91,0.23-1.19c1.45-1.26,2.25-2.86,2.73-4.68
		c0.13-0.48,0.51-0.6,0.94-0.48c0.49,0.14,0.92,0.4,0.78,1.01c-0.09,0.38-0.22,0.78-0.44,1.11c-0.68,1.02-1.11,2.12-1.34,3.31
		C385.66,26.62,385.08,27.16,384.25,27.3z"/>
	<path fill="#090908" d="M75.63,21.03c0,0.93-0.52,1.37-1.11,1.1c-1.97-0.91-2.84-3.79-1.72-5.66c0.52-0.87,0.91-0.88,1.45-0.05
		C75.2,17.88,75.09,19.63,75.63,21.03z"/>
	<path fill="#090908" d="M108.75,16.27c0.06-0.52,0.1-1.03,0.71-1.15c0.66-0.12,0.73,0.35,0.86,0.87c0.45,1.73,0.84,3.49,2.17,4.86
		c0.59,0.61,0.49,1.36-0.25,1.85c-0.71,0.48-1.47,0.22-1.68-0.5C109.99,20.22,109.44,18.22,108.75,16.27z"/>
	<path fill="#090908" d="M226.99,22.78c-0.29,0-0.41,0.01-0.53,0c-0.37-0.04-0.92,0.15-0.99-0.39c-0.07-0.57,0.49-0.68,0.91-0.74
		c3.03-0.46,6.07-0.9,9.11-1.34c0.44-0.07,0.98-0.19,1.07,0.4c0.08,0.52-0.39,0.74-0.86,0.81
		C232.74,21.95,229.78,22.38,226.99,22.78z"/>
	<path fill="#090908" d="M14.55,18.06c0.05-0.23,0.11-0.58,0.21-0.93c0.14-0.45,0.4-0.83,0.93-0.76c0.56,0.08,0.45,0.54,0.46,0.94
		c0.05,1.45,0.83,2.65,1.43,3.9c0.3,0.62,0.75,1.3-0.13,1.75c-0.82,0.42-1.45,0.03-1.87-0.76C14.91,20.96,14.69,19.59,14.55,18.06z"
		/>
	<path fill="#090908" d="M241.48,21.08c0.17,1.8-1.28,2.72-2.35,3.86c-0.2,0.22-0.5,0.24-0.77,0.06c-0.31-0.21-0.35-0.54-0.28-0.85
		c0.29-1.28,0.56-2.56,1.11-3.75c0.27-0.59,0.65-1.34,1.47-1.15C241.55,19.46,241.51,20.28,241.48,21.08z"/>
	<path fill="#090908" d="M441.33,19.11c-0.21,1.29-0.38,2.43-0.86,3.5c-0.26,0.57-0.65,1-1.25,1.21c-0.47,0.17-0.87,0.03-1.21-0.29
		c-0.33-0.32-0.14-0.66,0.02-0.99c0.4-0.82,0.82-1.64,1.21-2.47c0.27-0.57,0.59-1.14,0.39-1.82c-0.15-0.48,0.09-0.8,0.51-0.92
		c0.42-0.12,0.68,0.19,0.81,0.54C441.12,18.32,441.23,18.79,441.33,19.11z"/>
	<path fill="#090908" d="M42.97,19.65c-1.96,0.05-3.88-0.35-5.83-0.5c-0.43-0.03-0.84-0.15-0.81-0.67c0.03-0.53,0.49-0.57,0.9-0.56
		c2.51,0.11,5.01,0.22,7.52,0.35c0.61,0.03,0.94,0.32,0.88,1c-0.08,0.83-0.63,0.35-0.98,0.37C44.09,19.67,43.53,19.65,42.97,19.65z"
		/>
	<path fill="#090908" d="M454.36,18.45c0,1.11-0.34,2.19-0.28,3.32c0.02,0.42-0.27,0.94-0.66,0.82c-0.63-0.19-1.53-0.26-1.67-1.11
		c-0.25-1.5,0.31-2.9,0.77-4.29c0.16-0.5,0.73-0.4,1.16-0.38c0.5,0.03,0.67,0.37,0.68,0.81C454.37,17.9,454.36,18.17,454.36,18.45z"
		/>
	<path fill="#090908" d="M6.2,17.52C6.3,16.95,5.92,16.12,7,16c1.06-0.12,1.25,0.57,1.41,1.37c0.17,0.85,0.47,1.68,0.47,2.57
		c0,0.76-0.17,1.23-0.98,1.53c-1.02,0.37-1.36,0.26-1.45-0.83C6.38,19.61,6.29,18.59,6.2,17.52z"/>
	<path fill="#090908" d="M445,21.43c-0.25-0.91,0.45-1.87,0.6-2.92c0.06-0.42,0.4-0.72,0.85-0.7c0.47,0.03,0.9,0.3,0.97,0.76
		c0.27,1.66-0.11,3.26-0.88,4.71c-0.36,0.68-1.22,0.45-1.41-0.33C445.02,22.54,445.05,22.09,445,21.43z"/>
	<path fill="#090908" d="M346.17,32.11c-0.44-0.08-0.64-0.35-0.65-0.75c-0.02-0.91-0.49-0.86-1.1-0.54c-0.5,0.27-1.11,0.66-1.42-0.08
		c-0.27-0.65,0.44-0.92,0.88-1.24c0.06-0.05,0.15-0.1,0.21-0.1c1.34,0.08,2.19-0.43,2.52-1.82c0.1-0.41,0.61-0.64,1.09-0.33
		c0.52,0.34,0.31,0.68,0.03,1.1c-0.56,0.85-0.74,1.84-0.87,2.83C346.8,31.62,346.76,32.09,346.17,32.11z"/>
	<path fill="#090908" d="M260.9,20.95c0.12-1.42,0.69-2.49,1.18-3.57c0.25-0.55,0.8-0.68,1.34-0.49c0.56,0.19,0.44,0.73,0.36,1.14
		c-0.22,1.18-0.47,2.35-0.77,3.51c-0.11,0.45-0.45,0.83-0.98,0.64C261.4,21.94,260.68,21.71,260.9,20.95z"/>
	<path fill="#090908" d="M251.76,19.24c-0.17,1.32-0.54,2.66-1.3,3.86c-0.38,0.6-0.93,1.15-1.67,0.71c-0.78-0.46-0.28-1.12,0.01-1.67
		c0.63-1.19,1.56-2.23,1.63-3.68c0.02-0.36,0.33-0.72,0.75-0.6C251.8,18.05,251.77,18.64,251.76,19.24z"/>
	<path fill="#090908" d="M63.93,17.34c0.15,1.17,0.81,2.35,1.4,3.56c0.3,0.61,0.35,1.18-0.34,1.52c-0.59,0.29-1.08,0.07-1.39-0.51
		c-0.8-1.52-1.11-3.14-0.85-4.84c0.06-0.42,0.22-0.97,0.74-0.95C64.08,16.15,64.04,16.67,63.93,17.34z"/>
	<path fill="#090908" d="M51.39,18.92c0-0.5-0.02-0.82,0-1.13c0.04-0.48,0.37-0.66,0.8-0.73c0.47-0.07,0.78,0.11,0.89,0.57
		c0.23,1,0.45,2.01,0.65,3.02c0.21,1.04-0.54,1.53-1.26,1.93c-0.56,0.31-0.77-0.19-0.82-0.66C51.54,20.88,51.46,19.81,51.39,18.92z"
		/>
	<path fill="#090908" d="M146.7,22.75c0.67,0.04,0.87,0.55,0.98,1.05c0.21,0.91,0.55,1.54,1.67,1.38c0.31-0.05,0.7,0.16,0.98,0.36
		c0.4,0.28,1.01,0.61,0.62,1.22c-0.38,0.59-0.83,0.1-1.22-0.14c-0.59-0.36-1.07-0.48-1.05,0.49c0.01,0.41-0.14,0.71-0.61,0.7
		c-0.4,0-0.54-0.27-0.62-0.61c-0.27-1.21-0.68-2.36-1.29-3.44C145.9,23.27,146.03,22.82,146.7,22.75z"/>
	<path fill="#090908" d="M254.8,22.48c0.03-1.29,0.29-2.53,0.86-3.69c0.25-0.5,0.56-0.95,1.17-0.75c0.59,0.2,0.63,0.7,0.54,1.28
		c-0.19,1.23-0.53,2.41-1.12,3.51c-0.21,0.4-0.55,0.73-1.06,0.54C254.8,23.23,254.74,22.86,254.8,22.48z"/>
	<path fill="#090908" d="M92.73,18.64c0,0.52,0.02,0.8,0,1.08c-0.03,0.35-0.22,0.6-0.55,0.72c-0.38,0.14-0.64-0.12-0.77-0.4
		c-0.51-1.07-1.02-2.16-1.45-3.27c-0.18-0.47-0.04-0.98,0.47-1.23c0.59-0.28,1.11-0.03,1.49,0.41
		C92.63,16.8,92.69,17.84,92.73,18.64z"/>
	<path fill="#090908" d="M57.24,19.22c-0.04-0.65,0-1,0.18-1.32c0.18-0.32,0.42-0.62,0.82-0.62c0.44,0,0.58,0.36,0.7,0.71
		c0.47,1.37,0.51,2.79,0.38,4.21c-0.03,0.39-0.18,0.72-0.62,0.74c-0.42,0.02-0.63-0.3-0.77-0.64C57.5,21.22,57.33,20.08,57.24,19.22
		z"/>
	<path fill="#090908" d="M408.43,19.6c0.77-0.02,1.18,0.32,0.92,1.09c-0.37,1.09-1.07,2.02-1.71,2.97c-0.24,0.36-0.67,0.42-1.08,0.29
		c-0.49-0.15-0.53-0.57-0.46-0.97c0.17-1.05,0.2-2.16,1.12-2.92C407.57,19.78,407.97,19.61,408.43,19.6z"/>
	<path fill="#090908" d="M21.91,19.41c0.05-0.59,0.09-1.19,0.16-1.78c0.04-0.35,0.27-0.57,0.64-0.59c0.33-0.02,0.58,0.17,0.63,0.45
		c0.27,1.71,0.56,3.42,0.2,5.15c-0.07,0.32-0.32,0.59-0.69,0.54c-0.51-0.07-0.78-0.44-0.8-0.91c-0.04-0.95-0.01-1.9-0.01-2.85
		C22,19.41,21.95,19.41,21.91,19.41z"/>
	<path fill="#090908" d="M137.2,24.74c0.03-0.37,0.07-1.08,0.18-1.79c0.05-0.32,0.26-0.61,0.65-0.59c0.33,0.02,0.51,0.25,0.53,0.55
		c0.03,0.45,0.32,0.67,0.63,0.95c0.89,0.79,0.81,1.25-0.27,1.77c-0.5,0.24-0.29,0.68-0.34,1.05c-0.06,0.49-0.22,0.89-0.79,0.84
		c-0.51-0.04-0.6-0.45-0.6-0.88C137.2,26.13,137.2,25.61,137.2,24.74z"/>
	<path fill="#090908" d="M357.29,30.78c-0.09,0.43,0.31,1.14-0.44,1.27c-0.76,0.14-0.85-0.56-0.96-1.1c-0.08-0.39-0.05-0.71-0.65-0.79
		c-0.9-0.11-1.04-0.64-0.44-1.4c0.36-0.45,0.95-0.7,1.06-1.37c0.04-0.24,0.33-0.35,0.58-0.3c0.42,0.09,0.54,0.42,0.58,0.8
		C357.11,28.86,357.2,29.8,357.29,30.78z"/>
	<path fill="#090908" d="M433.92,20.55c0,0.67,0.04,1.35-0.01,2.02c-0.04,0.51-0.29,0.93-0.89,0.93c-0.64,0-0.76-0.45-0.77-0.98
		c-0.03-1.3,0.11-2.59,0.28-3.88c0.06-0.47,0.29-0.89,0.82-0.86c0.58,0.03,0.61,0.53,0.62,0.98c0.01,0.6,0,1.19,0,1.79
		C433.95,20.55,433.94,20.55,433.92,20.55z"/>
	<path fill="#090908" d="M341.87,28.1c-0.36,0.83-0.27,1.71-0.26,2.59c0,0.42-0.05,0.85-0.56,0.91c-0.54,0.07-0.81-0.27-0.84-0.78
		c-0.04-0.59-0.15-1.07-0.8-1.31c-0.54-0.2-0.4-0.72-0.31-1.14c0.1-0.41,0.34-0.78,0.83-0.65c0.41,0.1,0.67,0.05,0.91-0.31
		c0.17-0.25,0.45-0.33,0.74-0.16C341.91,27.45,341.9,27.77,341.87,28.1z"/>
	<path fill="#090908" d="M220.79,24.39c0.05-1.21,0.25-2.28,1.27-3c0.39-0.27,0.79-0.4,1.21-0.11c0.44,0.31,0.4,0.74,0.21,1.17
		c-0.31,0.72-0.66,1.44-0.95,2.17c-0.21,0.53-0.4,1.12-1.11,1.03C220.61,25.54,220.86,24.83,220.79,24.39z"/>
	<path fill="#090908" d="M123.23,16.71c-1.14,0.09-2.14-0.58-3.27-0.57c-0.33,0-0.74-0.22-0.65-0.69c0.06-0.34,0.36-0.57,0.7-0.54
		c1.5,0.14,3,0.3,4.5,0.49c0.31,0.04,0.63,0.23,0.57,0.64c-0.05,0.36-0.33,0.56-0.66,0.61C124.03,16.71,123.63,16.69,123.23,16.71z"
		/>
	<path fill="#090908" d="M68.75,17.6c0.13-0.58-0.31-1.69,0.63-1.71c0.99-0.02,0.71,1.1,0.77,1.81c0.08,0.95,0.14,1.9,0.19,2.84
		c0.02,0.5-0.06,1.06-0.66,1.1c-0.61,0.04-0.74-0.5-0.77-1C68.85,19.65,68.81,18.66,68.75,17.6z"/>
	<path fill="#090908" d="M154.74,24.97c0.01,0.25-0.02,0.53-0.28,0.59c-0.69,0.15-0.69,0.66-0.69,1.19c0,0.45-0.18,0.79-0.69,0.78
		c-0.45,0-0.63-0.36-0.65-0.72c-0.07-0.99-0.08-1.98-0.47-2.92c-0.13-0.31,0.12-0.63,0.46-0.73
		C153.01,22.99,154.76,24.36,154.74,24.97z"/>
	<path fill="#090908" d="M243.4,22.26c0.26-0.97,0.12-2.08,0.61-3.08c0.19-0.38,0.46-0.73,0.92-0.59c0.42,0.13,0.37,0.57,0.35,0.93
		c-0.08,0.95-0.16,1.9-0.26,2.85c-0.07,0.69-0.21,1.54-1.06,1.46C243.12,23.75,243.54,22.87,243.4,22.26z"/>
	<path fill="#090908" d="M134.97,25.86c0,0.64-0.9,1.51-1.43,1.4c-0.71-0.15-0.6-0.7-0.53-1.23c0.12-0.9,0.21-1.81,0.32-2.72
		c0.04-0.33,0.16-0.64,0.54-0.7c0.46-0.06,0.62,0.28,0.74,0.63C134.92,24.12,134.63,25.08,134.97,25.86z"/>
	<path fill="#090908" d="M361.66,31.02c0.07,0.38-0.02,0.83-0.45,0.79c-0.68-0.05-1.42-0.34-1.5-1.08c-0.09-0.89-0.14-1.82,0.14-2.71
		c0.11-0.36,0.27-0.7,0.72-0.66c0.41,0.04,0.63,0.36,0.69,0.72C361.42,29.06,361.53,30.04,361.66,31.02z"/>
	<path fill="#090908" d="M371.46,21.98c-0.12,0-0.24,0.01-0.36,0c-0.47-0.04-1.15,0-1.16-0.55c-0.01-0.51,0.64-0.58,1.13-0.63
		c1.3-0.12,2.6-0.27,3.9-0.39c0.35-0.03,0.82-0.06,0.91,0.36c0.1,0.53-0.42,0.65-0.79,0.67C373.87,21.51,372.71,22.02,371.46,21.98z
		"/>
	<path fill="#090908" d="M143.41,25.83c-0.14,0.57,0.63,1.58-0.46,1.65c-0.99,0.07-0.82-1.06-0.88-1.67c-0.09-0.78-0.38-1.56-0.16-2.36
		c0.08-0.31,0.15-0.65,0.57-0.66c0.45-0.01,0.64,0.29,0.67,0.68C143.21,24.26,143.57,25.01,143.41,25.83z"/>
	<path fill="#090908" d="M350.86,30.26c-0.24-0.82,0.16-1.53,0.2-2.28c0.02-0.35,0.2-0.62,0.59-0.63c0.32-0.01,0.56,0.21,0.59,0.5
		c0.17,1.3,0.07,2.6-0.23,3.88c-0.06,0.25-0.31,0.36-0.57,0.33c-0.31-0.04-0.54-0.22-0.56-0.53
		C350.83,31.1,350.86,30.66,350.86,30.26z"/>
	<path fill="#090908" d="M42.46,22.79c-0.65-0.22-1.81,0.38-1.81-0.75c0-1.15,1.15-0.64,1.8-0.66c0.68-0.02,1.82-0.34,1.82,0.71
		C44.26,23.22,43.09,22.57,42.46,22.79z"/>
	<path fill="#090908" d="M82.54,19.44c0.35,0,0.63,0,0.91,0c0.42,0,0.7,0.21,0.72,0.63c0.02,0.43-0.3,0.67-0.67,0.7
		c-0.63,0.06-1.27,0.05-1.9,0.06c-0.37,0-0.61-0.17-0.63-0.56c-0.02-0.41,0.17-0.7,0.58-0.77C81.89,19.44,82.25,19.45,82.54,19.44z"
		/>
	<path fill="#090908" d="M406.1,30.02c0.83-0.01,1.53,0.01,1.58,0.88c0.03,0.6-0.38,1.04-0.99,0.91c-0.65-0.14-1.63-0.06-1.72-0.97
		C404.88,30.02,405.66,30.04,406.1,30.02z"/>
	<path fill="#090908" d="M1.87,29.45c0-0.12,0-0.24,0-0.36c0.02-0.5-0.11-1.18,0.6-1.22c0.71-0.04,0.85,0.58,0.85,1.18
		c0,0.36,0,0.72-0.04,1.07c-0.05,0.48-0.09,1.04-0.75,1c-0.64-0.04-0.64-0.59-0.65-1.08c0-0.2,0-0.4,0-0.6
		C1.88,29.45,1.88,29.45,1.87,29.45z"/>
	<path fill="#090908" d="M458.7,30.25c-0.14,0.55,0.3,1.56-0.71,1.55c-0.93-0.01-0.64-0.99-0.73-1.6c-0.02-0.16-0.02-0.32-0.02-0.47
		c0-0.56,0.15-1.11,0.79-1.13c0.75-0.02,0.65,0.64,0.67,1.14C458.7,29.89,458.7,30.05,458.7,30.25z"/>
	<path fill="#090908" d="M418.16,22.52c0.24,0,0.48-0.01,0.71,0c0.42,0.02,1-0.07,0.98,0.55c-0.01,0.45-0.49,0.58-0.91,0.59
		c-0.63,0.02-1.27,0.03-1.9,0.02c-0.41,0-0.88-0.05-0.86-0.58c0.02-0.5,0.49-0.55,0.9-0.56c0.36-0.01,0.71,0,1.07,0
		C418.16,22.53,418.16,22.53,418.16,22.52z"/>
	<path fill="#090908" d="M230.96,24.91c-0.55,0-0.79,0.01-1.02,0c-0.25-0.01-0.49-0.12-0.55-0.37c-0.09-0.32,0.12-0.59,0.39-0.64
		c0.77-0.14,1.55-0.23,2.34-0.28c0.29-0.02,0.52,0.22,0.55,0.52c0.03,0.33-0.22,0.51-0.5,0.58
		C231.67,24.83,231.16,24.88,230.96,24.91z"/>
	<path fill="#090908" d="M93.85,27.24c-0.23,0.78-0.94,0.9-1.59,1c-0.54,0.08-0.83-0.39-0.82-0.83c0.01-0.84,0.69-0.84,1.31-0.84
		C93.24,26.58,93.75,26.54,93.85,27.24z"/>
	<path fill="#090908" d="M169.62,18.9c0.75-0.03,1.53-0.35,1.49,0.52c-0.03,0.67-0.78,0.67-1.34,0.64c-0.53-0.03-1.33,0.07-1.32-0.66
		C168.48,18.45,169.33,18.94,169.62,18.9z"/>
	<path fill="#090908" d="M309.78,19.22c0.55,0.21,1.4,0.11,1.5,0.99c0.05,0.4-0.43,0.58-0.79,0.45c-0.6-0.21-1.46-0.18-1.64-0.93
		C308.74,19.26,309.32,19.22,309.78,19.22z"/>
	<path fill="#090908" d="M323.68,22.05c0.5,0.11,1.33-0.22,1.35,0.56c0.02,0.65-0.76,0.57-1.24,0.54c-0.55-0.04-1.43,0.04-1.4-0.71
		C322.41,21.74,323.21,22.13,323.68,22.05z"/>
	<path fill="#090908" d="M221.75,32.35c-0.47-0.14-1.29-0.02-1.33-0.77c-0.03-0.59,0.69-0.52,1.13-0.56c0.47-0.05,1.03-0.02,1.11,0.6
		C222.72,32.15,222.33,32.36,221.75,32.35z"/>
	<path fill="#090908" d="M49.11,30c-0.27,0.36,0.21,1.18-0.61,1.08c-0.69-0.08-0.71-0.76-0.7-1.34c0.01-0.45,0.04-1,0.63-0.94
		C49.13,28.87,49.06,29.51,49.11,30z"/>
	<path fill="#090908" d="M185.25,19.67c0.51,0.04,1.07,0.16,1.1,0.81c0.03,0.55-0.48,0.53-0.88,0.54c-0.57,0.02-1.1-0.13-1.13-0.78
		C184.32,19.7,184.79,19.66,185.25,19.67z"/>
	<path fill="#090908" d="M141.67,26.28c0,0.42-0.16,0.72-0.58,0.77c-0.43,0.05-0.67-0.21-0.69-0.62c-0.02-0.43,0.16-0.82,0.62-0.84
		C141.44,25.57,141.59,25.93,141.67,26.28z"/>
	<path fill="#090908" d="M353.47,31.63c-0.46-0.06-0.69-0.29-0.71-0.7c-0.02-0.35,0.12-0.66,0.51-0.67c0.49-0.02,0.67,0.38,0.73,0.78
		C354.06,31.45,353.77,31.58,353.47,31.63z"/>
	<path fill="#090908" d="M450.11,19.78c-0.38-0.05-0.56-0.29-0.53-0.65c0.03-0.36,0.25-0.59,0.63-0.55c0.32,0.03,0.48,0.26,0.48,0.58
		C450.68,19.51,450.49,19.74,450.11,19.78z"/>
	<path fill="#090908" d="M11.01,18.25c-0.05,0.35-0.22,0.6-0.6,0.57c-0.32-0.03-0.49-0.26-0.5-0.56c-0.02-0.4,0.23-0.56,0.6-0.54
		C10.82,17.74,10.99,17.92,11.01,18.25z"/>
	<path fill="#090908" d="M458.19,18.02c0,0.36-0.13,0.62-0.52,0.62c-0.31,0-0.53-0.17-0.56-0.48c-0.04-0.38,0.2-0.58,0.55-0.62
		C457.98,17.5,458.16,17.69,458.19,18.02z"/>
	<path fill="#090908" d="M266.81,17.51c0.3-0.01,0.53,0.07,0.52,0.37c-0.02,0.4-0.27,0.64-0.66,0.69c-0.3,0.04-0.41-0.18-0.4-0.44
		C266.28,17.76,266.5,17.57,266.81,17.51z"/>
	<path fill="#090908" d="M48.98,18.67c-0.01,0.38-0.08,0.64-0.43,0.67c-0.28,0.02-0.45-0.14-0.47-0.41c-0.03-0.35,0.1-0.63,0.49-0.65
		C48.88,18.26,48.92,18.52,48.98,18.67z"/>
	<path fill="#090908" d="M55.48,18.96c-0.03,0.3-0.14,0.56-0.48,0.56c-0.28,0-0.42-0.22-0.43-0.48c-0.01-0.32,0.16-0.54,0.49-0.55
		C55.36,18.48,55.45,18.69,55.48,18.96z"/>
	<path fill="#090908" d="M260.17,19.19c-0.03,0.27-0.24,0.43-0.55,0.41c-0.22-0.01-0.37-0.15-0.34-0.38c0.04-0.32,0.27-0.49,0.57-0.49
		C260.06,18.73,260.18,18.9,260.17,19.19z"/>
</g>
</svg>
