<?xml version="1.0" encoding="utf-8"?>
<!-- Generator: Adobe Illustrator 23.0.1, SVG Export Plug-In . SVG Version: 6.00 Build 0)  -->
<svg version="1.1" xmlns="http://www.w3.org/2000/svg" xmlns:xlink="http://www.w3.org/1999/xlink" x="0px" y="0px"
	 viewBox="0 0 460.8 48" style="enable-background:new 0 0 460.8 48;" xml:space="preserve">
<g id="branche">
	<g>
		<path fill="#6F6859" d="M37.77,16.41c3.75,0.08,7.51,0.31,11.26,0.17c5.42-0.2,10.83-0.7,16.25-1.02c5.9-0.35,11.8-0.66,17.7-0.94
			c5.58-0.27,11.17-0.53,16.76-0.71c6.91-0.22,13.82-0.39,20.73-0.48c10.59-0.15,21.18,0.16,31.75,0.71
			c1.59,0.08,3.19,0.2,4.78,0.36c4.92,0.5,9.83,1.18,14.77,1.48c4.2,0.26,8.35,0.83,12.44,1.7c6.4,1.37,12.87,1.95,19.37,2.18
			c4.5,0.16,9.01,0.15,13.53-0.14c6.13-0.39,12.28-0.59,18.4-1.27c8.09-0.9,16.2-1.67,24.3-2.48c6.68-0.67,13.37-1.17,20.08-1.13
			c4.82,0.03,9.65,0.15,14.47,0.63c5.41,0.53,10.78,1.23,16.11,2.28c4.01,0.79,7.86,2.04,12.12,1.75
			c5.17-0.36,10.38-0.06,15.58,0.03c10.43,0.18,20.86-0.06,31.29-0.31c7.63-0.18,15.27-0.23,22.9-0.35
			c1.56-0.02,3.11-0.14,4.67-0.13c9.96,0.04,19.88-0.7,29.83-1.08c3.31-0.13,6.62-0.29,9.93-0.5c8.01-0.51,16.02-1.06,24.02-1.6
			c0,5.68,0,11.36,0,17.04c-9.15,0.23-18.29,0.63-27.44,0.66c-24.78,0.07-49.57,0.33-74.35-0.11c-7.87-0.14-15.75-0.14-23.61-0.37
			c-3.66-0.1-7.33-0.06-10.99-0.29c1.18-0.16,2.37-0.24,3.55-0.43c1.38-0.22,2.8-0.16,4.14-0.62c0.49-0.17,1.29-0.21,0.98-1.02
			c-0.25-0.66-0.84-0.36-1.34-0.19c-0.49,0.17-0.99,0.36-1.5,0.41c-2.86,0.25-5.67,0.99-8.57,0.78c-0.39-0.03-0.94-0.12-1.06,0.34
			c-0.21,0.8-0.77,0.63-1.31,0.65c-2.29,0.1-4.55-0.22-6.79-0.58c-8.93-1.44-17.93-2.01-26.95-2.31
			c-5.56-0.19-11.11,0.12-16.66,0.26c-1.17,0.03-2.32,0.22-2.03-1.59c0.06-0.36-0.21-0.73-0.64-0.73c-0.48,0.01-0.67,0.38-0.7,0.82
			c-0.02,0.2-0.01,0.4,0.02,0.6c0.11,0.79-0.25,1.07-1.02,1.06c-1.68-0.02-3.35,0.12-5.03,0.23c-6.37,0.41-12.74,0.92-19.11,1.43
			c-1.4,0.11-2.8,0.46-4.48,0.22c1.34-0.76,2.58-1.06,3.83-1.12c3.25-0.16,6.41-0.61,9.5-1.72c1.12-0.4,2.36-1.01,3.6-0.56
			c1.37,0.49,2.73,0.84,4.18,0.91c0.46,0.02,1.07,0.36,1.13-0.35c0.05-0.57-0.57-0.7-1.07-0.7c-0.89-0.01-1.78-0.16-2.56-0.56
			c-1.39-0.72-2.74-0.56-4.19-0.25c-2.65,0.57-5.11,1.82-7.87,1.99c-1.9,0.12-3.87,0.01-5.67,0.79c-3.02,1.3-6.17,1.5-9.39,1.31
			c-0.4-0.02-0.86,0-0.76,0.46c0.15,0.7-0.25,0.6-0.64,0.63c-4.31,0.23-8.61,0.55-12.92,0.68c-3.99,0.12-7.99,0.07-11.98-0.23
			c-5.1-0.38-10.18-0.91-15.21-1.78c-3.7-0.64-7.36-1.46-11.13-1.57c-0.73-0.02-1.63,0.29-1.86-0.88c-0.03-0.14-0.48-0.27-0.74-0.29
			c-3.6-0.24-7.11-0.95-10.52-2.12c-0.37-0.13-0.75-0.11-0.91,0.31c-0.17,0.44,0.17,0.64,0.5,0.82c0.68,0.36,1.45,0.45,2.16,0.69
			c1.65,0.56,3.46,0.33,5.16,1.16c-0.4,0-0.7,0.01-0.99,0c-5.39-0.21-10.77-0.52-16.16-0.62c-5.23-0.1-10.46-0.33-15.7-0.13
			c-5.07,0.19-10.15,0.12-15.22,0.2c-8.47,0.14-16.93,0.38-25.39,0.84c-3.35,0.18-6.7,0.33-10.05,0.52
			c-7.45,0.41-14.91,0.8-22.35,1.43c-3.5,0.3-7.01,0.35-10.49,0.92c-1.96,0.32-3.94,0.74-5.92,0.77c-3.83,0.05-7.67-0.16-11.5-0.26
			 M412.53,31.05c-0.15,0.03-0.52,0.03-0.6,0.42c-0.1,0.51,0.29,0.76,0.68,0.82c1.02,0.16,2.06,0.23,3.09,0.35
			c2.48,0.29,4.93,0.24,7.32-0.61c1.24-0.44,2.5-0.87,3.84-0.85c3.76,0.06,7.51,0.06,11.08-1.41c0.25-0.11,0.54-0.18,0.82-0.18
			c1.38,0,2.74-0.98,4.1-0.27c1.56,0.81,3.28,0.97,4.91,1.45c0.39,0.12,0.73,0.14,0.92-0.27c0.18-0.39-0.05-0.7-0.34-0.94
			c-0.32-0.27-0.72-0.31-1.13-0.33c-1.05-0.07-2.06-0.34-2.97-0.85c-1.29-0.73-2.6-0.88-4.03-0.48c-4.19,1.17-8.38,2.28-12.82,1.92
			c-1.75-0.14-3.49,0.28-5.12,1.03c-0.88,0.4-1.81,0.55-2.79,0.58C417.22,31.5,414.96,31.33,412.53,31.05z M280.12,24.62
			c-1.91,0.1-3.83,0.2-5.74,0.31c-0.51,0.03-1.19,0.03-1.12,0.75c0.07,0.68,0.74,0.41,1.18,0.45c0.28,0.02,0.56-0.01,0.84-0.02
			c2.51-0.04,5-0.48,7.53-0.1c3.35,0.51,6.71,0.96,10.11,1.03c4,0.08,7.96,0.64,11.87,1.4c2.7,0.52,5.37,1.23,8.04,1.86
			c0.41,0.1,0.86,0.2,1.03-0.28c0.18-0.49-0.25-0.7-0.62-0.88c-0.77-0.37-1.65-0.29-2.45-0.5c-4.44-1.2-8.92-2.14-13.51-2.54
			c-2.9-0.25-5.81-0.45-8.72-0.62C285.74,25.3,282.98,24.49,280.12,24.62z M213.56,30.13c0.64,0,1.28,0.02,1.92-0.01
			c0.47-0.02,1.09-0.01,1.04-0.68c-0.05-0.63-0.66-0.61-1.13-0.6c-1,0.02-2,0.21-2.99,0.11c-2.61-0.27-5.18,0.02-7.75,0.36
			c-1.2,0.16-2.38,0.21-3.58,0.1c-1.31-0.13-2.62-0.23-3.93-0.36c-5.19-0.52-10.44-0.37-15.59-1.39c-0.48-0.1-1.07-0.08-1.13,0.54
			c-0.05,0.55,0.52,0.63,0.95,0.71c2.87,0.55,5.78,0.6,8.68,0.79c3.66,0.24,7.32,0.51,10.98,0.82c0.76,0.06,1.52,0.21,2.27,0.11
			C206.71,30.17,210.12,29.81,213.56,30.13z M82.21,29.71c0.23,0,0.63,0.05,1.02-0.01c1.3-0.2,2.59-0.42,3.88-0.67
			c0.4-0.08,0.84-0.3,0.75-0.78c-0.1-0.6-0.59-0.34-0.97-0.28c-0.67,0.1-1.34,0.26-2.02,0.26c-1.82,0.01-3.69,0.63-5.46-0.06
			c-1.8-0.69-3.61-0.96-5.51-0.82c-2.51,0.19-5.03,0.45-7.45-0.51c-3.56-1.43-6.46,0.61-9.51,1.78c-0.39,0.15-0.6,0.54-0.53,0.98
			c0.05,0.34,0.26,0.67,0.65,0.49c1.26-0.58,2.7-0.76,3.77-1.73c0.53-0.47,1.16-0.81,1.85-0.74c1.23,0.12,2.48,0.24,3.65,0.61
			c2.4,0.77,4.82,0.64,7.24,0.4c1.58-0.15,3.13-0.16,4.59,0.46C79.42,29.64,80.7,29.82,82.21,29.71z M279.25,16.07
			c-2.55,0.09-5.11-0.12-7.66,0.2c-0.44,0.06-0.98,0.07-0.95,0.66c0.04,0.62,0.6,0.53,1.03,0.52c2-0.04,3.99-0.1,5.98-0.17
			c5.52-0.19,11.01,0.13,16.41,1.45c1.11,0.27,2.29,0.27,3.45,0.33c0.44,0.02,0.94-0.16,0.99-0.68c0.06-0.63-0.49-0.61-0.93-0.66
			c-1.03-0.1-2.09-0.1-3.09-0.31C289.45,16.34,284.39,15.84,279.25,16.07z M139.13,16.49c0,0.02,0,0.04,0,0.06
			c-0.64,0-1.28-0.02-1.92,0c-0.79,0.03-1.61-0.14-2.35,0.27c-0.28,0.16-0.57,0.37-0.48,0.75c0.09,0.39,0.43,0.42,0.77,0.41
			c0.48-0.02,0.96-0.05,1.44-0.05c8.17,0.05,16.35,0.07,24.39,1.87c0.48,0.11,1.16,0.27,1.27-0.46c0.1-0.68-0.58-0.61-1.02-0.73
			c-3.2-0.9-6.52-1.15-9.79-1.49C147.36,16.69,143.24,16.68,139.13,16.49z M359.57,23.12c0.34,0.1,0.71,0.09,0.8-0.28
			c0.1-0.44-0.28-0.66-0.63-0.72c-0.51-0.09-1.03-0.1-1.55-0.09c-8.38,0.09-16.76-0.2-25.12,0.56c-0.56,0.05-1.51-0.19-1.48,0.56
			c0.03,0.88,1.01,0.57,1.58,0.5c4.57-0.51,9.15-0.58,13.73-0.58c0.72,0,1.44,0.14,2.15,0.09
			C352.55,22.95,356.06,23.07,359.57,23.12z M208.37,22.23c4.13,0.13,6.88-0.11,9.63-0.22c0.65-0.03,1.78,0.28,1.73-0.69
			c-0.04-0.88-1.13-0.44-1.73-0.43c-7.34,0.22-14.67,0.84-22.02,0.51c-0.33-0.02-0.69,0.02-0.76,0.41
			c-0.09,0.47,0.26,0.64,0.64,0.68c1.07,0.11,2.14,0.26,3.22,0.23C202.64,22.63,206.17,22.04,208.37,22.23z M131.86,24.65
			c-0.05-0.23-0.14-0.54-0.18-0.85c-0.33-2.07-1.59-3.93-1.33-6.14c0.02-0.2-0.12-0.52-0.29-0.61c-0.57-0.34-0.69-0.82-0.65-1.42
			c0.02-0.35-0.12-0.66-0.51-0.69c-0.42-0.03-0.7,0.24-0.76,0.62c-0.06,0.38-0.03,0.8,0.05,1.18c0.4,1.86,1.05,3.66,1.17,5.6
			c0.06,0.93,0.44,1.85,0.75,2.76c0.16,0.47,0.38,1.09,1.05,0.92C131.74,25.86,131.78,25.25,131.86,24.65z M362.89,29.01
			c0.02,0.74,0.03,1.44,0.76,1.58c0.75,0.15,0.84-0.59,1.03-1.09c0.96-2.54,1.09-5.31,2.18-7.81c0.09-0.2,0.05-0.47-0.01-0.7
			c-0.06-0.25-0.29-0.37-0.55-0.39c-0.26-0.03-0.56,0.05-0.6,0.29c-0.17,1.23-1.55,1.97-1.29,3.38c0.1,0.56-0.27,1.06-0.52,1.57
			C363.39,26.88,363.11,28,362.89,29.01z M104.99,18.87c0,0.6-0.05,1.2,0.01,1.79c0.11,1.19,0.3,2.32,1.38,3.14
			c0.75,0.56,1.01,0.2,1.15-0.43c0.08-0.37-0.01-0.79-0.08-1.18c-0.33-1.91-1.03-3.77-0.79-5.76c0.04-0.37-0.16-0.69-0.34-1
			c-0.22-0.37-0.37-0.89-0.94-0.71c-0.55,0.17-0.64,0.69-0.55,1.19C105.03,16.88,105.04,17.87,104.99,18.87z M103.01,21.48
			c0.09-2.06,0.19-3.98-0.94-5.69c-0.22-0.34-0.44-0.73-0.91-0.6c-0.5,0.13-0.54,0.59-0.41,0.97c0.91,2.67,0.67,5.43,0.69,8.17
			c0,0.55,0.08,1.15,0.72,1.19c0.74,0.04,0.83-0.64,0.85-1.19C103.04,23.33,103.01,22.33,103.01,21.48z M398.42,26.34
			c-0.07,1.08,0.02,1.88,0.98,1.88c0.92-0.01,0.97-0.88,0.91-1.54c-0.14-1.56,0.47-2.89,1.14-4.21c0.27-0.53,0.6-1.06,0.75-1.63
			c0.21-0.76-0.22-1.06-0.94-0.88c-0.97,0.24-2.54,2.09-2.58,3.1C398.65,24.26,398.57,25.46,398.42,26.34z M392.23,21.19
			c-0.07-0.6,0.17-1.17-0.41-1.42c-0.64-0.28-0.9,0.32-1.25,0.67c-0.31,0.31-0.4,0.69-0.34,1.1c0.12,0.82-0.14,1.57-0.31,2.35
			c-0.25,1.13-0.83,2.17-0.86,3.35c-0.02,0.63,0.24,1.33,0.92,0.94c0.61-0.35,1.28-0.76,1.64-1.59
			C392.42,24.78,391.56,22.85,392.23,21.19z M375.49,25.16c0.81,0,1.84,0,2.88,0c0.37,0,0.76,0.04,0.83-0.45
			c0.06-0.43-0.22-0.67-0.59-0.78c-0.3-0.09-0.62-0.14-0.94-0.15c-1.71-0.01-3.43-0.08-5.14,0.02c-1.67,0.1-3.32,0.39-4.92,0.89
			c-0.42,0.13-0.96,0.27-0.81,0.83c0.15,0.57,0.71,0.35,1.13,0.33c0.08-0.01,0.16-0.03,0.23-0.05
			C370.5,25.27,372.85,24.93,375.49,25.16z M99.47,22.77c-0.08-1.27-0.22-2.34-0.19-3.41c0.03-1.39-0.59-2.44-1.48-3.4
			c-0.35-0.37-0.73-0.85-1.32-0.49c-0.6,0.37-0.28,0.92-0.13,1.4c0.67,2.11,1.7,4.14,1.46,6.46c-0.05,0.5,0.18,1.03,0.76,1.03
			c0.62,0.01,0.85-0.51,0.89-1.07C99.49,23.05,99.47,22.81,99.47,22.77z M127.28,21.18c0.41,0.06,0.76-0.06,0.85-0.47
			c0.11-0.5-0.31-0.67-0.7-0.81c-2.92-1.05-5.93-1.07-8.97-0.84c-0.59,0.05-1.2,0.08-1.77,0.22c-0.36,0.08-0.63,0.39-0.56,0.81
			c0.09,0.46,0.46,0.5,0.84,0.46c0.59-0.06,1.19-0.15,1.78-0.18C121.63,20.24,124.5,20.25,127.28,21.18z M394.34,25.73
			c0,0.8-0.02,1.6,0.01,2.4c0.02,0.65,0.02,1.4,0.95,1.34c0.88-0.06,0.73-0.8,0.73-1.38c-0.02-2.28-0.14-4.56,0.77-6.73
			c0.2-0.47,0.47-1.07-0.18-1.35c-0.6-0.26-0.87,0.31-1.21,0.71C394.12,22.19,394.34,23.98,394.34,25.73z M429.67,20.61
			c-0.03-0.36,0.01-0.74-0.1-1.07c-0.2-0.58-0.56-1.11-1.17-1.25c-0.58-0.13-0.76,0.45-1.05,0.82c-1.05,1.35-0.99,3.07-1.49,4.6
			c-0.18,0.55,0.53,1.23,1.05,0.76C428.07,23.4,429.97,22.76,429.67,20.61z M413.07,21.31c3.29-0.69,6.67-0.32,9.96-0.92
			c0.43-0.08,1.01-0.05,0.96-0.63c-0.05-0.56-0.62-0.5-1.06-0.51c-0.16-0.01-0.32,0.02-0.47,0.05c-3.19,0.52-6.44,0.23-9.62,0.82
			c-0.54,0.1-1.42-0.21-1.38,0.67c0.03,0.77,0.86,0.46,1.37,0.52C412.91,21.32,413,21.31,413.07,21.31z M86.38,17.91
			c0.39-0.05,0.79-0.1,1.18-0.15c0.42-0.06,0.83-0.16,0.78-0.7c-0.04-0.45-0.43-0.49-0.8-0.55c-2.98-0.43-5.97,0.22-8.95-0.14
			c-0.5-0.06-1.16,0.09-1.11,0.79c0.04,0.66,0.68,0.5,1.14,0.57C81.21,18.1,83.8,17.39,86.38,17.91z M384.08,27.3
			c0.83-0.14,1.41-0.68,1.59-1.6c0.24-1.19,0.66-2.29,1.34-3.31c0.22-0.32,0.35-0.72,0.44-1.11c0.14-0.61-0.29-0.87-0.78-1.01
			c-0.43-0.12-0.82,0-0.94,0.48c-0.47,1.81-1.28,3.42-2.72,4.68c-0.32,0.28-0.53,0.73-0.23,1.19
			C383.06,27.06,383.45,27.31,384.08,27.3z M75.93,21.03c-0.55-1.4-0.43-3.16-1.37-4.6c-0.54-0.84-0.93-0.83-1.45,0.05
			c-1.12,1.87-0.25,4.75,1.72,5.66C75.41,22.4,75.93,21.96,75.93,21.03z M108.99,16.27c0.7,1.95,1.24,3.94,1.81,5.93
			c0.21,0.72,0.97,0.98,1.68,0.5c0.73-0.49,0.84-1.24,0.25-1.85c-1.33-1.37-1.72-3.12-2.17-4.86c-0.13-0.51-0.21-0.99-0.86-0.87
			C109.09,15.24,109.05,15.75,108.99,16.27z M227.06,22.78c2.79-0.41,5.74-0.83,8.7-1.27c0.46-0.07,0.94-0.29,0.86-0.81
			c-0.09-0.59-0.63-0.47-1.07-0.4c-3.03,0.45-6.07,0.88-9.1,1.34c-0.42,0.06-0.98,0.17-0.91,0.74c0.07,0.54,0.62,0.35,0.99,0.39
			C226.65,22.79,226.77,22.78,227.06,22.78z M241.53,21.08c0.03-0.8,0.07-1.63-0.82-1.84c-0.82-0.2-1.19,0.56-1.47,1.15
			c-0.55,1.19-0.82,2.48-1.11,3.75c-0.07,0.31-0.02,0.64,0.28,0.85c0.27,0.19,0.56,0.16,0.76-0.06
			C240.25,23.81,241.7,22.89,241.53,21.08z M441.08,19.11c-0.09-0.32-0.2-0.79-0.37-1.23c-0.13-0.35-0.39-0.66-0.81-0.54
			c-0.43,0.12-0.66,0.44-0.51,0.92c0.2,0.68-0.12,1.25-0.39,1.82c-0.39,0.83-0.81,1.64-1.21,2.47c-0.16,0.32-0.35,0.67-0.02,0.99
			c0.34,0.32,0.74,0.45,1.21,0.29c0.6-0.21,0.99-0.65,1.25-1.21C440.7,21.54,440.86,20.39,441.08,19.11z M454.09,18.45
			c0-0.28,0.01-0.56,0-0.83c-0.02-0.45-0.19-0.78-0.68-0.81c-0.43-0.02-0.99-0.12-1.16,0.38c-0.46,1.39-1.02,2.79-0.77,4.29
			c0.14,0.85,1.04,0.92,1.67,1.11c0.39,0.12,0.68-0.4,0.66-0.82C453.75,20.65,454.09,19.56,454.09,18.45z M444.74,21.43
			c0.05,0.66,0.03,1.11,0.13,1.52c0.19,0.78,1.05,1.01,1.41,0.33c0.77-1.45,1.15-3.04,0.88-4.71c-0.07-0.46-0.5-0.73-0.97-0.76
			c-0.45-0.03-0.79,0.28-0.85,0.7C445.19,19.57,444.49,20.52,444.74,21.43z M346.06,32.11c0.59-0.02,0.63-0.49,0.69-0.92
			c0.14-0.99,0.32-1.98,0.87-2.83c0.27-0.42,0.49-0.76-0.03-1.1c-0.48-0.32-1-0.09-1.09,0.33c-0.32,1.39-1.17,1.9-2.51,1.82
			c-0.07,0-0.15,0.05-0.21,0.1c-0.44,0.32-1.15,0.59-0.87,1.24c0.31,0.74,0.92,0.35,1.41,0.08c0.61-0.33,1.08-0.37,1.1,0.54
			C345.42,31.77,345.62,32.03,346.06,32.11z M260.92,20.95c-0.22,0.76,0.5,0.99,1.13,1.22c0.53,0.19,0.86-0.19,0.98-0.64
			c0.29-1.16,0.55-2.33,0.77-3.51c0.08-0.41,0.19-0.95-0.36-1.14c-0.53-0.18-1.09-0.06-1.34,0.49
			C261.61,18.46,261.04,19.53,260.92,20.95z M251.8,19.24c0.01-0.61,0.03-1.19-0.59-1.37c-0.41-0.12-0.73,0.24-0.74,0.6
			c-0.07,1.45-1,2.49-1.63,3.68c-0.29,0.55-0.79,1.21-0.01,1.67c0.74,0.44,1.29-0.11,1.67-0.71
			C251.26,21.91,251.63,20.57,251.8,19.24z M64.24,17.34c0.11-0.66,0.15-1.19-0.44-1.22c-0.52-0.03-0.67,0.52-0.74,0.95
			c-0.26,1.7,0.05,3.32,0.85,4.84c0.31,0.58,0.8,0.8,1.39,0.51c0.69-0.34,0.64-0.91,0.34-1.52C65.05,19.69,64.39,18.51,64.24,17.34z
			 M51.72,18.92c0.08,0.89,0.15,1.95,0.26,3.02c0.05,0.47,0.26,0.97,0.82,0.66c0.72-0.4,1.46-0.9,1.26-1.93
			c-0.2-1.01-0.42-2.02-0.65-3.02c-0.1-0.46-0.42-0.65-0.89-0.57c-0.43,0.07-0.77,0.24-0.8,0.73C51.7,18.11,51.72,18.43,51.72,18.92
			z M146.89,22.75c-0.67,0.06-0.81,0.52-0.53,1.01c0.61,1.09,1.02,2.24,1.29,3.44c0.08,0.33,0.22,0.61,0.61,0.61
			c0.47,0,0.62-0.3,0.61-0.7c-0.02-0.97,0.46-0.84,1.04-0.49c0.39,0.24,0.84,0.73,1.22,0.14c0.39-0.6-0.22-0.93-0.62-1.22
			c-0.28-0.2-0.67-0.41-0.98-0.36c-1.12,0.17-1.46-0.47-1.67-1.38C147.76,23.31,147.56,22.79,146.89,22.75z M254.83,22.48
			c-0.07,0.37,0,0.75,0.38,0.89c0.51,0.19,0.85-0.14,1.06-0.54c0.59-1.1,0.93-2.27,1.12-3.51c0.09-0.58,0.05-1.09-0.54-1.28
			c-0.61-0.21-0.92,0.25-1.17,0.75C255.12,19.96,254.86,21.19,254.83,22.48z M93,18.64c-0.04-0.8-0.11-1.85-0.82-2.69
			c-0.38-0.45-0.9-0.69-1.49-0.41c-0.51,0.24-0.65,0.76-0.47,1.23c0.43,1.11,0.94,2.19,1.45,3.27c0.13,0.28,0.39,0.54,0.77,0.4
			c0.32-0.12,0.52-0.37,0.55-0.72C93.02,19.44,93,19.16,93,18.64z M57.56,19.22c0.09,0.86,0.26,2,0.68,3.08
			c0.13,0.34,0.35,0.66,0.77,0.64c0.44-0.02,0.59-0.36,0.62-0.74c0.13-1.43,0.09-2.84-0.38-4.21c-0.12-0.35-0.26-0.71-0.7-0.71
			c-0.4,0-0.63,0.3-0.81,0.62C57.56,18.21,57.52,18.57,57.56,19.22z M408.22,19.6c-0.45,0.01-0.85,0.18-1.2,0.46
			c-0.92,0.76-0.95,1.87-1.12,2.92c-0.07,0.4-0.03,0.82,0.46,0.97c0.41,0.13,0.84,0.06,1.08-0.29c0.63-0.95,1.33-1.88,1.7-2.97
			C409.4,19.92,408.99,19.58,408.22,19.6z M137.41,24.74c0,0.87,0,1.39,0,1.91c0,0.43,0.09,0.84,0.6,0.88
			c0.57,0.05,0.72-0.35,0.79-0.84c0.04-0.36-0.17-0.8,0.34-1.05c1.07-0.52,1.15-0.98,0.27-1.77c-0.31-0.28-0.59-0.5-0.63-0.95
			c-0.02-0.3-0.2-0.54-0.53-0.55c-0.39-0.02-0.6,0.27-0.65,0.59C137.48,23.65,137.44,24.37,137.41,24.74z M357.16,30.78
			c-0.09-0.98-0.18-1.93-0.26-2.88c-0.03-0.39-0.16-0.71-0.58-0.8c-0.26-0.06-0.54,0.05-0.58,0.3c-0.11,0.67-0.7,0.92-1.06,1.37
			c-0.59,0.75-0.45,1.28,0.44,1.4c0.59,0.07,0.57,0.4,0.65,0.79c0.11,0.54,0.2,1.24,0.96,1.1
			C357.47,31.92,357.07,31.22,357.16,30.78z M433.68,20.55c0.01,0,0.03,0,0.04,0c0-0.6,0.01-1.19,0-1.79
			c-0.01-0.45-0.03-0.95-0.62-0.98c-0.53-0.03-0.75,0.39-0.81,0.86c-0.17,1.29-0.3,2.58-0.27,3.88c0.01,0.53,0.13,0.97,0.77,0.98
			c0.6,0,0.85-0.41,0.89-0.93C433.72,21.9,433.68,21.23,433.68,20.55z M341.77,28.1c0.03-0.34,0.04-0.65-0.29-0.85
			c-0.29-0.17-0.57-0.1-0.74,0.16c-0.24,0.36-0.5,0.41-0.91,0.31c-0.49-0.12-0.73,0.24-0.83,0.65c-0.1,0.42-0.24,0.94,0.31,1.14
			c0.65,0.24,0.76,0.73,0.8,1.31c0.03,0.51,0.3,0.85,0.84,0.78c0.51-0.07,0.56-0.49,0.56-0.91C341.5,29.81,341.42,28.93,341.77,28.1
			z M220.87,24.39c0.07,0.44-0.18,1.15,0.63,1.25c0.7,0.09,0.89-0.5,1.11-1.03c0.3-0.73,0.64-1.44,0.95-2.17
			c0.19-0.43,0.23-0.86-0.21-1.17c-0.42-0.29-0.82-0.16-1.21,0.11C221.12,22.11,220.91,23.17,220.87,24.39z M123.45,16.71
			c0.4-0.02,0.8,0,1.19-0.06c0.33-0.05,0.6-0.25,0.66-0.61c0.06-0.41-0.26-0.6-0.57-0.64c-1.49-0.19-2.99-0.35-4.49-0.49
			c-0.34-0.03-0.64,0.2-0.7,0.54c-0.09,0.47,0.32,0.69,0.65,0.69C121.32,16.13,122.32,16.8,123.45,16.71z M69.06,17.6
			c0.06,1.06,0.1,2.05,0.16,3.04c0.03,0.5,0.16,1.05,0.77,1c0.59-0.04,0.68-0.6,0.66-1.1c-0.04-0.95-0.11-1.9-0.19-2.84
			c-0.06-0.71,0.22-1.83-0.77-1.81C68.74,15.91,69.19,17.02,69.06,17.6z M154.91,24.97c0.03-0.61-1.72-1.98-2.32-1.8
			c-0.34,0.1-0.59,0.42-0.46,0.73c0.39,0.95,0.4,1.93,0.47,2.92c0.03,0.36,0.2,0.72,0.65,0.72c0.51,0,0.69-0.33,0.69-0.78
			c0-0.53-0.01-1.04,0.69-1.19C154.9,25.5,154.92,25.22,154.91,24.97z M243.45,22.26c0.13,0.61-0.28,1.49,0.56,1.57
			c0.85,0.08,0.98-0.77,1.06-1.46c0.1-0.95,0.18-1.9,0.26-2.85c0.03-0.36,0.07-0.8-0.34-0.93c-0.45-0.14-0.73,0.21-0.92,0.59
			C243.57,20.17,243.7,21.28,243.45,22.26z M135.18,25.86c-0.34-0.78-0.05-1.74-0.36-2.61c-0.12-0.35-0.28-0.69-0.74-0.63
			c-0.38,0.05-0.5,0.36-0.54,0.7c-0.11,0.91-0.2,1.81-0.32,2.72c-0.07,0.53-0.18,1.08,0.53,1.23
			C134.28,27.38,135.18,26.51,135.18,25.86z M361.53,31.02c-0.13-0.98-0.24-1.96-0.4-2.94c-0.06-0.37-0.28-0.68-0.69-0.72
			c-0.45-0.04-0.61,0.3-0.72,0.66c-0.28,0.89-0.23,1.82-0.14,2.71c0.08,0.75,0.83,1.03,1.5,1.08
			C361.51,31.85,361.6,31.4,361.53,31.02z M371.32,21.98c1.24,0.04,2.4-0.47,3.63-0.54c0.37-0.02,0.89-0.14,0.79-0.67
			c-0.08-0.42-0.55-0.39-0.9-0.36c-1.3,0.12-2.6,0.27-3.9,0.39c-0.49,0.05-1.14,0.12-1.13,0.63c0.01,0.54,0.69,0.5,1.16,0.55
			C371.08,21.98,371.2,21.98,371.32,21.98z M143.6,25.83c0.16-0.82-0.2-1.57-0.26-2.36c-0.03-0.39-0.22-0.69-0.67-0.68
			c-0.42,0.01-0.48,0.35-0.57,0.66c-0.22,0.8,0.07,1.59,0.16,2.36c0.07,0.61-0.11,1.74,0.88,1.67
			C144.23,27.41,143.46,26.4,143.6,25.83z M350.74,30.26c0,0.39-0.03,0.83,0.01,1.27c0.03,0.31,0.26,0.49,0.56,0.53
			c0.26,0.03,0.52-0.08,0.57-0.33c0.3-1.28,0.39-2.57,0.23-3.88c-0.04-0.28-0.27-0.5-0.59-0.5c-0.39,0.01-0.57,0.27-0.58,0.63
			C350.9,28.73,350.51,29.45,350.74,30.26z M42.8,22.79c0.63-0.23,1.8,0.43,1.8-0.7c0.01-1.05-1.14-0.74-1.81-0.71
			c-0.65,0.02-1.79-0.49-1.8,0.66C40.99,23.17,42.15,22.58,42.8,22.79z M82.82,19.44c-0.28,0.02-0.64,0.01-0.99,0.06
			c-0.42,0.07-0.6,0.36-0.58,0.77c0.02,0.39,0.26,0.56,0.63,0.56c0.63-0.01,1.27,0.01,1.9-0.06c0.37-0.04,0.69-0.28,0.67-0.7
			c-0.02-0.42-0.29-0.63-0.72-0.63C83.45,19.44,83.17,19.44,82.82,19.44z M405.9,30.02c-0.44,0.02-1.22,0-1.13,0.82
			c0.1,0.92,1.07,0.83,1.72,0.97c0.61,0.13,1.01-0.31,0.98-0.91C407.43,30.02,406.73,30.01,405.9,30.02z M458.42,30.25
			c0-0.2,0.01-0.35,0-0.51c-0.02-0.5,0.08-1.16-0.67-1.14c-0.64,0.01-0.78,0.57-0.78,1.13c0,0.16,0,0.32,0.02,0.47
			c0.09,0.62-0.2,1.59,0.73,1.6C458.73,31.81,458.28,30.8,458.42,30.25z M417.95,22.52c0,0.01,0,0.01,0,0.02
			c-0.36,0-0.71-0.01-1.07,0c-0.41,0.01-0.88,0.06-0.9,0.56c-0.02,0.53,0.45,0.58,0.86,0.58c0.63,0.01,1.27,0,1.9-0.02
			c0.42-0.01,0.9-0.14,0.91-0.59c0.01-0.62-0.56-0.52-0.98-0.55C418.42,22.51,418.18,22.52,417.95,22.52z M231.02,24.91
			c0.2-0.03,0.71-0.08,1.21-0.19c0.27-0.06,0.53-0.25,0.5-0.58c-0.03-0.31-0.27-0.54-0.55-0.52c-0.78,0.05-1.56,0.14-2.33,0.28
			c-0.27,0.05-0.47,0.32-0.39,0.64c0.07,0.25,0.3,0.35,0.55,0.37C230.24,24.92,230.47,24.91,231.02,24.91z M94.12,27.24
			c-0.11-0.7-0.62-0.66-1.1-0.66c-0.62,0-1.29,0-1.31,0.84c-0.01,0.44,0.27,0.92,0.82,0.83C93.18,28.15,93.89,28.03,94.12,27.24z
			 M169.78,18.9c-0.29,0.04-1.14-0.45-1.16,0.5c-0.02,0.73,0.78,0.63,1.31,0.66c0.55,0.03,1.31,0.03,1.34-0.64
			C171.3,18.55,170.52,18.87,169.78,18.9z M309.72,19.22c-0.46,0-1.04,0.04-0.92,0.51c0.18,0.75,1.03,0.72,1.64,0.93
			c0.36,0.13,0.83-0.05,0.79-0.45C311.12,19.33,310.27,19.44,309.72,19.22z M323.61,22.05c-0.47,0.08-1.27-0.31-1.29,0.39
			c-0.03,0.75,0.85,0.66,1.4,0.71c0.48,0.04,1.26,0.12,1.24-0.54C324.93,21.84,324.1,22.16,323.61,22.05z M221.82,32.35
			c0.58,0.01,0.97-0.2,0.91-0.74c-0.08-0.62-0.63-0.65-1.11-0.6c-0.44,0.05-1.16-0.03-1.12,0.56
			C220.54,32.33,221.35,32.21,221.82,32.35z M185.38,19.67c-0.46-0.01-0.93,0.03-0.91,0.56c0.03,0.66,0.56,0.8,1.13,0.78
			c0.4-0.01,0.91,0.01,0.88-0.54C186.45,19.83,185.89,19.7,185.38,19.67z M141.87,26.28c-0.08-0.35-0.23-0.71-0.64-0.69
			c-0.46,0.03-0.64,0.41-0.62,0.84c0.02,0.41,0.26,0.66,0.69,0.62C141.71,27,141.87,26.7,141.87,26.28z M353.35,31.63
			c0.3-0.06,0.59-0.19,0.52-0.59c-0.06-0.4-0.23-0.8-0.73-0.78c-0.38,0.01-0.52,0.32-0.5,0.67
			C352.66,31.34,352.89,31.57,353.35,31.63z M449.84,19.78c0.38-0.04,0.57-0.26,0.58-0.63c0.01-0.31-0.16-0.54-0.48-0.58
			c-0.38-0.04-0.6,0.19-0.63,0.55C449.28,19.49,449.47,19.72,449.84,19.78z M457.91,18.02c-0.03-0.32-0.21-0.51-0.53-0.48
			c-0.35,0.04-0.58,0.24-0.55,0.62c0.03,0.32,0.25,0.48,0.56,0.48C457.79,18.64,457.92,18.38,457.91,18.02z M266.82,17.51
			c-0.3,0.07-0.53,0.26-0.54,0.62c-0.01,0.26,0.1,0.48,0.4,0.44c0.39-0.05,0.64-0.3,0.66-0.69
			C267.35,17.58,267.12,17.5,266.82,17.51z M49.31,18.67c-0.06-0.15-0.1-0.41-0.41-0.39c-0.39,0.03-0.52,0.3-0.49,0.65
			c0.02,0.27,0.19,0.43,0.47,0.41C49.23,19.31,49.3,19.04,49.31,18.67z M55.8,18.96c-0.02-0.26-0.12-0.48-0.42-0.47
			c-0.33,0.01-0.5,0.23-0.49,0.55c0.01,0.26,0.15,0.47,0.43,0.48C55.67,19.52,55.77,19.26,55.8,18.96z M260.19,19.19
			c0.01-0.29-0.11-0.46-0.33-0.46c-0.3,0-0.53,0.16-0.57,0.49c-0.03,0.24,0.13,0.37,0.34,0.38
			C259.95,19.62,260.16,19.46,260.19,19.19z"/>
		<path fill="#090908" d="M34.79,33.1c3.83,0.1,7.67,0.3,11.5,0.26c1.98-0.02,3.95-0.44,5.92-0.77c3.47-0.57,6.99-0.62,10.49-0.92
			c7.44-0.63,14.9-1.03,22.35-1.43c3.35-0.18,6.7-0.34,10.05-0.52c8.46-0.46,16.92-0.7,25.39-0.84c5.08-0.08,10.15-0.01,15.22-0.2
			c5.24-0.2,10.47,0.03,15.7,0.13c5.39,0.1,10.77,0.41,16.16,0.62c0.3,0.01,0.6,0,0.99,0c-1.69-0.83-3.51-0.59-5.16-1.16
			c-0.71-0.24-1.48-0.33-2.16-0.69c-0.33-0.18-0.67-0.38-0.5-0.82c0.16-0.42,0.54-0.43,0.91-0.31c3.41,1.18,6.92,1.88,10.52,2.12
			c0.26,0.02,0.71,0.14,0.74,0.29c0.23,1.18,1.13,0.86,1.86,0.88c3.77,0.11,7.44,0.93,11.13,1.57c5.04,0.87,10.12,1.4,15.21,1.78
			c3.99,0.3,7.99,0.35,11.98,0.23c4.31-0.13,8.61-0.44,12.92-0.68c0.39-0.02,0.79,0.08,0.64-0.63c-0.1-0.46,0.37-0.48,0.76-0.46
			c3.22,0.19,6.37-0.01,9.39-1.31c1.8-0.78,3.76-0.67,5.67-0.79c2.76-0.17,5.22-1.42,7.87-1.99c1.45-0.31,2.8-0.47,4.19,0.25
			c0.77,0.4,1.66,0.54,2.56,0.56c0.5,0.01,1.11,0.13,1.07,0.7c-0.06,0.71-0.67,0.38-1.13,0.35c-1.45-0.07-2.82-0.42-4.18-0.91
			c-1.24-0.45-2.48,0.16-3.6,0.56c-3.09,1.11-6.25,1.56-9.5,1.72c-1.25,0.06-2.49,0.37-3.83,1.12c1.68,0.24,3.08-0.11,4.48-0.22
			c6.37-0.51,12.73-1.02,19.11-1.43c1.68-0.11,3.35-0.25,5.03-0.23c0.77,0.01,1.13-0.27,1.02-1.06c-0.03-0.2-0.04-0.4-0.02-0.6
			c0.04-0.44,0.22-0.81,0.7-0.82c0.43-0.01,0.69,0.37,0.64,0.73c-0.29,1.81,0.86,1.62,2.03,1.59c5.55-0.14,11.1-0.44,16.66-0.26
			c9.02,0.3,18.02,0.86,26.95,2.31c2.25,0.36,4.5,0.68,6.79,0.58c0.54-0.02,1.1,0.15,1.31-0.65c0.12-0.45,0.67-0.36,1.06-0.34
			c2.9,0.21,5.71-0.54,8.57-0.78c0.51-0.04,1.01-0.23,1.5-0.41c0.5-0.18,1.09-0.48,1.34,0.19c0.31,0.81-0.49,0.85-0.98,1.02
			c-1.34,0.46-2.76,0.4-4.14,0.62c-1.17,0.19-2.37,0.26-3.55,0.43c3.66,0.23,7.33,0.19,10.99,0.29C343.26,33,351.13,33,359,33.14
			c24.78,0.44,49.57,0.19,74.35,0.11c9.15-0.03,18.29-0.43,27.44-0.66c0,1.2,0,2.4,0,3.6c-9.35,0.13-18.58-0.82-27.93-0.85
			c-17.71-0.06-35.96-0.08-53.67-0.49c-8.99-0.21-18.01-0.21-27-0.4c-12.03-0.25-23.2,0.31-35.22-0.1
			c-2.09-0.07-4.63-0.15-6.69-0.59c-4.52-0.96-9.11-1.22-13.69-1.63c-5.65-0.51-11.33-0.72-17.01-0.68
			c-6.51,0.05-13.03,0.29-19.53,0.67c-6.94,0.4-13.87,0.97-20.79,1.56c-6.8,0.58-13.59,1.37-20.44,1.41
			c-2.71,0.01-5.41,0.28-8.14,0.28c-6.49,0-12.92-0.58-19.38-1.12c-4.43-0.37-8.8-0.99-13.17-1.74c-3.32-0.58-6.69-0.68-10.04-0.74
			c-10.11-0.18-20.22-0.79-30.34-0.54c-10.11,0.24-20.5-0.44-30.61,0.01c-18.05,0.8-36.08,2-54.07,3.73c-4.5,0.43-9,0.64-13.53,0.57
			"/>
		<path fill="#090908" d="M45.36,14.31c16.25-0.63,32.5-1.42,48.76-2.01c16.75-0.6,33.22-1.96,49.97-1.12
			c11.78,0.59,23.51,1.75,35.18,3.52c6,0.91,11.96,2.14,18.02,2.66c4.62,0.4,9.25,0.7,13.89,0.52c6.31-0.25,12.62-0.43,18.92-0.83
			c4.66-0.3,9.3-1.01,13.96-1.35c8.17-0.6,16.28-1.83,24.46-2.36c4.75-0.31,9.51-0.49,14.25-0.43c7.48,0.09,14.91,0.85,22.28,2.21
			c3.89,0.72,7.79,1.36,11.63,2.31c0.8,0.2,1.66,0.23,2.5,0.24c21.75,0.18,43.52,0.5,65.26-0.37c7.79-0.31,15.31-0.33,23.09-0.79
			c11.13-0.66,22.41-1.24,33.53-2.23c6.53-0.58,13.19-1.56,19.72-2.09c0,1.12,0,2.24,0,3.36c-8.01,0.53-16.02,1.08-24.02,1.6
			c-3.31,0.21-6.62,0.37-9.93,0.5c-9.94,0.38-19.87,1.12-29.83,1.08c-1.56-0.01-3.11,0.11-4.67,0.13
			c-7.63,0.12-15.27,0.17-22.9,0.35c-10.43,0.25-20.86,0.49-31.29,0.31c-5.2-0.09-10.41-0.39-15.58-0.03
			c-4.25,0.29-8.11-0.96-12.12-1.75c-5.32-1.05-10.7-1.75-16.11-2.28c-4.82-0.47-9.65-0.6-14.47-0.63
			c-6.71-0.04-13.4,0.46-20.08,1.13c-8.1,0.81-16.21,1.58-24.3,2.48c-6.12,0.68-12.26,0.88-18.4,1.27
			c-4.52,0.29-9.02,0.29-13.53,0.14c-6.5-0.23-12.97-0.81-19.37-2.18c-4.08-0.87-8.24-1.44-12.44-1.7
			c-4.93-0.31-9.84-0.99-14.77-1.48c-1.59-0.16-3.18-0.28-4.78-0.36c-10.58-0.55-21.16-0.85-31.75-0.71
			c-6.91,0.09-13.82,0.27-20.73,0.48c-5.59,0.17-11.17,0.44-16.76,0.71c-5.9,0.28-11.8,0.6-17.7,0.94
			c-5.42,0.32-10.83,0.82-16.25,1.02c-3.74,0.14-7.5-0.1-11.26-0.17"/>
		<path fill="#090908" d="M412.53,31.05c2.43,0.28,4.69,0.45,6.97,0.38c0.98-0.03,1.91-0.18,2.79-0.58c1.63-0.75,3.37-1.17,5.12-1.03
			c4.44,0.36,8.63-0.75,12.82-1.92c1.43-0.4,2.74-0.25,4.03,0.48c0.91,0.51,1.92,0.78,2.97,0.85c0.41,0.03,0.81,0.06,1.13,0.33
			c0.29,0.24,0.52,0.54,0.34,0.94c-0.19,0.41-0.52,0.39-0.92,0.27c-1.63-0.49-3.35-0.64-4.91-1.45c-1.36-0.71-2.72,0.27-4.1,0.27
			c-0.27,0-0.56,0.07-0.82,0.18c-3.57,1.47-7.32,1.48-11.08,1.41c-1.34-0.02-2.6,0.41-3.84,0.85c-2.4,0.85-4.84,0.9-7.32,0.61
			c-1.03-0.12-2.07-0.19-3.09-0.35c-0.39-0.06-0.78-0.31-0.68-0.82C412.01,31.07,412.38,31.07,412.53,31.05z"/>
		<path fill="#090908" d="M280.12,24.62c2.86-0.13,5.63,0.68,8.46,0.86c2.91,0.18,5.81,0.37,8.72,0.62c4.58,0.4,9.07,1.34,13.51,2.54
			c0.81,0.22,1.68,0.13,2.45,0.5c0.36,0.18,0.8,0.39,0.62,0.88c-0.18,0.48-0.62,0.38-1.03,0.28c-2.68-0.63-5.35-1.33-8.04-1.86
			c-3.92-0.76-7.87-1.31-11.87-1.4c-3.4-0.07-6.76-0.52-10.11-1.03c-2.53-0.38-5.02,0.07-7.53,0.1c-0.28,0-0.56,0.04-0.84,0.02
			c-0.44-0.04-1.11,0.22-1.18-0.45c-0.07-0.72,0.6-0.72,1.12-0.75C276.29,24.82,278.2,24.72,280.12,24.62z"/>
		<path fill="#090908" d="M213.56,30.13c-3.44-0.31-6.85,0.04-10.26,0.49c-0.75,0.1-1.51-0.04-2.27-0.11
			c-3.66-0.3-7.32-0.58-10.98-0.82c-2.9-0.19-5.82-0.23-8.68-0.79c-0.43-0.08-1-0.16-0.95-0.71c0.06-0.62,0.64-0.64,1.13-0.54
			c5.15,1.02,10.4,0.87,15.59,1.39c1.31,0.13,2.62,0.23,3.93,0.36c1.2,0.12,2.38,0.06,3.58-0.1c2.57-0.34,5.14-0.63,7.75-0.36
			c0.98,0.1,1.99-0.08,2.99-0.11c0.47-0.01,1.09-0.03,1.13,0.6c0.05,0.67-0.58,0.66-1.04,0.68
			C214.84,30.15,214.2,30.13,213.56,30.13z"/>
		<path fill="#090908" d="M82.21,29.71c-1.51,0.11-2.78-0.08-4.04-0.6c-1.47-0.62-3.02-0.61-4.59-0.46c-2.42,0.23-4.84,0.37-7.24-0.4
			c-1.16-0.37-2.42-0.49-3.65-0.61c-0.68-0.07-1.32,0.27-1.85,0.74c-1.08,0.97-2.52,1.15-3.77,1.73c-0.39,0.18-0.6-0.15-0.65-0.49
			c-0.07-0.44,0.14-0.83,0.53-0.98c3.06-1.18,5.95-3.21,9.51-1.78c2.42,0.97,4.94,0.7,7.45,0.51c1.9-0.14,3.71,0.13,5.51,0.82
			c1.77,0.68,3.64,0.06,5.46,0.06c0.67,0,1.35-0.16,2.02-0.26c0.38-0.06,0.86-0.32,0.97,0.28c0.08,0.47-0.35,0.7-0.75,0.78
			c-1.29,0.25-2.58,0.47-3.88,0.67C82.84,29.76,82.43,29.71,82.21,29.71z"/>
		<path fill="#090908" d="M279.25,16.07c5.14-0.23,10.2,0.27,15.23,1.34c1.01,0.21,2.06,0.21,3.09,0.31c0.43,0.04,0.98,0.03,0.93,0.66
			c-0.05,0.53-0.55,0.71-0.99,0.68c-1.15-0.06-2.34-0.06-3.45-0.33c-5.4-1.31-10.89-1.63-16.41-1.45c-1.99,0.07-3.99,0.12-5.98,0.17
			c-0.43,0.01-0.99,0.1-1.03-0.52c-0.03-0.59,0.51-0.61,0.95-0.66C274.14,15.95,276.7,16.15,279.25,16.07z"/>
		<path fill="#090908" d="M139.13,16.49c4.1,0.19,8.23,0.21,12.31,0.63c3.27,0.34,6.59,0.6,9.79,1.49c0.44,0.12,1.12,0.05,1.02,0.73
			c-0.11,0.73-0.79,0.57-1.27,0.46c-8.04-1.8-16.22-1.82-24.39-1.87c-0.48,0-0.96,0.03-1.44,0.05c-0.34,0.01-0.67-0.02-0.77-0.41
			c-0.09-0.38,0.2-0.59,0.48-0.75c0.74-0.41,1.56-0.25,2.35-0.27c0.64-0.02,1.28,0,1.92,0C139.13,16.53,139.13,16.51,139.13,16.49z"
			/>
		<path fill="#090908" d="M359.57,23.12c-3.51-0.05-7.01-0.17-10.52,0.03c-0.71,0.04-1.43-0.09-2.15-0.09c-4.59,0-9.17,0.07-13.73,0.58
			c-0.57,0.06-1.54,0.38-1.58-0.5c-0.03-0.75,0.92-0.51,1.48-0.56c8.36-0.76,16.75-0.47,25.12-0.56c0.52-0.01,1.04,0.01,1.55,0.09
			c0.36,0.06,0.73,0.28,0.63,0.72C360.28,23.21,359.9,23.22,359.57,23.12z"/>
		<path fill="#090908" d="M208.37,22.23c-2.2-0.18-5.73,0.4-9.28,0.5c-1.09,0.03-2.15-0.11-3.22-0.23c-0.38-0.04-0.73-0.21-0.64-0.68
			c0.08-0.39,0.43-0.43,0.76-0.41c7.35,0.34,14.68-0.29,22.02-0.51c0.6-0.02,1.68-0.45,1.73,0.43c0.05,0.97-1.08,0.66-1.73,0.69
			C215.24,22.12,212.49,22.36,208.37,22.23z"/>
		<path fill="#090908" d="M131.86,24.65c-0.08,0.61-0.11,1.22-0.7,1.37c-0.67,0.17-0.89-0.45-1.05-0.92c-0.31-0.9-0.69-1.82-0.75-2.76
			c-0.12-1.94-0.77-3.74-1.17-5.6c-0.08-0.38-0.11-0.8-0.05-1.18c0.05-0.38,0.34-0.66,0.76-0.62c0.39,0.03,0.53,0.34,0.51,0.69
			c-0.03,0.6,0.09,1.08,0.65,1.42c0.17,0.1,0.31,0.42,0.29,0.61c-0.26,2.2,1,4.07,1.33,6.14C131.72,24.11,131.81,24.42,131.86,24.65
			z"/>
		<path fill="#090908" d="M362.89,29.01c0.22-1.01,0.5-2.13,1.01-3.17c0.25-0.5,0.62-1.01,0.52-1.57c-0.26-1.41,1.13-2.15,1.29-3.38
			c0.03-0.24,0.34-0.32,0.6-0.29c0.26,0.03,0.48,0.14,0.55,0.39c0.06,0.22,0.09,0.5,0.01,0.7c-1.09,2.51-1.21,5.28-2.18,7.81
			c-0.19,0.5-0.28,1.23-1.03,1.09C362.92,30.45,362.91,29.75,362.89,29.01z"/>
		<path fill="#090908" d="M104.99,18.87c0.05-1,0.04-1.99-0.15-2.97c-0.09-0.49-0.01-1.01,0.55-1.19c0.57-0.18,0.72,0.34,0.94,0.71
			c0.18,0.31,0.38,0.63,0.34,1c-0.24,1.99,0.46,3.85,0.79,5.76c0.07,0.39,0.16,0.81,0.08,1.18c-0.14,0.63-0.41,1-1.15,0.43
			c-1.08-0.81-1.27-1.95-1.38-3.14C104.94,20.06,104.99,19.46,104.99,18.87z"/>
		<path fill="#090908" d="M103.01,21.48c0,0.85,0.03,1.85-0.01,2.84c-0.02,0.56-0.11,1.24-0.85,1.19c-0.64-0.04-0.71-0.64-0.72-1.19
			c-0.01-2.74,0.23-5.5-0.69-8.17c-0.13-0.38-0.09-0.84,0.41-0.97c0.48-0.12,0.69,0.26,0.91,0.6
			C103.2,17.5,103.1,19.42,103.01,21.48z"/>
		<path fill="#090908" d="M398.42,26.34c0.16-0.88,0.23-2.07,0.27-3.27c0.03-1.02,1.61-2.86,2.58-3.1c0.72-0.18,1.15,0.12,0.94,0.88
			c-0.16,0.57-0.48,1.09-0.75,1.63c-0.67,1.33-1.28,2.65-1.14,4.21c0.06,0.66,0.01,1.53-0.91,1.54
			C398.44,28.22,398.35,27.42,398.42,26.34z"/>
		<path fill="#090908" d="M392.23,21.19c-0.67,1.66,0.19,3.59-0.6,5.41c-0.36,0.83-1.03,1.24-1.64,1.59c-0.68,0.39-0.93-0.31-0.92-0.94
			c0.03-1.18,0.61-2.22,0.86-3.35c0.17-0.78,0.43-1.53,0.31-2.35c-0.06-0.41,0.03-0.79,0.34-1.1c0.35-0.36,0.61-0.95,1.25-0.67
			C392.39,20.01,392.16,20.59,392.23,21.19z"/>
		<path fill="#090908" d="M375.49,25.16c-2.63-0.24-4.99,0.11-7.33,0.65c-0.08,0.02-0.16,0.04-0.23,0.05
			c-0.42,0.03-0.97,0.25-1.13-0.33c-0.15-0.57,0.39-0.71,0.81-0.83c1.6-0.49,3.26-0.79,4.92-0.89c1.71-0.1,3.42-0.03,5.14-0.02
			c0.31,0,0.63,0.06,0.94,0.15c0.37,0.11,0.65,0.35,0.59,0.78c-0.07,0.49-0.46,0.45-0.83,0.45
			C377.33,25.16,376.3,25.16,375.49,25.16z"/>
		<path fill="#090908" d="M99.47,22.77c0,0.04,0.01,0.28,0,0.52c-0.04,0.57-0.26,1.08-0.89,1.07c-0.58-0.01-0.81-0.54-0.76-1.03
			c0.24-2.33-0.79-4.35-1.46-6.46c-0.15-0.47-0.47-1.03,0.13-1.4c0.58-0.36,0.97,0.12,1.32,0.49c0.88,0.96,1.51,2.01,1.48,3.4
			C99.25,20.43,99.39,21.5,99.47,22.77z"/>
		<path fill="#090908" d="M127.28,21.18c-2.78-0.93-5.65-0.94-8.53-0.81c-0.59,0.03-1.19,0.12-1.78,0.18c-0.38,0.04-0.75,0-0.84-0.46
			c-0.08-0.42,0.2-0.73,0.56-0.81c0.58-0.13,1.18-0.17,1.77-0.22c3.04-0.23,6.05-0.21,8.97,0.84c0.39,0.14,0.8,0.31,0.7,0.81
			C128.04,21.12,127.69,21.24,127.28,21.18z"/>
		<path fill="#090908" d="M394.34,25.73c0-1.75-0.22-3.53,1.06-5.02c0.34-0.4,0.61-0.97,1.21-0.71c0.66,0.29,0.38,0.88,0.18,1.35
			c-0.9,2.17-0.78,4.46-0.77,6.73c0,0.58,0.15,1.32-0.73,1.38c-0.93,0.06-0.93-0.69-0.95-1.34
			C394.32,27.33,394.34,26.53,394.34,25.73z"/>
		<path fill="#090908" d="M429.67,20.61c0.3,2.15-1.6,2.8-2.76,3.87c-0.52,0.47-1.23-0.21-1.05-0.76c0.5-1.53,0.44-3.25,1.49-4.6
			c0.29-0.37,0.47-0.95,1.05-0.82c0.62,0.14,0.98,0.67,1.17,1.25C429.68,19.87,429.64,20.25,429.67,20.61z"/>
		<path fill="#090908" d="M413.07,21.31c-0.08,0-0.16,0.01-0.24,0c-0.51-0.06-1.34,0.25-1.37-0.52c-0.04-0.88,0.84-0.57,1.38-0.67
			c3.18-0.59,6.43-0.3,9.62-0.82c0.16-0.03,0.32-0.05,0.47-0.05c0.43,0.02,1.01-0.05,1.06,0.51c0.05,0.59-0.53,0.55-0.96,0.63
			C419.74,20.99,416.36,20.62,413.07,21.31z"/>
		<path fill="#090908" d="M86.38,17.91c-2.58-0.52-5.18,0.19-7.76-0.18c-0.46-0.07-1.1,0.09-1.14-0.57c-0.05-0.7,0.61-0.85,1.11-0.79
			c2.98,0.36,5.97-0.29,8.95,0.14c0.38,0.06,0.76,0.1,0.8,0.55c0.05,0.53-0.36,0.64-0.78,0.7C87.17,17.81,86.78,17.86,86.38,17.91z"
			/>
		<path fill="#090908" d="M384.08,27.3c-0.64,0.01-1.03-0.24-1.3-0.67c-0.29-0.46-0.09-0.91,0.23-1.19c1.45-1.26,2.25-2.86,2.72-4.68
			c0.13-0.48,0.51-0.6,0.94-0.48c0.49,0.14,0.92,0.4,0.78,1.01c-0.09,0.38-0.22,0.78-0.44,1.11c-0.67,1.02-1.1,2.12-1.34,3.31
			C385.5,26.62,384.91,27.16,384.08,27.3z"/>
		<path fill="#090908" d="M75.93,21.03c0,0.93-0.52,1.37-1.11,1.1c-1.96-0.91-2.84-3.79-1.72-5.66c0.52-0.87,0.9-0.88,1.45-0.05
			C75.49,17.88,75.38,19.63,75.93,21.03z"/>
		<path fill="#090908" d="M108.99,16.27c0.06-0.52,0.1-1.03,0.71-1.15c0.66-0.12,0.73,0.35,0.86,0.87c0.45,1.73,0.84,3.49,2.17,4.86
			c0.59,0.61,0.48,1.36-0.25,1.85c-0.71,0.48-1.47,0.22-1.68-0.5C110.23,20.22,109.69,18.22,108.99,16.27z"/>
		<path fill="#090908" d="M227.06,22.78c-0.29,0-0.41,0.01-0.53,0c-0.37-0.04-0.92,0.15-0.99-0.39c-0.07-0.57,0.49-0.68,0.91-0.74
			c3.03-0.46,6.06-0.9,9.1-1.34c0.44-0.07,0.98-0.19,1.07,0.4c0.08,0.52-0.39,0.74-0.86,0.81C232.8,21.95,229.85,22.38,227.06,22.78
			z"/>
		<path fill="#090908" d="M241.53,21.08c0.17,1.8-1.28,2.72-2.34,3.86c-0.2,0.22-0.5,0.24-0.76,0.06c-0.31-0.21-0.35-0.54-0.28-0.85
			c0.29-1.28,0.56-2.56,1.11-3.75c0.27-0.59,0.64-1.34,1.47-1.15C241.59,19.46,241.55,20.28,241.53,21.08z"/>
		<path fill="#090908" d="M441.08,19.11c-0.21,1.29-0.38,2.43-0.86,3.5c-0.26,0.57-0.65,1-1.25,1.21c-0.47,0.17-0.87,0.03-1.21-0.29
			c-0.33-0.32-0.14-0.66,0.02-0.99c0.4-0.82,0.82-1.64,1.21-2.47c0.27-0.57,0.59-1.14,0.39-1.82c-0.14-0.48,0.09-0.8,0.51-0.92
			c0.42-0.12,0.68,0.19,0.81,0.54C440.87,18.32,440.98,18.79,441.08,19.11z"/>
		<path fill="#090908" d="M454.09,18.45c0,1.11-0.34,2.19-0.28,3.32c0.02,0.42-0.27,0.94-0.66,0.82c-0.63-0.19-1.53-0.26-1.67-1.11
			c-0.25-1.5,0.31-2.9,0.77-4.29c0.16-0.5,0.73-0.4,1.16-0.38c0.5,0.03,0.67,0.37,0.68,0.81C454.1,17.9,454.09,18.17,454.09,18.45z"
			/>
		<path fill="#090908" d="M444.74,21.43c-0.25-0.91,0.45-1.87,0.6-2.92c0.06-0.42,0.4-0.72,0.85-0.7c0.47,0.03,0.9,0.3,0.97,0.76
			c0.27,1.66-0.11,3.26-0.88,4.71c-0.36,0.68-1.22,0.45-1.41-0.33C444.76,22.54,444.79,22.09,444.74,21.43z"/>
		<path fill="#090908" d="M346.06,32.11c-0.44-0.08-0.64-0.35-0.65-0.75c-0.02-0.91-0.49-0.86-1.1-0.54c-0.5,0.27-1.11,0.66-1.41-0.08
			c-0.27-0.65,0.44-0.92,0.87-1.24c0.06-0.05,0.14-0.1,0.21-0.1c1.34,0.08,2.19-0.43,2.51-1.82c0.1-0.41,0.61-0.64,1.09-0.33
			c0.52,0.34,0.31,0.68,0.03,1.1c-0.56,0.85-0.73,1.84-0.87,2.83C346.69,31.62,346.65,32.09,346.06,32.11z"/>
		<path fill="#090908" d="M260.92,20.95c0.12-1.42,0.69-2.49,1.18-3.57c0.25-0.55,0.8-0.68,1.34-0.49c0.55,0.19,0.44,0.73,0.36,1.14
			c-0.22,1.18-0.47,2.35-0.77,3.51c-0.11,0.45-0.45,0.83-0.98,0.64C261.42,21.94,260.7,21.71,260.92,20.95z"/>
		<path fill="#090908" d="M251.8,19.24c-0.17,1.32-0.54,2.66-1.3,3.86c-0.38,0.6-0.93,1.15-1.67,0.71c-0.78-0.46-0.28-1.12,0.01-1.67
			c0.63-1.19,1.55-2.23,1.63-3.68c0.02-0.36,0.33-0.72,0.74-0.6C251.83,18.05,251.8,18.64,251.8,19.24z"/>
		<path fill="#090908" d="M64.24,17.34c0.15,1.17,0.81,2.35,1.4,3.56c0.3,0.61,0.35,1.18-0.34,1.52c-0.59,0.29-1.08,0.07-1.39-0.51
			c-0.8-1.52-1.11-3.14-0.85-4.84c0.06-0.42,0.22-0.97,0.74-0.95C64.39,16.15,64.35,16.67,64.24,17.34z"/>
		<path fill="#090908" d="M51.72,18.92c0-0.5-0.02-0.82,0-1.13c0.04-0.48,0.37-0.66,0.8-0.73c0.47-0.07,0.78,0.11,0.89,0.57
			c0.23,1,0.44,2.01,0.65,3.02c0.21,1.04-0.54,1.53-1.26,1.93c-0.56,0.31-0.77-0.19-0.82-0.66C51.87,20.88,51.8,19.81,51.72,18.92z"
			/>
		<path fill="#090908" d="M146.89,22.75c0.67,0.04,0.86,0.55,0.98,1.05c0.21,0.91,0.55,1.54,1.67,1.38c0.31-0.05,0.7,0.16,0.98,0.36
			c0.4,0.28,1.01,0.61,0.62,1.22c-0.38,0.59-0.83,0.1-1.22-0.14c-0.59-0.36-1.07-0.48-1.04,0.49c0.01,0.41-0.14,0.71-0.61,0.7
			c-0.4,0-0.54-0.27-0.61-0.61c-0.27-1.21-0.68-2.36-1.29-3.44C146.09,23.27,146.22,22.82,146.89,22.75z"/>
		<path fill="#090908" d="M254.83,22.48c0.03-1.29,0.29-2.53,0.86-3.69c0.25-0.5,0.56-0.95,1.17-0.75c0.58,0.2,0.63,0.7,0.54,1.28
			c-0.19,1.23-0.53,2.41-1.12,3.51c-0.21,0.4-0.55,0.73-1.06,0.54C254.83,23.23,254.77,22.86,254.83,22.48z"/>
		<path fill="#090908" d="M93,18.64c0,0.52,0.02,0.8,0,1.08c-0.03,0.35-0.22,0.6-0.55,0.72c-0.38,0.14-0.64-0.12-0.77-0.4
			c-0.51-1.07-1.02-2.16-1.45-3.27c-0.18-0.47-0.04-0.98,0.47-1.23c0.58-0.28,1.11-0.03,1.49,0.41C92.9,16.8,92.96,17.84,93,18.64z"
			/>
		<path fill="#090908" d="M57.56,19.22c-0.04-0.65,0-1,0.18-1.32c0.18-0.32,0.42-0.62,0.81-0.62c0.44,0,0.58,0.36,0.7,0.71
			c0.47,1.37,0.5,2.79,0.38,4.21c-0.03,0.39-0.18,0.72-0.62,0.74c-0.42,0.02-0.63-0.3-0.77-0.64
			C57.82,21.22,57.65,20.08,57.56,19.22z"/>
		<path fill="#090908" d="M408.22,19.6c0.76-0.02,1.18,0.32,0.92,1.09c-0.37,1.09-1.07,2.02-1.7,2.97c-0.24,0.36-0.67,0.42-1.08,0.29
			c-0.49-0.15-0.53-0.57-0.46-0.97c0.17-1.05,0.2-2.16,1.12-2.92C407.37,19.78,407.77,19.61,408.22,19.6z"/>
		<path fill="#090908" d="M137.41,24.74c0.03-0.37,0.07-1.08,0.18-1.79c0.05-0.32,0.26-0.61,0.65-0.59c0.32,0.02,0.51,0.25,0.53,0.55
			c0.03,0.45,0.32,0.67,0.63,0.95c0.88,0.79,0.8,1.25-0.27,1.77c-0.5,0.24-0.29,0.68-0.34,1.05c-0.06,0.49-0.22,0.89-0.79,0.84
			c-0.51-0.04-0.6-0.45-0.6-0.88C137.4,26.13,137.41,25.61,137.41,24.74z"/>
		<path fill="#090908" d="M357.16,30.78c-0.09,0.43,0.31,1.14-0.43,1.27c-0.76,0.14-0.85-0.56-0.96-1.1c-0.08-0.39-0.05-0.71-0.65-0.79
			c-0.9-0.11-1.03-0.64-0.44-1.4c0.36-0.45,0.95-0.7,1.06-1.37c0.04-0.24,0.33-0.35,0.58-0.3c0.42,0.09,0.54,0.42,0.58,0.8
			C356.98,28.86,357.07,29.8,357.16,30.78z"/>
		<path fill="#090908" d="M433.68,20.55c0,0.67,0.04,1.35-0.01,2.02c-0.04,0.51-0.29,0.93-0.89,0.93c-0.64,0-0.76-0.45-0.77-0.98
			c-0.03-1.3,0.11-2.59,0.27-3.88c0.06-0.47,0.29-0.89,0.81-0.86c0.58,0.03,0.61,0.53,0.62,0.98c0.01,0.6,0,1.19,0,1.79
			C433.71,20.55,433.7,20.55,433.68,20.55z"/>
		<path fill="#090908" d="M341.77,28.1c-0.36,0.83-0.27,1.71-0.26,2.59c0,0.42-0.05,0.85-0.56,0.91c-0.54,0.07-0.81-0.27-0.84-0.78
			c-0.04-0.59-0.15-1.07-0.8-1.31c-0.54-0.2-0.4-0.72-0.31-1.14c0.1-0.41,0.34-0.78,0.83-0.65c0.41,0.1,0.67,0.05,0.91-0.31
			c0.17-0.25,0.45-0.33,0.74-0.16C341.81,27.45,341.8,27.77,341.77,28.1z"/>
		<path fill="#090908" d="M220.87,24.39c0.05-1.21,0.25-2.28,1.27-3c0.38-0.27,0.79-0.4,1.21-0.11c0.44,0.31,0.4,0.74,0.21,1.17
			c-0.31,0.72-0.66,1.44-0.95,2.17c-0.21,0.53-0.4,1.12-1.11,1.03C220.68,25.54,220.94,24.83,220.87,24.39z"/>
		<path fill="#090908" d="M123.45,16.71c-1.13,0.09-2.13-0.58-3.26-0.57c-0.33,0-0.74-0.22-0.65-0.69c0.06-0.34,0.36-0.57,0.7-0.54
			c1.5,0.14,3,0.3,4.49,0.49c0.31,0.04,0.63,0.23,0.57,0.64c-0.05,0.36-0.33,0.56-0.66,0.61C124.25,16.71,123.85,16.69,123.45,16.71
			z"/>
		<path fill="#090908" d="M69.06,17.6c0.13-0.58-0.31-1.69,0.63-1.71c0.99-0.02,0.71,1.1,0.77,1.81c0.08,0.95,0.14,1.9,0.19,2.84
			c0.02,0.5-0.06,1.06-0.66,1.1c-0.61,0.04-0.74-0.5-0.77-1C69.16,19.65,69.11,18.66,69.06,17.6z"/>
		<path fill="#090908" d="M154.91,24.97c0.01,0.25-0.02,0.53-0.28,0.59c-0.69,0.15-0.68,0.66-0.69,1.19c0,0.45-0.18,0.79-0.69,0.78
			c-0.45,0-0.63-0.36-0.65-0.72c-0.07-0.99-0.08-1.98-0.47-2.92c-0.13-0.31,0.12-0.63,0.46-0.73
			C153.19,22.99,154.94,24.36,154.91,24.97z"/>
		<path fill="#090908" d="M243.45,22.26c0.26-0.97,0.12-2.08,0.61-3.08c0.19-0.38,0.46-0.73,0.92-0.59c0.42,0.13,0.37,0.57,0.34,0.93
			c-0.08,0.95-0.16,1.9-0.26,2.85c-0.07,0.69-0.21,1.54-1.06,1.46C243.17,23.75,243.58,22.87,243.45,22.26z"/>
		<path fill="#090908" d="M135.18,25.86c0,0.64-0.9,1.51-1.42,1.4c-0.71-0.15-0.6-0.7-0.53-1.23c0.12-0.9,0.21-1.81,0.32-2.72
			c0.04-0.33,0.16-0.64,0.54-0.7c0.46-0.06,0.62,0.28,0.74,0.63C135.13,24.12,134.84,25.08,135.18,25.86z"/>
		<path fill="#090908" d="M361.53,31.02c0.07,0.38-0.02,0.83-0.45,0.79c-0.67-0.05-1.42-0.34-1.5-1.08c-0.09-0.89-0.14-1.82,0.14-2.71
			c0.11-0.36,0.27-0.7,0.72-0.66c0.41,0.04,0.63,0.36,0.69,0.72C361.29,29.06,361.4,30.04,361.53,31.02z"/>
		<path fill="#090908" d="M371.32,21.98c-0.12,0-0.24,0.01-0.36,0c-0.46-0.04-1.15,0-1.16-0.55c-0.01-0.51,0.64-0.58,1.13-0.63
			c1.3-0.12,2.6-0.27,3.9-0.39c0.35-0.03,0.82-0.06,0.9,0.36c0.1,0.53-0.42,0.65-0.79,0.67C373.72,21.51,372.56,22.02,371.32,21.98z
			"/>
		<path fill="#090908" d="M143.6,25.83c-0.14,0.57,0.63,1.58-0.46,1.65c-0.99,0.07-0.81-1.06-0.88-1.67c-0.09-0.78-0.38-1.56-0.16-2.36
			c0.08-0.31,0.15-0.65,0.57-0.66c0.45-0.01,0.64,0.29,0.67,0.68C143.4,24.26,143.76,25.01,143.6,25.83z"/>
		<path fill="#090908" d="M350.74,30.26c-0.24-0.82,0.16-1.53,0.2-2.28c0.02-0.35,0.2-0.62,0.58-0.63c0.32-0.01,0.56,0.21,0.59,0.5
			c0.16,1.3,0.07,2.6-0.23,3.88c-0.06,0.25-0.31,0.36-0.57,0.33c-0.31-0.04-0.54-0.22-0.56-0.53
			C350.72,31.1,350.74,30.66,350.74,30.26z"/>
		<path fill="#090908" d="M42.8,22.79c-0.65-0.22-1.81,0.38-1.81-0.75c0-1.15,1.15-0.64,1.8-0.66c0.68-0.02,1.82-0.34,1.81,0.71
			C44.6,23.22,43.43,22.57,42.8,22.79z"/>
		<path fill="#090908" d="M82.82,19.44c0.35,0,0.63,0,0.91,0c0.42,0,0.7,0.21,0.72,0.63c0.02,0.43-0.3,0.67-0.67,0.7
			c-0.63,0.06-1.27,0.05-1.9,0.06c-0.37,0-0.61-0.17-0.63-0.56c-0.02-0.41,0.17-0.7,0.58-0.77C82.18,19.44,82.54,19.45,82.82,19.44z
			"/>
		<path fill="#090908" d="M405.9,30.02c0.82-0.01,1.53,0.01,1.57,0.88c0.03,0.6-0.38,1.04-0.98,0.91c-0.65-0.14-1.62-0.06-1.72-0.97
			C404.69,30.02,405.46,30.04,405.9,30.02z"/>
		<path fill="#090908" d="M458.42,30.25c-0.14,0.55,0.3,1.56-0.71,1.55c-0.93-0.01-0.64-0.99-0.73-1.6c-0.02-0.16-0.02-0.32-0.02-0.47
			c0-0.56,0.15-1.11,0.78-1.13c0.75-0.02,0.65,0.64,0.67,1.14C458.43,29.89,458.42,30.05,458.42,30.25z"/>
		<path fill="#090908" d="M417.95,22.52c0.24,0,0.48-0.01,0.71,0c0.42,0.02,1-0.07,0.98,0.55c-0.01,0.45-0.49,0.58-0.91,0.59
			c-0.63,0.02-1.27,0.03-1.9,0.02c-0.41,0-0.88-0.05-0.86-0.58c0.02-0.5,0.49-0.55,0.9-0.56c0.36-0.01,0.71,0,1.07,0
			C417.95,22.53,417.95,22.53,417.95,22.52z"/>
		<path fill="#090908" d="M231.02,24.91c-0.55,0-0.79,0.01-1.02,0c-0.25-0.01-0.49-0.12-0.55-0.37c-0.09-0.32,0.12-0.59,0.39-0.64
			c0.77-0.14,1.55-0.23,2.33-0.28c0.29-0.02,0.52,0.22,0.55,0.52c0.03,0.33-0.22,0.51-0.5,0.58
			C231.73,24.83,231.22,24.88,231.02,24.91z"/>
		<path fill="#090908" d="M94.12,27.24c-0.23,0.78-0.94,0.9-1.59,1c-0.54,0.08-0.83-0.39-0.82-0.83c0.01-0.84,0.69-0.84,1.31-0.84
			C93.5,26.58,94.01,26.54,94.12,27.24z"/>
		<path fill="#090908" d="M169.78,18.9c0.74-0.03,1.52-0.35,1.49,0.52c-0.03,0.67-0.78,0.67-1.34,0.64c-0.53-0.03-1.33,0.07-1.31-0.66
			C168.64,18.45,169.49,18.94,169.78,18.9z"/>
		<path fill="#090908" d="M309.72,19.22c0.55,0.21,1.4,0.11,1.5,0.99c0.05,0.4-0.42,0.58-0.79,0.45c-0.6-0.21-1.46-0.18-1.64-0.93
			C308.69,19.26,309.27,19.22,309.72,19.22z"/>
		<path fill="#090908" d="M323.61,22.05c0.5,0.11,1.32-0.22,1.35,0.56c0.02,0.65-0.76,0.57-1.24,0.54c-0.55-0.04-1.42,0.04-1.4-0.71
			C322.34,21.74,323.14,22.13,323.61,22.05z"/>
		<path fill="#090908" d="M221.82,32.35c-0.47-0.14-1.28-0.02-1.32-0.77c-0.03-0.59,0.69-0.52,1.12-0.56c0.47-0.05,1.03-0.02,1.11,0.6
			C222.8,32.15,222.41,32.36,221.82,32.35z"/>
		<path fill="#090908" d="M14.09,26.41c-0.27,0.36,0.21,1.18-0.6,1.08c-0.69-0.08-0.71-0.76-0.7-1.34c0.01-0.45,0.04-1,0.63-0.94
			C14.11,25.28,14.04,25.91,14.09,26.41z"/>
		<path fill="#090908" d="M185.38,19.67c0.51,0.04,1.07,0.16,1.1,0.81c0.03,0.55-0.48,0.53-0.88,0.54c-0.57,0.02-1.1-0.13-1.13-0.78
			C184.45,19.7,184.92,19.66,185.38,19.67z"/>
		<path fill="#090908" d="M141.87,26.28c0,0.42-0.16,0.72-0.58,0.77c-0.42,0.05-0.67-0.21-0.69-0.62c-0.02-0.43,0.16-0.82,0.62-0.84
			C141.63,25.57,141.79,25.93,141.87,26.28z"/>
		<path fill="#090908" d="M353.35,31.63c-0.46-0.06-0.69-0.29-0.71-0.7c-0.02-0.35,0.12-0.66,0.5-0.67c0.49-0.02,0.66,0.38,0.73,0.78
			C353.94,31.45,353.65,31.58,353.35,31.63z"/>
		<path fill="#090908" d="M449.84,19.78c-0.37-0.05-0.56-0.29-0.53-0.65c0.03-0.36,0.25-0.59,0.63-0.55c0.32,0.03,0.48,0.26,0.48,0.58
			C450.41,19.51,450.22,19.74,449.84,19.78z"/>
		<path fill="#090908" d="M457.91,18.02c0,0.36-0.13,0.62-0.52,0.62c-0.3,0-0.53-0.17-0.56-0.48c-0.04-0.38,0.2-0.58,0.55-0.62
			C457.71,17.5,457.88,17.69,457.91,18.02z"/>
		<path fill="#090908" d="M266.82,17.51c0.3-0.01,0.53,0.07,0.52,0.37c-0.02,0.4-0.27,0.64-0.66,0.69c-0.3,0.04-0.41-0.18-0.4-0.44
			C266.29,17.76,266.51,17.57,266.82,17.51z"/>
		<path fill="#090908" d="M49.31,18.67c-0.01,0.38-0.08,0.64-0.43,0.67c-0.28,0.02-0.45-0.14-0.47-0.41c-0.03-0.35,0.1-0.63,0.49-0.65
			C49.22,18.26,49.26,18.52,49.31,18.67z"/>
		<path fill="#090908" d="M55.8,18.96c-0.03,0.3-0.14,0.56-0.48,0.56c-0.28,0-0.42-0.22-0.43-0.48c-0.01-0.32,0.16-0.54,0.49-0.55
			C55.68,18.48,55.78,18.69,55.8,18.96z"/>
		<path fill="#090908" d="M260.19,19.19c-0.03,0.27-0.24,0.43-0.55,0.41c-0.21-0.01-0.37-0.15-0.34-0.38c0.04-0.32,0.27-0.49,0.57-0.49
			C260.07,18.73,260.2,18.9,260.19,19.19z"/>
	</g>
	<g>
		<path fill="#6F6859" d="M40.32,33.4C31.17,33.37,9.15,32.83,0,32.6c0-5.68,0-11.36,0-17.04c8.01,0.53,32.31,0.41,40.32,0.92
			 M33.89,24.48c0.52,0.47,1.23-0.21,1.05-0.76c-0.5-1.53-0.44-3.25-1.49-4.6c-0.29-0.37-0.47-0.95-1.05-0.82
			c-0.62,0.14-0.98,0.67-1.17,1.25c-0.11,0.33-0.07,0.71-0.1,1.07C30.83,22.76,32.73,23.4,33.89,24.48z M20.58,22.61
			c0.26,0.57,0.65,1,1.25,1.21c0.47,0.17,0.87,0.03,1.21-0.29c0.33-0.32,0.14-0.66-0.02-0.99c-0.4-0.82-0.82-1.64-1.21-2.47
			c-0.27-0.57-0.59-1.14-0.39-1.82c0.14-0.48-0.09-0.8-0.51-0.92c-0.42-0.12-0.68,0.19-0.81,0.54c-0.17,0.44-0.28,0.91-0.37,1.23
			C19.94,20.39,20.1,21.54,20.58,22.61z M6.99,21.77c-0.02,0.42,0.27,0.94,0.66,0.82c0.63-0.19,1.53-0.26,1.67-1.11
			c0.25-1.5-0.31-2.9-0.77-4.29c-0.16-0.5-0.73-0.4-1.16-0.38c-0.5,0.03-0.67,0.37-0.68,0.81c-0.01,0.28,0,0.56,0,0.83
			C6.71,19.56,7.05,20.65,6.99,21.77z M53.32,30.9c-0.03,0.6,0.38,1.04,0.98,0.91c0.65-0.14,1.62-0.06,1.72-0.97
			c0.09-0.82-0.69-0.8-1.13-0.82C54.07,30.01,53.37,30.02,53.32,30.9z M3.09,31.8c0.93-0.01,0.64-0.99,0.73-1.6
			c0.02-0.16,0.02-0.32,0.02-0.47c0-0.56-0.15-1.11-0.78-1.13c-0.75-0.02-0.65,0.64-0.67,1.14c-0.01,0.16,0,0.32,0,0.51
			C2.52,30.8,2.07,31.81,3.09,31.8z M3.41,18.64c0.3,0,0.53-0.17,0.56-0.48c0.04-0.38-0.2-0.58-0.55-0.62
			c-0.32-0.04-0.5,0.16-0.53,0.48C2.88,18.38,3.01,18.64,3.41,18.64z"/>
		<path fill="#090908" d="M34.79,33.1C25.64,33.07,9.15,32.83,0,32.6c0,1.2,0,2.4,0,3.6c9.35,0.13,30.22-0.63,39.57-0.66"/>
		<path fill="#090908" d="M37.77,16.41c-3.31-0.13-10.31,0.21-13.62,0C16.1,16.11,8.01,16.09,0,15.56c0-1.12,0-2.24,0-3.36
			c6.54,0.52,38.32,2.14,45.36,2.11"/>
		<path fill="#090908" d="M50.96,30.53c-2.97,0.28-5.73,0.45-8.52,0.38c-1.2-0.03-2.33-0.18-3.41-0.58c-1.99-0.75-4.11-1.17-6.26-1.03
			c-5.42,0.36-11.17,0.68-16.29-0.49c-1.75-0.4-3.34-0.25-4.93,0.48c-1.11,0.51-1.71-0.65-2.99-0.58c-0.5,0.03-0.99,0.06-1.38,0.33
			c-0.35,0.24-0.63,0.54-0.41,0.94c0.23,0.41,0.64,0.39,1.12,0.27c2-0.49,3.46,0.79,5.37-0.03c1.66-0.71,3.32,0.27,5.01,0.27
			c0.33,0,0.69,0.07,1,0.18c4.36,1.47,9.57,0.05,14.17-0.01c1.63-0.02,3.18,0.41,4.69,0.85c2.93,0.85,5.92,0.9,8.95,0.61
			c1.26-0.12,2.52-0.19,3.77-0.35c0.48-0.06,0.96-0.31,0.83-0.82C51.6,30.56,51.14,30.56,50.96,30.53z"/>
		<path fill="#090908" d="M31.13,20.61c-0.3,2.15,1.6,2.8,2.76,3.87c0.52,0.47,1.23-0.21,1.05-0.76c-0.5-1.53-0.44-3.25-1.49-4.6
			c-0.29-0.37-0.47-0.95-1.05-0.82c-0.62,0.14-0.98,0.67-1.17,1.25C31.12,19.87,31.16,20.25,31.13,20.61z"/>
		<path fill="#090908" d="M19.72,19.11c0.21,1.29,0.38,2.43,0.86,3.5c0.26,0.57,0.65,1,1.25,1.21c0.47,0.17,0.87,0.03,1.21-0.29
			c0.33-0.32,0.14-0.66-0.02-0.99c-0.4-0.82-0.82-1.64-1.21-2.47c-0.27-0.57-0.59-1.14-0.39-1.82c0.14-0.48-0.09-0.8-0.51-0.92
			c-0.42-0.12-0.68,0.19-0.81,0.54C19.93,18.32,19.82,18.79,19.72,19.11z"/>
		<path fill="#090908" d="M6.71,18.45c0,1.11,0.34,2.19,0.28,3.32c-0.02,0.42,0.27,0.94,0.66,0.82c0.63-0.19,1.53-0.26,1.67-1.11
			c0.25-1.5-0.31-2.9-0.77-4.29c-0.16-0.5-0.73-0.4-1.16-0.38c-0.5,0.03-0.67,0.37-0.68,0.81C6.7,17.9,6.71,18.17,6.71,18.45z"/>
		<path fill="#090908" d="M54.9,30.02c-0.82-0.01-1.53,0.01-1.57,0.88c-0.03,0.6,0.38,1.04,0.98,0.91c0.65-0.14,1.62-0.06,1.72-0.97
			C56.11,30.02,55.34,30.04,54.9,30.02z"/>
		<path fill="#090908" d="M2.38,30.25c0.14,0.55-0.3,1.56,0.71,1.55c0.93-0.01,0.64-0.99,0.73-1.6c0.02-0.16,0.02-0.32,0.02-0.47
			c0-0.56-0.15-1.11-0.78-1.13c-0.75-0.02-0.65,0.64-0.67,1.14C2.37,29.89,2.38,30.05,2.38,30.25z"/>
		<path fill="#090908" d="M2.89,18.02c0,0.36,0.13,0.62,0.52,0.62c0.3,0,0.53-0.17,0.56-0.48c0.04-0.38-0.2-0.58-0.55-0.62
			C3.09,17.5,2.92,17.69,2.89,18.02z"/>
	</g>
</g>
</svg>
