<?xml version="1.0" encoding="utf-8"?>
<!-- Generator: Adobe Illustrator 23.0.1, SVG Export Plug-In . SVG Version: 6.00 Build 0)  -->
<svg version="1.1" xmlns="http://www.w3.org/2000/svg" xmlns:xlink="http://www.w3.org/1999/xlink"
	 x="0px" y="0px" viewBox="0 0 30 30" style="enable-background:new 0 0 30 30;" xml:space="preserve">
<g id="fleur">
	<path fill="#FDFDFD" d="M24.36,14.02c-0.02-0.05-0.05-0.1-0.07-0.15c0.1-0.4-0.21-0.7-0.26-1.05c-0.14-1.02-0.7-1.86-1.18-2.7
		c-0.42-0.74-0.93-1.51-1.68-2.05c-0.22-0.16-0.27-0.39-0.01-0.65c0.28-0.28,0.46-0.63,0.46-1.06c0-0.99,0.04-1.99-0.88-2.67
		c-0.04-0.03-0.06-0.1-0.07-0.16c-0.13-1.03-1.02-1.4-1.76-1.75c-0.54-0.25-1.18-0.39-1.88-0.39c-1.42,0.01-2.8,0.37-4.22,0.28
		c-0.09-0.01-0.18,0.07-0.28,0.1c-1.03,0.4-1.9,1.01-2.57,1.89C9.78,3.91,9.54,4,9.23,4.06c-1.01,0.2-2.08,0.17-2.95,0.92
		C5.62,5.56,5,6.07,4.76,6.99c-0.12,0.46-0.11,0.92-0.2,1.37C4.44,8.9,4.22,9.47,4.47,10.09c0.16,0.39,0.41,0.77,0.22,1.3
		c-0.16,0.43,0.05,0.97,0.09,1.45c0.11,1.3,0.11,2.61,0.16,3.92C4.94,16.93,4.9,17.1,5,17.28c0.28,0.53,0.88,1.01,0.35,1.71
		c-0.02,0.02-0.01,0.11,0,0.11c0.47,0.14,0.2,0.53,0.28,0.8c0.07,0.22,0.05,0.49,0.35,0.57c0.38,0.1,0.79-0.03,0.87-0.34
		c0.11-0.48,0.7-0.73,0.57-1.31c-0.02-0.08,0.03-0.47,0.31-0.42c0.31,0.05,0.1,0.31,0.11,0.48c0,0.1-0.04,0.24,0.01,0.29
		c0.67,0.65,0.64,1.92,2.05,1.99c0.71,0.04,1.08-0.3,1.59-0.53c0.46-0.21,0.33-0.63,0.32-0.94c-0.03-0.78,0.28-1.5,0.33-2.26
		c0.02-0.33-0.06-0.76,0.37-0.82c0.34-0.05,0.66,0.16,0.93,0.45c0.75,0.79,0.91,1.85,1.31,2.79c0.07,0.16-0.1,0.32,0.05,0.51
		c0.47,0.56,0.88,1.16,1.36,1.71c0.41,0.47,0.37,1.09,0.66,1.61c0.22,0.39,0.59,0.73,0.57,1.24c-0.01,0.16,0.08,0.27,0.15,0.41
		c0.28,0.55,0.72,1.03,0.91,1.59c0.17,0.49,0.35,0.89,0.72,1.22c0.13,0.11,0.22,0.3,0.45,0.15c0.18-0.12,0.34-0.2,0.33-0.49
		c-0.03-0.92-0.07-1.84,0.02-2.76c0.03-0.29-0.41-0.33-0.17-0.63c0.16-0.2,0.18-0.49,0.13-0.74c-0.16-0.88,0.22-1.73,0.15-2.6
		c-0.01-0.09,0.04-0.19,0.07-0.28c0.14-0.57,0.57-1.06,0.43-1.72c-0.02-0.1-0.05-0.32,0.19-0.46c0.21,0.46,0.61,0.78,0.92,1.16
		c0.51,0.63,1.17,0.97,1.82,1.33c0.79,0.44,1.25,0.02,1.5-0.58c0.27-0.67,0.22-1.32,0-1.98c0.15-0.08,0.11-0.16,0-0.24
		c-0.02-0.36,0.06-0.74-0.14-1.09c0.06-0.07,0.27-0.12,0.03-0.24c0.02-0.43-0.12-0.83-0.25-1.23c0.16-0.07,0.38-0.12,0.09-0.32
		C24.66,14.96,24.78,14.42,24.36,14.02z"/>
	<path fill="#080808" d="M24.98,18.56c0.22,0.66,0.27,1.32,0,1.98c-0.25,0.6-0.71,1.02-1.5,0.58c-0.65-0.36-1.31-0.71-1.82-1.33
		c-0.3-0.38-0.7-0.7-0.92-1.16c-0.24,0.14-0.21,0.36-0.19,0.46c0.14,0.65-0.29,1.15-0.43,1.72c-0.02,0.09-0.07,0.19-0.07,0.28
		c0.08,0.88-0.3,1.72-0.15,2.6c0.04,0.25,0.03,0.54-0.13,0.74c-0.24,0.3,0.2,0.34,0.17,0.63c-0.09,0.91-0.05,1.84-0.02,2.76
		c0.01,0.29-0.14,0.37-0.33,0.49c-0.23,0.15-0.32-0.04-0.45-0.15c-0.38-0.33-0.56-0.74-0.72-1.22c-0.19-0.56-0.64-1.04-0.91-1.59
		c-0.07-0.14-0.16-0.25-0.15-0.41c0.02-0.51-0.35-0.85-0.57-1.24c-0.28-0.52-0.25-1.14-0.66-1.61c-0.48-0.55-0.89-1.15-1.36-1.71
		c-0.15-0.18,0.02-0.35-0.05-0.51c-0.41-0.95-0.57-2-1.31-2.79c-0.27-0.28-0.59-0.49-0.93-0.45c-0.43,0.06-0.35,0.49-0.37,0.82
		c-0.05,0.76-0.35,1.48-0.33,2.26c0.01,0.32,0.14,0.74-0.32,0.94c-0.51,0.23-0.88,0.56-1.59,0.53c-1.41-0.07-1.38-1.34-2.05-1.99
		c-0.05-0.05-0.01-0.19-0.01-0.29c0-0.17,0.21-0.42-0.11-0.48c-0.28-0.05-0.33,0.33-0.31,0.42c0.13,0.58-0.45,0.83-0.57,1.31
		c-0.07,0.31-0.49,0.45-0.87,0.34c-0.29-0.08-0.28-0.35-0.35-0.57c-0.08-0.27,0.18-0.66-0.28-0.8c-0.01,0-0.02-0.09,0-0.11
		c0.54-0.7-0.06-1.18-0.35-1.71c-0.1-0.18-0.06-0.35-0.06-0.52c-0.05-1.31-0.05-2.62-0.16-3.92c-0.04-0.49-0.25-1.02-0.09-1.45
		c0.2-0.53-0.06-0.92-0.22-1.3C4.22,9.47,4.44,8.9,4.56,8.36c0.1-0.45,0.08-0.91,0.2-1.37c0.24-0.92,0.86-1.43,1.52-2
		c0.88-0.75,1.94-0.72,2.95-0.92C9.54,4,9.78,3.91,9.98,3.66c0.67-0.87,1.54-1.49,2.57-1.89c0.09-0.04,0.19-0.11,0.28-0.1
		c1.42,0.09,2.8-0.27,4.22-0.28c0.7,0,1.35,0.14,1.88,0.39c0.74,0.35,1.62,0.72,1.76,1.75c0.01,0.06,0.03,0.13,0.07,0.16
		c0.93,0.68,0.89,1.67,0.88,2.67c0,0.44-0.18,0.79-0.46,1.06c-0.26,0.26-0.22,0.49,0.01,0.65c0.74,0.54,1.25,1.31,1.68,2.05
		c0.48,0.84,1.04,1.68,1.18,2.7c0.05,0.35,0.35,0.65,0.26,1.05c-0.04,0.08-0.03,0.14,0.07,0.15c0.42,0.4,0.29,0.94,0.35,1.43
		c-0.03,0.11-0.06,0.21-0.09,0.32c0.13,0.4,0.27,0.8,0.25,1.23c-0.12,0.06-0.13,0.14-0.03,0.24c0.2,0.34,0.12,0.72,0.14,1.09
		C24.88,18.4,24.87,18.48,24.98,18.56z M13.49,8.01L13.49,8.01c0.21,0.72,0.41,1.46,0.66,2.17c0.56,1.6,1.53,2.99,2.21,4.54
		c0.21,0.49,0.35,0.99,0.5,1.5c0.41,1.31,0.61,2.64,0.47,3.99c-0.18,1.73,0.64,3.16,1.27,4.7c0.36-0.44,0.1-0.9,0.2-1.27
		c0.29-1.15,0.26-2.34,0.53-3.51c0.28-1.21,0.31-2.57-0.13-3.84c-0.1-0.28-0.08-0.6-0.2-0.87c-0.33-0.77-0.09-1.66-0.53-2.38
		c-0.19-0.31-0.24-0.59,0.06-0.78c0.31-0.2,0.47,0.18,0.7,0.3c0.19,0.09,0.09,0.28,0.13,0.43c0.06,0.23,0.01,0.46,0.16,0.72
		c0.33,0.55,0.59,1.17,0.74,1.79c0.18,0.71,0.41,1.36,0.77,2.01c0.42,0.75,1.15,1.25,1.49,2.04c0.02,0.05,0.09,0.09,0.14,0.1
		c0.41,0.02,0.68,0.27,0.93,0.55c0.07,0.08,0.24,0.22,0.36,0.11c0.09-0.08,0.15-0.25,0.15-0.37c-0.07-1.25-0.15-2.5-0.23-3.74
		c-0.03-0.47-0.1-0.99-0.27-1.49c-0.15-0.46-0.6-0.8-0.53-1.35c0.05-0.36-0.08-0.67-0.32-0.98c-0.22-0.29-0.39-0.63-0.51-1
		c-0.2-0.58-0.45-1.15-0.94-1.55c-0.71-0.57-1.24-1.31-1.84-1.97c-0.81-0.89-1.51-1.92-2.94-1.46c-0.28,0.09-0.4-0.37-0.62-0.1
		C15.66,6.6,15.3,6.5,15.05,6.41c-0.82-0.27-1.68-0.26-2.51-0.46c-0.71-0.17-1.19-0.64-1.42-1.24c-0.16-0.44-0.44-0.36-0.62-0.28
		c-0.46,0.2-0.73,0.63-0.98,1.06C9.2,6.07,9.11,6.71,8.9,7.32C8.79,7.67,8.65,8.01,8.76,8.41C9,9.26,9.12,10.14,9.5,10.95
		c0.26,0.54,0.36,1.16,0.74,1.64c0.8,1.01,1.64,1.93,2.93,2.42c0.67,0.25,1.39,0.63,1.76,1.4c0.15,0.31,0.11,0.64,0.21,0.95
		c0.16,0.53,0.68,0.89,0.65,1.5c-0.01,0.19,0.05,0.46,0.32,0.39c0.28-0.07,0.07-0.28,0.03-0.44c-0.01-0.06-0.02-0.12-0.01-0.18
		c0.12-1.01,0.08-2.01-0.39-2.94c-0.37-0.72-0.61-1.51-1.17-2.13c-0.3-0.34-0.5-0.73-0.51-1.23c-0.01-0.4-0.13-0.83-0.32-1.18
		c-0.31-0.55-0.59-1.07-0.65-1.73c-0.03-0.36,0.13-0.71,0.01-1.04C12.93,7.91,13.24,8.01,13.49,8.01z M5.93,12.09
		c-0.21,0.16-0.59,0.34-0.08,0.65c0.07,0.04,0.1,0.36,0.06,0.59c-0.06,0.38-0.25,0.78-0.09,1.18c0.08,0.21,0.05,0.45,0.12,0.62
		c0.14,0.34-0.32,0.6-0.16,0.76c0.52,0.52,0.37,1.22,0.62,1.81c0.06,0.14,0.02,0.35,0.22,0.36c0.16,0.01,0.19-0.2,0.23-0.31
		c0.25-0.67,0.42-1.37,0.53-2.08c0.05-0.32,0.28-0.48,0.49-0.63c0.2-0.14,0.24,0.16,0.31,0.25c0.51,0.68,0.63,1.51,0.54,2.31
		c-0.11,0.88,0.36,1.5,0.73,2.18c0.08,0.14,0.38,0.25,0.56,0.23c0.22-0.02,0.22-0.27,0.26-0.48c0.05-0.27,0.01-0.6,0.33-0.76
		c0.11-0.06,0.13-0.18,0.02-0.24c-0.4-0.21,0.13-0.6-0.18-0.82c0.41-0.32,0.24-0.77,0.25-1.17c0.01-0.33,0.08-0.57,0.37-0.75
		c0.41-0.26,0.28-0.55-0.08-0.7c-0.69-0.28-1.01-0.9-1.38-1.44c-0.63-0.92-1.13-1.94-1.4-3.03C8.01,9.89,7.58,9.2,7.69,8.39
		C7.82,7.51,7.82,6.6,8.3,5.8c0.07-0.11,0.13-0.3,0.02-0.46c-0.12-0.17-0.25,0-0.36-0.01C7.44,5.26,7.2,5.74,6.8,5.91
		C6.15,6.19,5.82,6.8,5.73,7.38c-0.14,0.94-0.31,1.9-0.17,2.89c0.08,0.55,0.29,1.18-0.12,1.7C5.59,12.18,5.78,11.8,5.93,12.09z
		 M20.5,5.95c0.27-0.08,0.22-0.46,0.14-0.51c-0.36-0.25-0.25-0.67-0.41-0.98C20,4.02,19.68,3.69,19.38,3.32
		c-0.49-0.61-1.15-0.74-1.76-0.88c-0.66-0.15-1.38,0.02-2.08,0.06c-0.83,0.05-1.71-0.17-2.45,0.42c-0.05,0.04-0.16,0.02-0.24,0.02
		c-0.57-0.03-0.82,0.48-1.22,0.73c-0.07,0.05-0.09,0.17-0.02,0.21c0.51,0.26,0.65,0.92,1.34,1.04c0.73,0.12,1.46,0.07,2.18,0.17
		c0.48,0.06,1,0.14,1.55-0.03c0.64-0.21,1.35-0.51,2.06-0.15c0.52,0.26,1.01,0.55,1.47,0.9C20.3,5.85,20.34,5.96,20.5,5.95z"/>
	<path fill="#676766" d="M24.62,15.77c0.03-0.11,0.06-0.21,0.09-0.32C25,15.64,24.78,15.7,24.62,15.77z"/>
	<path fill="#676766" d="M24.84,17.24c-0.09-0.09-0.09-0.17,0.03-0.24C25.11,17.12,24.89,17.16,24.84,17.24z"/>
	<path fill="#676766" d="M24.98,18.56c-0.11-0.08-0.1-0.16,0-0.24C25.09,18.4,25.13,18.48,24.98,18.56z"/>
	<path fill="#676766" d="M24.36,14.02c-0.11-0.01-0.12-0.07-0.07-0.15C24.31,13.92,24.34,13.97,24.36,14.02z"/>
	<path fill="#48707A" d="M13.49,8.01c-0.25,0-0.56-0.09-0.38,0.38c0.12,0.33-0.04,0.68-0.01,1.04c0.06,0.65,0.34,1.18,0.65,1.73
		c0.19,0.35,0.31,0.78,0.32,1.18c0.01,0.5,0.21,0.89,0.51,1.23c0.56,0.62,0.8,1.41,1.17,2.13c0.47,0.93,0.51,1.93,0.39,2.94
		c-0.01,0.06,0,0.12,0.01,0.18c0.04,0.15,0.25,0.36-0.03,0.44c-0.27,0.07-0.33-0.2-0.32-0.39c0.03-0.6-0.48-0.96-0.65-1.5
		c-0.1-0.31-0.06-0.63-0.21-0.95c-0.37-0.77-1.09-1.15-1.76-1.4c-1.28-0.49-2.13-1.41-2.93-2.42c-0.38-0.48-0.49-1.1-0.74-1.64
		C9.12,10.14,9,9.26,8.76,8.41C8.65,8.01,8.79,7.67,8.9,7.32C9.11,6.71,9.2,6.07,9.52,5.5c0.24-0.43,0.52-0.86,0.98-1.06
		c0.19-0.08,0.46-0.17,0.62,0.28c0.22,0.61,0.71,1.07,1.42,1.24c0.83,0.2,1.69,0.18,2.51,0.46c0.25,0.09,0.62,0.18,0.88-0.14
		c0.22-0.27,0.34,0.19,0.62,0.1c1.43-0.45,2.13,0.57,2.94,1.46c0.6,0.66,1.13,1.4,1.84,1.97c0.5,0.4,0.75,0.97,0.94,1.55
		c0.12,0.36,0.29,0.71,0.51,1c0.24,0.31,0.37,0.61,0.32,0.98c-0.07,0.54,0.38,0.89,0.53,1.35c0.17,0.5,0.24,1.02,0.27,1.49
		c0.08,1.25,0.16,2.5,0.23,3.74c0.01,0.12-0.06,0.29-0.15,0.37c-0.13,0.11-0.29-0.03-0.36-0.11c-0.26-0.29-0.52-0.53-0.93-0.55
		c-0.05,0-0.12-0.05-0.14-0.1c-0.34-0.79-1.07-1.29-1.49-2.04c-0.36-0.64-0.59-1.3-0.77-2.01c-0.16-0.62-0.42-1.24-0.74-1.79
		c-0.15-0.26-0.1-0.48-0.16-0.72c-0.04-0.14,0.06-0.33-0.13-0.43c-0.23-0.12-0.39-0.5-0.7-0.3c-0.3,0.19-0.25,0.48-0.06,0.78
		c0.44,0.73,0.2,1.62,0.53,2.38c0.12,0.27,0.1,0.59,0.2,0.87c0.44,1.27,0.41,2.62,0.13,3.84c-0.27,1.17-0.24,2.36-0.53,3.51
		c-0.1,0.37,0.16,0.83-0.2,1.27c-0.63-1.55-1.45-2.97-1.27-4.7c0.14-1.35-0.06-2.68-0.47-3.99c-0.16-0.5-0.29-1.01-0.5-1.5
		c-0.67-1.54-1.65-2.94-2.21-4.54C13.89,9.46,13.7,8.73,13.49,8.01C13.49,7.98,13.6,8,13.51,7.92C13.5,7.95,13.5,7.98,13.49,8.01z"
		/>
	<path fill="#98976B" d="M5.93,12.09c-0.15-0.3-0.34,0.08-0.49-0.12c0.42-0.53,0.2-1.15,0.12-1.7C5.42,9.28,5.59,8.32,5.73,7.38
		C5.82,6.8,6.15,6.19,6.8,5.91c0.4-0.17,0.63-0.65,1.16-0.58c0.11,0.02,0.25-0.16,0.36,0.01C8.44,5.5,8.37,5.69,8.3,5.8
		c-0.48,0.8-0.49,1.71-0.61,2.6c-0.11,0.8,0.32,1.5,0.5,2.24c0.27,1.09,0.77,2.1,1.4,3.03c0.37,0.54,0.69,1.17,1.38,1.44
		c0.36,0.14,0.49,0.44,0.08,0.7c-0.29,0.19-0.36,0.43-0.37,0.75c-0.01,0.4,0.16,0.85-0.25,1.17c0.31,0.22-0.22,0.61,0.18,0.82
		c0.1,0.05,0.09,0.18-0.02,0.24c-0.33,0.16-0.28,0.49-0.33,0.76c-0.04,0.2-0.04,0.46-0.26,0.48c-0.19,0.01-0.49-0.09-0.56-0.23
		c-0.36-0.68-0.83-1.3-0.73-2.18c0.1-0.8-0.03-1.62-0.54-2.31c-0.07-0.09-0.11-0.39-0.31-0.25c-0.21,0.15-0.44,0.31-0.49,0.63
		c-0.11,0.71-0.28,1.4-0.53,2.08c-0.04,0.11-0.06,0.32-0.23,0.31c-0.2-0.01-0.16-0.22-0.22-0.36c-0.25-0.58-0.1-1.29-0.62-1.81
		c-0.16-0.16,0.3-0.41,0.16-0.76c-0.07-0.17-0.03-0.41-0.12-0.62c-0.16-0.39,0.03-0.8,0.09-1.18c0.04-0.23,0.01-0.55-0.06-0.59
		C5.34,12.44,5.72,12.26,5.93,12.09z"/>
	<path fill="#99976B" d="M20.5,5.95c-0.16,0.01-0.2-0.09-0.28-0.15c-0.46-0.35-0.95-0.64-1.47-0.9c-0.72-0.36-1.42-0.06-2.06,0.15
		c-0.55,0.18-1.07,0.1-1.55,0.03c-0.73-0.1-1.46-0.05-2.18-0.17c-0.69-0.12-0.83-0.78-1.34-1.04c-0.07-0.04-0.05-0.16,0.02-0.21
		c0.4-0.25,0.65-0.77,1.22-0.73c0.08,0,0.18,0.02,0.24-0.02c0.74-0.59,1.62-0.37,2.45-0.42c0.7-0.04,1.43-0.2,2.08-0.06
		c0.61,0.14,1.28,0.27,1.76,0.88c0.29,0.37,0.62,0.7,0.85,1.13c0.17,0.31,0.05,0.73,0.41,0.98C20.72,5.48,20.77,5.86,20.5,5.95z"/>
	<path fill="#080808" d="M13.49,8.01c0.01-0.03,0.02-0.06,0.03-0.08C13.6,8,13.49,7.98,13.49,8.01C13.48,8,13.49,8.01,13.49,8.01z"/>
</g>
</svg>
