<svg width="16" height="40" xmlns="http://www.w3.org/2000/svg">
  <g id="fleur">
   <g>
    <path d="m8.316968,39.338341c-1.865167,0.943097 -5.121354,-3.86058 -6.25245,-5.97535c-1.266771,-2.368542 -2.002269,-3.804786 -1.74663,-6.391105c0.151384,-1.533433 0.645525,-3.012872 1.628093,-5.97535c1.269627,-3.819185 1.833748,-4.312331 2.376445,-6.837456c0.13139,-0.608334 0.352753,-1.763808 0.916874,-4.431118c0.292771,-1.38225 0.167094,-2.361343 0.979712,-3.741793c0.518419,-0.880104 0.754064,-1.884395 2.406436,-3.385432c1.055405,-0.957496 2.584955,-1.632422 3.320454,-1.940189c2.040829,-0.851307 3.411856,0.799113 3.895999,1.977985c0.2942,0.719922 -0.621246,2.057176 -0.612677,5.577593c0.007141,3.511418 -0.348469,3.641004 -0.631243,5.588392c-0.379889,2.618715 -0.785484,3.025471 -1.323897,5.788171c-0.248499,1.276061 -0.354182,1.094281 -1.266771,4.333928c-1.118243,3.972168 -1.001135,3.610407 -1.53812,5.840365c-0.864032,3.597809 -1.309615,3.831783 -0.983997,4.733485c0.231361,0.64073 0.899736,1.959987 0.081405,3.513218c-0.297055,0.570538 -0.736927,1.065484 -1.249633,1.324656l-0.000001,0z"/>
   </g>
   <g>
    <path fill="#D8B182" d="m13.969594,1.466861c-0.569832,0.223176 -0.33276,0.892703 -0.651238,1.616224c-0.31705,0.716322 -1.016845,1.351653 -1.338178,2.067975c-0.049985,0.111588 -0.178519,0.374359 -0.017138,0.601134c0.171378,0.242973 0.629815,0.151184 0.254211,1.290459c-0.681229,2.085973 -1.108246,2.613316 -1.395305,5.313022c-0.114252,1.079883 0.202798,0.844108 -0.128534,2.402739c-0.352753,1.664819 -0.399883,2.66731 -0.424161,2.901285c-0.02285,0.223176 -0.6798,1.28866 -0.674088,2.348744c0.009997,1.621623 -0.148528,1.963586 -0.238502,2.996674c-0.088545,1.002491 0.001428,1.598226 -0.237073,2.377541c-0.614105,2.013981 -0.989709,4.258337 -1.382451,8.691255c-0.154241,1.74941 0.645525,1.267062 0.874029,2.141767c0.034276,0.133186 0.43273,0.266371 0.297055,-0.446352c-0.069979,-0.356361 -0.087117,-0.73072 -0.202798,-0.799113c-0.69551,-0.406756 0.027135,-2.082374 0.684085,-3.653603c0.629815,-1.511836 0.194229,-1.162673 0.912589,-3.993766c0.712648,-2.802295 1.957997,-6.15713 2.727771,-10.20489c0.91973,-4.836074 0.319906,-4.693889 0.488428,-6.419902c0.111396,-1.135677 0.65695,-3.847982 1.022557,-5.939354c0.378461,-2.150766 -0.017138,-3.507819 -0.571261,-3.291842l0.000001,0z"/>
   </g>
   <g>
    <path fill="#80B78A" d="m8.826818,37.929095c0.956862,-0.750518 -0.901164,-1.434444 -1.565255,-2.975077c-0.377032,-0.876505 0,-1.157274 0.459865,-5.253628c0.33276,-2.971477 0.344184,-2.418937 0.624102,-4.582302c0.287059,-2.231757 0.65695,-4.125151 1.093965,-6.351509c0.52556,-2.690707 0.519848,-2.316348 0.674088,-3.333238c0.631243,-4.175546 -0.27849,-3.792188 0.591255,-6.036543c0.614105,-1.583828 1.426724,-2.697906 0.725501,-3.288243c-0.205654,-0.172781 -0.735498,-0.46255 -0.277062,-1.124878c0.248499,-0.359961 0.586971,-0.538141 1.079683,-1.10688c0.138531,-0.160183 0.631243,-0.73792 0.775487,-1.270662c0.189944,-0.710923 -0.231361,-1.353453 -1.188223,-1.069084c-0.348469,0.104389 -0.671231,0.304167 -0.795481,0.377959c-0.696938,0.430153 -1.102534,0.975494 -1.121099,1.290459c-0.009997,0.169181 0.099971,0.221376 0.264208,0.347362c0.281346,0.217776 0.017138,0.619133 0.228504,0.878305c0.477003,0.584936 0.017138,2.361343 -0.344184,3.288243c-0.39417,1.006091 -0.001428,0.390558 -0.692654,3.973968c-0.31705,1.65222 -0.352753,1.526234 -0.822616,3.85698c-0.341328,1.700815 -0.364179,1.970786 -0.6341,3.151457c-0.202798,0.883704 -0.267064,1.078083 -0.742639,2.94268c-0.571261,2.242556 -1.312472,3.12446 -1.401017,3.617607c-0.189944,1.061884 -0.027135,0.779315 -0.348469,3.6716c-0.237073,2.127369 0.119965,2.460332 0.114252,3.061467c-0.007141,0.809912 0.121393,1.603625 0.379889,3.187454c0.405595,2.498129 0.359894,0.9143 0.518419,1.999583c0.11568,0.793714 0.105683,1.393049 0.951149,1.295859c0.375604,-0.039596 1.052548,-0.237574 1.452431,-0.54894l-0.000001,0z"/>
   </g>
   <g>
    <path fill="#D8B182" d="m5.286429,36.161687c0.282774,-0.154783 -0.264208,-1.263463 -0.421305,-3.554613c-0.044273,-0.633531 -0.034276,-1.37505 -0.017138,-2.863489c0.017138,-1.499237 0.027135,-2.246156 0.084261,-2.769898c0.148528,-1.310258 0.39417,-1.812403 1.063974,-4.404121c0.375604,-1.452442 0.606965,-2.48373 0.918302,-3.880378c0.968287,-4.333928 0.619818,-3.775989 1.083967,-5.046651c0.816903,-2.237156 1.55383,-3.018272 1.093965,-3.831783c-0.217079,-0.385158 -0.669803,-0.712722 -0.299912,-1.583828c0.259924,-0.613733 0.662662,-0.871105 1.026841,-1.702615c0.348469,-0.795514 0.304196,-1.301258 0.271349,-1.506436c-0.081405,-0.487747 -0.344184,-0.73792 -0.591255,-0.970094c-0.341328,-0.320365 -0.50985,-0.482347 -0.784056,-0.377959c-0.65695,0.250173 -1.503844,1.628823 -1.902299,2.445934c-0.292771,0.599335 -0.349897,0.9179 -0.552695,1.799804c-0.508422,2.217359 -0.558408,2.030179 -0.736927,3.059667c-0.227076,1.303058 -0.072836,1.166273 -0.304196,2.354144c-0.222792,1.148275 -0.526988,2.093172 -0.708363,2.647512c-0.27849,0.856707 -0.418449,1.148275 -0.979712,2.620515c-0.282774,0.743319 -0.819759,2.148966 -1.326754,3.623006c-0.65695,1.914992 -0.985425,2.872488 -1.099677,3.716596c-0.181375,1.346253 -0.004285,2.258754 0.11568,2.841891c0.13139,0.635331 0.237073,0.772116 0.879742,2.323547c0.874029,2.111171 1.078255,2.834692 1.868023,3.871379c0.205654,0.268171 1.023985,1.348053 1.318185,1.187871l0,-0.000001z"/>
   </g>
   <g>
    <path fill="#568B8C" d="m7.968498,31.72517c0.272777,-2.20476 0.172806,-2.521526 0.16995,-2.703306c-0.007141,-0.46255 0.524132,0.053994 1.348176,-0.320365c0.44844,-0.203378 0.454152,-0.36896 0.574117,-0.244774c0.07712,0.079191 -0.078548,0.592136 -0.148528,1.19327c-0.03856,0.327564 -0.09283,0.381558 -0.382745,1.528034c-0.084261,0.334764 0.094258,0.503945 -0.034276,0.615533c-0.188516,0.161982 -0.327047,0.023397 -0.724073,0.088191c-0.488428,0.077392 -0.748351,0.36716 -0.84261,0.237574c-0.067123,-0.09359 0.028563,-0.302367 0.039988,-0.394157l0.000001,0z"/>
    <path fill="#568B8C" d="m11.367501,24.317175c-0.017138,0.09179 -1.809469,0.124186 -1.908011,0.070192c-0.225648,-0.124186 -0.43273,-0.235774 -0.531272,-0.502145c-0.121393,-0.327564 0.031419,-0.599335 0.441299,-1.900593c0.252783,-0.799113 0.254211,-0.883704 0.382745,-1.01149c0.142815,-0.140385 0.31705,-0.214176 1.40673,-0.167382c0.59554,0.023397 1.023985,0 0.979712,0.133186c-0.03856,0.118787 -0.581258,2.363143 -0.771202,3.378233l0,0z"/>
    <path fill="#568B8C" d="m13.172685,16.590616c-0.359894,1.018689 -2.196498,0.176381 -2.970556,0.27357c-0.225648,0.028797 0.014282,-0.397757 0.279918,-1.439843c0.037132,-0.374359 0.309909,-0.975494 0.33276,-1.789005c0.012854,-0.475149 -0.122821,-0.494946 -0.114252,-1.202269c0.009997,-0.788314 0.171378,-1.19507 0.341328,-1.391248c0.202798,-0.235774 0.40988,-0.053994 1.07397,-0.097189c0.899736,-0.057594 1.212501,-0.433753 1.433865,-0.176381c0.132818,0.154783 0.11568,0.55074 0.078548,1.346253c-0.011425,0.27717 0.02285,0.561539 -0.019994,0.935898c-0.089974,0.775716 -0.079976,0.835109 -0.119965,1.461441c-0.02285,0.354561 -0.049985,0.469749 -0.07712,0.896303c-0.035704,0.581337 -0.158525,0.957496 -0.238502,1.182471z"/>
    <path fill="#568B8C" d="m5.460663,24.560149c0.47129,-0.343762 0.35561,-1.243665 0.684085,-2.557522c0.099971,-0.244774 0.194229,-0.417555 0.134246,-0.541741c-0.121393,-0.251973 -0.636956,0.215977 -1.388164,0.088191c-0.288487,-0.048595 -1.08968,-0.266371 -1.692361,-0.808112c-0.07712,-0.070192 -0.241358,-0.223176 -0.404167,-0.167382c-0.199942,0.068392 -0.285631,0.404956 -0.338472,0.604734c-0.431302,1.610825 -0.714076,1.65222 -0.60268,2.085973c0.154241,0.606534 0.785484,0.838709 1.558114,1.123078c0.596968,0.221376 1.093965,0.228575 1.432436,0.232175c0.347041,0.007199 0.519848,0.010799 0.616962,-0.059394l0.000001,0z"/>
    <path fill="#568B8C" d="m7.404379,16.376439c-0.181375,0.18898 -0.536985,-0.361761 -1.42244,-0.687525c-0.80405,-0.295168 -1.008276,-0.334764 -1.008276,-0.334764c-0.237073,-0.046795 -0.342756,-0.034196 -0.27849,-0.116987c0.088545,-0.113387 0.302768,-0.701923 0.474147,-1.65222c0.087117,-0.480548 0.072836,-1.069084 0.069979,-1.240065c-0.012854,-0.570538 -0.078548,-0.73792 0.011425,-0.82971c0.145672,-0.151184 0.438443,0.18898 1.528123,0.928699c0.488428,0.332964 0.6341,0.403156 0.822616,0.669527c0.304196,0.430153 0.342756,0.127786 0.455581,0.098989c0.109968,-0.026997 0.189944,0.280769 0.154241,0.266371c-0.037132,-0.014399 -0.121393,0.426553 -0.477003,1.405647c-0.134246,0.36896 -0.107112,0.536342 -0.151384,0.802712c-0.078548,0.46255 -0.084261,0.592136 -0.178519,0.689325l0,0z"/>
    <path fill="#568B8C" d="m4.85227,29.428619l-0.009997,0.851307l-0.005713,1.423645l0,0.251973l-2.027976,0.287969l-0.309909,-0.097189l-1.056833,-2.629514l-0.217079,-0.73972l1.752343,0.325764c0,0 1.565255,0.223176 1.619524,0.223176s0.255639,0.102589 0.255639,0.102589l0.000001,0z"/>
    <path fill="#568B8C" d="m9.305249,7.623991c-0.225648,0.082791 -0.341328,-0.590336 -0.941152,-1.031288c-0.178519,-0.131386 -0.40988,-0.250173 -0.848322,-0.579537c-0.107112,-0.082791 -0.277062,-0.214176 -0.299912,-0.424754c-0.012854,-0.125986 0.028563,-0.228575 0.069979,-0.322165c0.37132,-0.871105 0.311337,-0.822511 0.391314,-0.925099c0.192801,-0.257372 0.374176,-0.55254 0.725501,-0.703724c0.447012,-0.190779 0.69551,-0.079191 0.938296,0.034196c0.335616,0.158383 0.504138,0.611933 0.629815,0.946697c0.061411,0.161982 0.117108,0.311366 0.139959,0.523743c0.045701,0.404956 -0.055698,0.719922 -0.187088,1.117678c-0.105683,0.325764 -0.111396,0.223176 -0.388457,0.9143c-0.149956,0.359961 -0.164237,0.426553 -0.229933,0.449951z"/>
    <path fill="#568B8C" d="m12.425761,6.329932c-0.042845,0.032397 -0.238502,0.172781 -0.31705,0.08999c-0.075692,-0.077392 0.031419,-0.26997 -0.05427,-0.475149c-0.072836,-0.174581 -0.194229,-0.145784 -0.237073,-0.305967c-0.034276,-0.133186 0.017138,-0.266371 0.087117,-0.439152c0.082833,-0.206978 0.178519,-0.340163 0.209938,-0.385158c0.247071,-0.356361 0.194229,-0.485947 0.399883,-0.822511c0.302768,-0.500345 0.479859,-0.325764 0.684085,-0.764917c0.155669,-0.334764 0.234217,-0.82791 0.238502,-0.851307c0.01571,-0.104389 0.032847,-0.239374 0.084261,-0.437352c0.065695,-0.250173 0.107112,-0.404956 0.215651,-0.489547c0.132818,-0.106189 0.297055,-0.053994 0.388457,-0.021598c0.398454,0.131386 0.606965,0.597535 0.654094,0.712722c0.134246,0.325764 0.138531,0.615533 0.142815,0.935898c0.004285,0.583137 -0.107112,1.018689 -0.265636,1.605425c-0.171378,0.64253 -0.35561,1.09968 -0.361322,1.096081c-0.004285,-0.0018 0.069979,-0.133186 0.034276,-0.196179c-0.10854,-0.194379 -1.282481,0.302367 -1.903727,0.748719l0.000001,0z"/>
   </g>
   <g>
    <path d="m1.953122,32.626872c0.081405,0.397757 2.286472,0.293368 2.931996,0.235774c0.145672,-0.014399 0.381317,-0.041395 0.479859,-0.167382c0.171378,-0.223176 -0.149956,-0.667727 -0.526988,-0.854907c-0.959718,-0.467949 -2.966272,0.390558 -2.884867,0.786514z"/>
    <path d="m5.102197,29.281036c-0.117108,0.332964 -2.584955,0.433753 -3.878861,-0.503945c-0.139959,-0.102589 -0.701223,-0.507545 -0.546982,-0.800913c0.128534,-0.244774 0.698367,-0.284369 0.824044,-0.291568c0.264208,-0.016198 0.851179,-0.014399 2.662076,0.975494c0.648381,0.354561 0.971144,0.534542 0.939724,0.620933l0,0z"/>
    <path d="m5.670602,24.812121c-0.165665,0.340163 -3.546102,-0.18898 -4.231615,-1.067284c-0.075692,-0.097189 -0.254211,-0.325764 -0.154241,-0.557939c0.065695,-0.152983 0.249926,-0.313166 0.47129,-0.350962c0.492712,-0.08999 0.678372,0.493146 1.682363,0.9143c0.731214,0.307767 1.212501,0.242973 1.879449,0.710923c0.23993,0.163782 0.391314,0.26997 0.352753,0.350962z"/>
    <path d="m6.278995,21.460886c-0.255639,0.404956 -3.877433,-0.116987 -4.081659,-1.038487c-0.018566,-0.088191 -0.048557,-0.361761 0.159953,-0.615533c0.049985,-0.062993 0.272777,-0.320365 0.629815,-0.381558c0.556979,-0.097189 0.751208,0.403156 2.113665,1.004291c0.215651,0.09539 0.558408,0.235774 0.861176,0.530942c0.181375,0.17998 0.389885,0.381558 0.31705,0.500345l0.000001,0z"/>
    <path d="m7.502921,17.170153c-0.415592,0.284369 -2.107952,-0.885504 -2.662076,-1.270662c-0.137103,-0.09539 -0.374176,-0.264571 -0.349897,-0.471549c0.021423,-0.194379 0.261352,-0.376159 0.512707,-0.439152c0.719789,-0.18178 1.613812,0.590336 1.957997,0.885504c0.352753,0.304167 0.526988,0.565139 0.585542,0.854907c0.03856,0.212377 0.069979,0.361761 -0.044273,0.440952l-0.000001,0z"/>
    <path d="m8.112742,13.343769c-0.311337,0.224975 -2.356451,-0.557939 -2.863445,-1.826801c-0.194229,-0.487747 -0.194229,-1.124878 0.082833,-1.205869c0.292771,-0.084591 0.825472,0.475149 1.331038,1.002491c0.646953,0.678526 1.73949,1.821402 1.449574,2.030179z"/>
    <path d="m9.305249,7.879564c-0.2942,0.208777 -2.323604,-0.559739 -2.517832,-1.702615c-0.048557,-0.286169 -0.005713,-0.73432 0.252783,-0.800913c0.44844,-0.118787 1.323897,0.970094 1.563826,1.268862c0.427018,0.530942 0.88831,1.10148 0.701223,1.234666z"/>
    <path d="m12.348641,6.513512c-0.192801,-0.295168 1.058261,-1.412846 2.089387,-1.157274c0.37132,0.09179 0.789768,0.381558 0.725501,0.633531c-0.137103,0.55254 -2.593524,0.865706 -2.814888,0.523743z"/>
    <path d="m13.962453,10.447884c-0.496997,-0.509345 -2.872014,-0.295168 -3.296175,0.611933c-0.132818,0.280769 -0.094258,0.669527 0.204226,0.887303c0.664091,0.487747 2.553536,0.09539 3.049105,-0.764917c0.055698,-0.097189 0.282774,-0.487747 0.042845,-0.73432z"/>
    <path d="m10.170709,16.793994c-0.164237,-0.473348 2.842023,-1.742211 3.496117,-1.28506c0.297055,0.206978 0.087117,0.750518 -0.199942,1.058285c-0.846894,0.905302 -3.163357,0.604734 -3.296175,0.226775z"/>
    <path d="m9.212419,21.307903c0.429874,-1.115879 2.433571,-0.817111 2.632084,-0.782915c0.202798,0.034196 0.531272,0.08999 0.54841,0.232175c0.018566,0.169181 -0.397026,0.419355 -0.785484,0.509345c-0.491284,0.113387 -0.598396,-0.104389 -1.0197,-0.048595c-0.779771,0.102589 -1.171085,0.946697 -1.376739,0.788314c-0.11568,-0.088191 -0.098543,-0.435553 0.001428,-0.698324l0,0z"/>
    <path d="m8.691143,24.228985c0.148528,-0.27717 0.828328,-0.280769 1.923721,-0.287969c0.606965,-0.005399 0.769774,0.034196 0.824044,0.118787c0.084261,0.134985 -0.13139,0.359961 -0.344184,0.480548c-0.177091,0.098989 -0.475575,0.120587 -1.068258,0.161982c-0.686941,0.046795 -1.03541,0.068392 -1.176797,-0.032397c-0.145672,-0.100789 -0.238502,-0.291568 -0.158525,-0.440952l-0.000001,0z"/>
    <path d="m8.094176,28.818486c0.037132,-0.124186 0.187088,-0.154783 1.409586,-0.444551c0.234217,-0.055794 0.441299,-0.104389 0.54841,-0.028797c0.11568,0.082791 0.049985,0.262772 0.03856,0.293368c-0.181375,0.466149 -1.339607,0.815311 -1.805184,0.527343c-0.124249,-0.079191 -0.229933,-0.221376 -0.191373,-0.347362l0,0z"/>
    <path d="m7.918513,32.202118c-0.067123,-0.266371 0.851179,-0.772116 1.348176,-0.584936c0.127105,0.048595 0.244214,0.147584 0.259924,0.262772c0.034276,0.264571 -0.482715,0.570538 -0.982569,0.556139c-0.227076,-0.005399 -0.586971,-0.080991 -0.625531,-0.233975z"/>
   </g>
  </g>
</svg>