<?xml version="1.0" encoding="utf-8"?>
<!-- Generator: Adobe Illustrator 23.0.1, SVG Export Plug-In . SVG Version: 6.00 Build 0)  -->
<svg version="1.1" xmlns="http://www.w3.org/2000/svg" xmlns:xlink="http://www.w3.org/1999/xlink"
	 x="0px" y="0px" viewBox="0 0 30 30" style="enable-background:new 0 0 30 30;" xml:space="preserve">
<g id="fleur">
	<path fill="#FDFDFD" d="M13.31,4.69c-0.25,0.35-0.27,0.74-0.32,1.11c-0.11,0.84-0.66,1.28-1.42,1.51c-0.36,0.11-0.74,0.15-1.11,0.23
		C9.64,7.74,8.85,8.15,8.52,8.89c-0.21,0.47-0.5,0.89-0.8,1.19c-0.6,0.61-0.78,1.43-1.31,2.06c-0.06,0.07-0.01,0.17,0.07,0.18
		c0.33,0.06,0.17,0.32,0.24,0.49c0.17,0.41-0.29,0.44-0.31,0.66c-0.09,0.72-0.05,1.44-0.14,2.17c-0.05,0.37,0.12,0.88,0.11,1.33
		c-0.02,0.75,0.27,1.4,0.57,2.06c0.14,0.3,0.51,0.43,0.52,0.77c0.01,0.55,0.23,1.06,0.26,1.62c0.04,0.62,0.54,1.11,0.98,1.54
		c0.21,0.2,0.31,0.39,0.29,0.66c-0.04,0.68,0.41,1.26,0.38,1.94c-0.01,0.18,0.19,0.17,0.29,0.26c0.59,0.54,1.48,0.1,2.07,0.64
		c0.02,0.02,0.1-0.03,0.15-0.05c0.91-0.24,1.44-1.02,2.14-1.54c0.23-0.17,0.35-0.61,0.57-0.92c0.6-0.86,1.28-1.67,1.83-2.57
		c0.03-0.05,0.1-0.11,0.14-0.1c0.75,0.18,0.8-0.63,1.19-0.94c0.19-0.15,0.61-0.13,0.64-0.5c0.08-0.83,0.47-1.59,0.59-2.41
		c0.05-0.37,0.22-0.37,0.42-0.16c0.31,0.34,0.68,0.29,1.08,0.31c0.39,0.02,0.51-0.26,0.76-0.4c0.6-0.36,1.49-0.3,1.66-1.24
		c0.02-0.1,0.17-0.1,0.26-0.09c0.39,0.06,0.58-0.18,0.74-0.47c0.28-0.53,0.45-1.09,0.54-1.69c0.11-0.7,0.09-1.48,0.88-1.89
		c0.29-0.15,0.28-0.34-0.04-0.5c-0.51-0.27-0.7-0.65-0.41-1.22c0.17-0.33,0.1-0.72-0.03-1.03c-0.28-0.66-0.35-1.39-0.66-2.04
		c-0.16-0.34-0.48-0.6-0.56-0.93C23.4,5.23,22.91,4.6,22.17,4.2c-0.59-0.32-1.33-0.35-1.92-0.6c-1.07-0.46-1.88,0.34-2.83,0.33
		c-0.12,0.51-0.55,0.22-0.82,0.31c-0.25,0.09-0.67-0.24-0.75,0.3c-0.01,0.07-0.14,0.07-0.19-0.01c-0.45-0.56-0.73-0.14-1.01,0.19
		C14.15,5.28,13.74,5.27,13.31,4.69z"/>
	<path fill="#050505" d="M13.31,4.69c0.44,0.59,0.84,0.59,1.32,0.03c0.28-0.32,0.56-0.75,1.01-0.19c0.06,0.07,0.18,0.08,0.19,0.01
		c0.09-0.54,0.5-0.21,0.75-0.3c0.28-0.1,0.7,0.2,0.82-0.31c0.95,0.01,1.76-0.79,2.83-0.33c0.6,0.25,1.33,0.28,1.92,0.6
		c0.74,0.4,1.24,1.03,1.45,1.88c0.08,0.33,0.4,0.59,0.56,0.93c0.32,0.65,0.38,1.37,0.66,2.04c0.13,0.31,0.2,0.7,0.03,1.03
		c-0.29,0.57-0.1,0.95,0.41,1.22c0.32,0.17,0.33,0.35,0.04,0.5c-0.79,0.41-0.77,1.18-0.88,1.89c-0.1,0.59-0.26,1.16-0.54,1.69
		c-0.16,0.3-0.35,0.54-0.74,0.47c-0.1-0.02-0.24-0.02-0.26,0.09c-0.17,0.94-1.06,0.88-1.66,1.24c-0.25,0.15-0.37,0.42-0.76,0.4
		c-0.4-0.02-0.77,0.04-1.08-0.31c-0.2-0.21-0.36-0.21-0.42,0.16c-0.12,0.82-0.51,1.58-0.59,2.41c-0.04,0.37-0.45,0.35-0.64,0.5
		c-0.38,0.31-0.44,1.11-1.19,0.94c-0.04-0.01-0.11,0.05-0.14,0.1c-0.55,0.9-1.23,1.71-1.83,2.57c-0.22,0.31-0.34,0.75-0.57,0.92
		c-0.71,0.52-1.24,1.3-2.14,1.54c-0.05,0.01-0.13,0.06-0.15,0.05c-0.59-0.54-1.48-0.1-2.07-0.64c-0.09-0.09-0.3-0.07-0.29-0.26
		C9.42,24.88,8.96,24.3,9,23.62c0.02-0.28-0.08-0.46-0.29-0.66c-0.44-0.44-0.94-0.93-0.98-1.54c-0.03-0.56-0.25-1.07-0.26-1.62
		c-0.01-0.34-0.38-0.47-0.52-0.77c-0.3-0.66-0.59-1.3-0.57-2.06c0.01-0.45-0.15-0.95-0.11-1.33c0.09-0.73,0.05-1.45,0.14-2.17
		c0.03-0.21,0.48-0.25,0.31-0.66c-0.07-0.17,0.09-0.43-0.24-0.49c-0.09-0.02-0.13-0.12-0.07-0.18c0.53-0.62,0.71-1.45,1.31-2.06
		c0.3-0.3,0.59-0.72,0.8-1.19c0.33-0.74,1.12-1.15,1.95-1.35c0.37-0.09,0.75-0.13,1.11-0.23c0.76-0.23,1.3-0.67,1.42-1.51
		C13.04,5.42,13.06,5.04,13.31,4.69z M9.82,10.27c-0.34,0-0.53,0.13-0.68,0.39c-0.21,0.37-0.23,0.82-0.36,1.17
		c-0.38,1.01-0.79,1.98-0.88,3.08c-0.02,0.21,0,0.57-0.35,0.7c-0.11,0.04-0.1,0.24,0.02,0.29c0.3,0.14,0.38,0.25,0.01,0.39
		c-0.17,0.07-0.17,0.24-0.13,0.36c0.16,0.43,0.35,0.86,0.53,1.29c0.26,0.6,0.55,1.19,0.76,1.8c0.2,0.59,0.28,1.22,0.48,1.81
		c0.18,0.53,0.64,0.91,0.8,1.5c0.08,0.3,0.31,0.59,0.4,0.95c0.06,0.25,0.08,0.61,0.59,0.67c0.86,0.1,1.31-0.64,2.02-0.82
		c0.04-0.01,0.04-0.15,0.06-0.22c0.3-0.74,0.57-1.47,1.13-2.09c0.27-0.3,0.57-0.57,0.85-0.85c0.38-0.38,0.72-0.77,1.17-1.11
		c0.42-0.31,0.57-0.96,1.12-1.22c0.02-0.01,0.05-0.08,0.04-0.11c-0.27-0.51,0.17-0.94,0.17-1.43c0-0.22,0.13-0.41,0.01-0.67
		c-0.15-0.31-0.62-0.71,0.04-1.02c0.07-0.03,0.01-0.15-0.05-0.2c-0.33-0.25-0.3-0.62-0.23-0.93c0.14-0.57-0.41-1.1-0.07-1.66
		c0.01-0.01-0.02-0.03-0.03-0.05c-0.03-0.52-0.58-0.78-0.68-1.3c-0.03-0.16-0.41-0.29-0.36-0.62c0.02-0.14-0.09-0.24-0.23-0.19
		c-0.38,0.16-0.61-0.12-0.86-0.28c-0.64-0.41-0.97-0.43-1.64-0.01c-0.41,0.26-0.78,0.19-0.96-0.28c-0.12-0.29-0.33-0.33-0.51-0.26
		c-0.47,0.18-0.91,0.45-1.39,0.03c-0.05-0.04-0.18,0.04-0.24,0.14c-0.21,0.34-0.56,0.42-0.93,0.43C9.48,10.18,9.7,10.11,9.82,10.27z
		 M23.72,9.42c0.2-0.3-0.32-0.52-0.43-0.87c-0.21-0.68-0.3-1.43-0.78-1.97c-0.27-0.3-0.22-0.74-0.44-0.96
		c-0.47-0.49-1.16-0.62-1.83-0.74c-0.73-0.13-1.41,0.14-2.08,0.32C18,5.24,17.83,4.97,17.67,5.25c-0.22,0.39-0.81,0.23-1.08,0.59
		c-0.47-0.4-0.94,0.06-1.41,0.03c-0.42-0.03-0.9,0.03-0.97,0.62c-0.04,0.3-0.25,0.32-0.48,0.3C13.58,6.79,13.44,6.8,13.43,7
		c-0.01,0.17,0,0.33,0.22,0.35c0.49,0.05,0.86,0.54,1.42,0.38c0.28-0.08,0.42,0.41,0.67,0.29c0.4-0.2,0.41,0.02,0.5,0.3
		c0.05,0.16,0.2,0.31,0.34,0.4c1.01,0.7,1.55,1.68,1.89,2.84c0.18,0.63,0.3,1.39,0.66,1.84c0.59,0.72,0.77,1.54,1.05,2.35
		c0.1,0.28,0.2,0.35,0.46,0.18c0.63-0.41,1.43-0.63,1.55-1.55c0.01-0.05,0.11-0.1,0.18-0.13c0.26-0.09,0.3-0.3,0.39-0.53
		c0.28-0.74,0.53-1.48,0.64-2.26C23.47,10.84,23.59,10.23,23.72,9.42z"/>
	<path fill="#48707B" d="M9.82,10.27c-0.12-0.16-0.33-0.09-0.35-0.33c0.36-0.01,0.71-0.09,0.93-0.43c0.06-0.09,0.19-0.18,0.24-0.14
		c0.48,0.42,0.92,0.16,1.39-0.03c0.18-0.07,0.4-0.03,0.51,0.26c0.19,0.47,0.55,0.54,0.96,0.28c0.67-0.43,1-0.41,1.64,0.01
		c0.25,0.16,0.48,0.45,0.86,0.28c0.14-0.06,0.25,0.05,0.23,0.19c-0.05,0.34,0.33,0.47,0.36,0.62c0.1,0.52,0.65,0.77,0.68,1.3
		c0,0.02,0.03,0.04,0.03,0.05c-0.34,0.56,0.21,1.09,0.07,1.66c-0.08,0.31-0.1,0.68,0.23,0.93c0.06,0.05,0.12,0.17,0.05,0.2
		c-0.66,0.32-0.19,0.71-0.04,1.02c0.12,0.26-0.01,0.45-0.01,0.67c0,0.49-0.44,0.92-0.17,1.43c0.01,0.02-0.01,0.1-0.04,0.11
		c-0.55,0.26-0.7,0.91-1.12,1.22c-0.45,0.33-0.79,0.73-1.17,1.11c-0.28,0.28-0.58,0.55-0.85,0.85c-0.56,0.62-0.83,1.35-1.13,2.09
		c-0.03,0.07-0.03,0.21-0.06,0.22c-0.71,0.18-1.16,0.92-2.02,0.82c-0.51-0.06-0.53-0.42-0.59-0.67c-0.09-0.36-0.31-0.65-0.4-0.95
		c-0.16-0.58-0.61-0.97-0.8-1.5c-0.2-0.59-0.28-1.22-0.48-1.81c-0.21-0.62-0.5-1.2-0.76-1.8c-0.18-0.43-0.37-0.85-0.53-1.29
		c-0.04-0.12-0.05-0.29,0.13-0.36c0.37-0.14,0.29-0.25-0.01-0.39c-0.13-0.06-0.13-0.25-0.02-0.29c0.35-0.13,0.34-0.48,0.35-0.7
		c0.09-1.1,0.5-2.07,0.88-3.08c0.13-0.36,0.15-0.8,0.36-1.17C9.28,10.4,9.47,10.28,9.82,10.27z"/>
	<path fill="#B59767" d="M23.72,9.42c-0.14,0.8-0.25,1.41-0.34,2.03c-0.11,0.79-0.36,1.52-0.64,2.26c-0.09,0.24-0.13,0.44-0.39,0.53
		c-0.07,0.02-0.17,0.08-0.18,0.13c-0.12,0.92-0.92,1.15-1.55,1.55c-0.26,0.17-0.36,0.1-0.46-0.18c-0.27-0.81-0.46-1.62-1.05-2.35
		c-0.36-0.44-0.48-1.21-0.66-1.84c-0.34-1.16-0.88-2.14-1.89-2.84c-0.14-0.1-0.29-0.25-0.34-0.4c-0.08-0.28-0.1-0.5-0.5-0.3
		c-0.25,0.12-0.38-0.37-0.67-0.29c-0.56,0.15-0.93-0.33-1.42-0.38C13.43,7.33,13.42,7.17,13.43,7c0.01-0.2,0.15-0.21,0.29-0.2
		c0.24,0.02,0.44,0,0.48-0.3c0.08-0.59,0.55-0.65,0.97-0.62c0.48,0.03,0.94-0.43,1.41-0.03c0.27-0.36,0.86-0.2,1.08-0.59
		C17.83,4.97,18,5.24,18.16,5.2c0.67-0.18,1.35-0.45,2.08-0.32c0.67,0.12,1.35,0.25,1.83,0.74c0.22,0.23,0.17,0.66,0.44,0.96
		c0.49,0.55,0.57,1.29,0.78,1.97C23.4,8.91,23.93,9.12,23.72,9.42z"/>
</g>
</svg>
