<?xml version="1.0" encoding="utf-8"?>
<!-- Generator: Adobe Illustrator 23.0.1, SVG Export Plug-In . SVG Version: 6.00 Build 0)  -->
<svg version="1.1" xmlns="http://www.w3.org/2000/svg" xmlns:xlink="http://www.w3.org/1999/xlink"
	 x="0px" y="0px" viewBox="0 0 30 30" style="enable-background:new 0 0 30 30;" xml:space="preserve">
<g id="fleur">
	<path fill="#FDFDFD" d="M9.61,9.95c-0.3,0.25-0.31,0.86-0.01,0.87c0.7,0.03,0.42,0.6,0.58,0.9c0.12,0.23,0.07,0.49-0.24,0.68
		c-0.24,0.15-0.34,0.45-0.32,0.78c0.01,0.19-0.03,0.38-0.09,0.58c-0.19,0.6-0.38,1.21-0.49,1.82c-0.1,0.55,0.23,1.05,0.46,1.5
		c0.2,0.39-0.05,0.61-0.15,0.77c-0.26,0.42,0.4,0.44,0.24,0.8c-0.28,0.64-0.41,1.3-0.02,1.96c0.04,0.07,0.03,0.26-0.01,0.28
		c-0.5,0.25-0.17,0.59-0.1,0.89c0.11,0.51,0.26,1,0.47,1.49c0.28,0.64,0.42,0.79,1.05,0.42c0.18-0.11,0.42-0.15,0.51-0.38
		c0.04-0.1,0.06-0.2,0.19-0.16c0.13,0.04,0.1,0.16,0.09,0.25c-0.04,0.46,0.17,0.8,0.42,1.17C12.37,24.81,13,25,12.53,25.5
		c-0.01,0.01,0.11,0.11,0.12,0.18c0.14,0.77,0.86,1.02,1.32,1.5c0.61,0.63,1.21,0.54,1.74-0.14c0.28-0.36,0.63-0.64,0.54-1.15
		c-0.02-0.11,0.05-0.2,0.15-0.23c0.37-0.13,0.37-0.48,0.45-0.78c0.2-0.75,0.29-1.56,0.64-2.23c0.21-0.41,0.07-0.43-0.18-0.54
		c-0.1-0.05-0.26-0.01-0.23-0.19c0.02-0.13,0.15-0.09,0.24-0.11c0.37-0.07,0.68-0.2,0.73-0.64c0.01-0.11,0.08-0.2,0.18-0.21
		c0.46-0.01,0.58-0.42,0.73-0.71c0.27-0.54,0.34-1.17,0.86-1.59c0.12-0.1,0.17-0.35,0.18-0.53c0-0.61,0.2-0.83,0.81-0.86
		c0.13-0.01,0.26,0.03,0.39-0.1c0.45-0.46,0.94-0.85,1.34-1.4c0.81-1.1,0.53-2.28,0.44-3.41c-0.04-0.45-0.24-0.93-0.21-1.42
		c0.08-1.02-0.18-2.03,0-3.04c0.06-0.31-0.39-0.21-0.36-0.47c0.06-0.44-0.13-0.85-0.19-1.28c-0.09-0.63-0.27-1.24-0.59-1.83
		c-0.4-0.74-1.29-0.83-1.75-1.46c-0.05-0.07-0.26,0-0.34-0.06c-0.31-0.26-1.06,0.2-1.02-0.62c0-0.02-0.09-0.05-0.14-0.08
		c-0.74-0.36-1.44-0.32-2.1,0.1c-0.09,0.06-0.2,0.04-0.23-0.09c-0.03-0.11-0.15-0.22-0.19-0.16c-0.29,0.42-0.82,0.32-1.18,0.59
		c-0.66,0.5-1.3,1.04-2.01,1.48c-0.75,0.47-1.04,1.34-1.6,1.99c-0.24,0.27-0.09,0.74-0.29,0.96c-0.42,0.44-0.64,0.97-0.89,1.49
		c-0.2,0.42-0.4,0.9-0.2,1.4C9.67,9.89,9.64,9.92,9.61,9.95z"/>
	<path fill="#060606" d="M9.69,9.87c-0.2-0.5,0-0.98,0.2-1.4c0.25-0.51,0.47-1.05,0.89-1.49c0.2-0.21,0.06-0.68,0.29-0.96
		c0.56-0.64,0.84-1.52,1.6-1.99c0.71-0.44,1.34-0.98,2.01-1.48c0.36-0.27,0.9-0.17,1.18-0.59c0.04-0.07,0.16,0.05,0.19,0.16
		c0.03,0.13,0.14,0.15,0.23,0.09c0.66-0.42,1.37-0.45,2.1-0.1c0.05,0.02,0.14,0.05,0.14,0.08c-0.04,0.82,0.71,0.37,1.02,0.62
		c0.08,0.06,0.29,0,0.34,0.06c0.46,0.63,1.34,0.72,1.75,1.46c0.32,0.59,0.5,1.2,0.59,1.83c0.06,0.42,0.25,0.83,0.19,1.28
		c-0.04,0.25,0.41,0.15,0.36,0.47c-0.18,1.01,0.08,2.02,0,3.04c-0.04,0.48,0.17,0.97,0.21,1.42c0.1,1.13,0.37,2.31-0.44,3.41
		c-0.4,0.55-0.89,0.94-1.34,1.4c-0.12,0.12-0.25,0.09-0.39,0.1C20.19,17.3,20,17.52,20,18.13c0,0.18-0.05,0.43-0.18,0.53
		c-0.52,0.42-0.59,1.05-0.86,1.59c-0.15,0.29-0.26,0.7-0.73,0.71c-0.1,0-0.17,0.1-0.18,0.21c-0.05,0.44-0.36,0.57-0.73,0.64
		c-0.09,0.02-0.22-0.02-0.24,0.11c-0.03,0.18,0.13,0.14,0.23,0.19c0.25,0.11,0.39,0.13,0.18,0.54c-0.35,0.67-0.43,1.48-0.64,2.23
		c-0.08,0.3-0.08,0.64-0.45,0.78c-0.1,0.03-0.17,0.13-0.15,0.23c0.09,0.52-0.26,0.79-0.54,1.15c-0.54,0.68-1.13,0.77-1.74,0.14
		c-0.46-0.48-1.18-0.73-1.32-1.5c-0.01-0.07-0.13-0.17-0.12-0.18c0.47-0.5-0.16-0.69-0.32-0.93c-0.25-0.37-0.46-0.71-0.42-1.17
		c0.01-0.09,0.04-0.21-0.09-0.25c-0.13-0.04-0.15,0.06-0.19,0.16c-0.09,0.22-0.32,0.27-0.51,0.38c-0.64,0.37-0.78,0.23-1.05-0.42
		c-0.21-0.49-0.36-0.98-0.47-1.49c-0.07-0.3-0.4-0.64,0.1-0.89c0.04-0.02,0.05-0.21,0.01-0.28c-0.39-0.66-0.27-1.32,0.02-1.96
		c0.16-0.35-0.5-0.38-0.24-0.8c0.1-0.16,0.35-0.38,0.15-0.77c-0.23-0.45-0.55-0.95-0.46-1.5c0.11-0.62,0.29-1.22,0.49-1.82
		c0.06-0.2,0.1-0.39,0.09-0.58c-0.02-0.32,0.08-0.63,0.32-0.78c0.31-0.19,0.36-0.45,0.24-0.68c-0.16-0.3,0.12-0.88-0.58-0.9
		c-0.3-0.01-0.29-0.62,0.01-0.87c0.03,0.02,0.07,0.07,0.08,0.06C9.75,9.97,9.74,9.92,9.69,9.87z M16.82,22.01
		c-0.18-0.45-0.29-0.86,0-1.27c0.22-0.31,0.1-1,0.84-0.75c0.12,0.04,0.12-0.12,0.14-0.22c0.13-0.55,0.57-1.06,0.47-1.62
		c-0.11-0.59,1.01-0.77,0.4-1.43c0.56-0.77,0.01-1.57-0.02-2.34c-0.02-0.49,0.02-0.98,0.02-1.47c0-0.44,0.41-0.5,0.7-0.63
		c0.22-0.1,0.45,0.1,0.47,0.26c0.08,0.63,0.56,1.18,0.4,1.87c-0.07,0.3,0.01,0.64-0.02,0.96c-0.03,0.34,0.27,0.4,0.45,0.47
		c0.24,0.09,0.33-0.18,0.34-0.36c0.02-0.33,0.27-0.48,0.46-0.67c0.47-0.45,0.61-1.38,0.29-1.93c-0.12-0.21-0.43-0.46,0.06-0.64
		c0.08-0.03,0.07-0.17-0.01-0.19c-0.41-0.12-0.28-0.46-0.25-0.7c0.09-0.68-0.02-1.37-0.25-1.94c-0.36-0.91-0.37-1.85-0.44-2.76
		c-0.1-1.19-0.52-1.99-1.6-2.48c-0.44-0.2-0.91-0.37-1.31-0.59c-1.16-0.63-1.35-0.39-2.13,0.46c-0.35,0.38-0.43,0.35-0.7,0.04
		c-0.07-0.08-0.1-0.23-0.29-0.21c-0.04,0.45-0.59,0.45-0.75,0.81c-0.17,0.37-0.47,0.59-0.78,0.84c-0.49,0.41-1.01,0.85-1.26,1.49
		c-0.22,0.59-0.59,1.1-0.95,1.61c-0.21,0.3-0.37,0.75-0.19,1.01c0.2,0.27,0.9,0.06,0.96-0.01c0.41-0.49,1.03-0.72,1.41-1.24
		c0.21-0.28,0.56-0.56,1.09-0.3c0.5,0.25,0.08,0.43,0.08,0.65c0,0.08,0.08,0.17,0.15,0.24c0.13,0.14,0.06,0.32-0.02,0.38
		c-0.45,0.32-0.85,0.69-1.28,1.02c-0.49,0.37-0.98,0.66-1.43,1.14c-0.87,0.92-1,2.03-1.25,3.14c-0.2,0.88,0.17,1.76-0.03,2.65
		c-0.12,0.56,0.32,1.17,0.16,1.65c-0.27,0.79-0.03,1.53-0.05,2.29c0,0.09,0.19,0.24,0.24,0.08c0.14-0.4,0.65-0.63,0.59-1.06
		c-0.11-0.87,0.57-1.46,0.67-2.29c0.12-1.07,0.86-1.99,1.43-2.91c0.16-0.27,0.5-0.51,0.86-0.39c0.34,0.11,0.36,0.38,0.16,0.67
		c-0.02,0.03,0,0.13,0.03,0.16c0.38,0.45-0.02,0.8-0.25,1.03c-0.29,0.31-0.42,0.68-0.53,1.02c-0.1,0.32-0.92,0.32-0.4,0.89
		c0,0-0.07,0.1-0.11,0.11c-0.29,0.04-0.23,0.27-0.25,0.46c-0.08,0.67-0.07,1.36-0.27,2c-0.29,0.94,0.07,1.73,0.41,2.53
		c0.27,0.62,0.66,1.19,0.78,1.87c0.07,0.4,0.44,0.35,0.67,0.49c0.18,0.11,0.38-0.12,0.43-0.31c0.15-0.61,0.45-1.16,0.7-1.73
		c0.08-0.18,0.07-0.35,0.03-0.52C15.7,22.39,15.87,22.12,16.82,22.01z"/>
	<path fill="#98986C" d="M16.82,22.01c-0.94,0.12-1.12,0.38-0.91,1.32c0.04,0.17,0.05,0.34-0.03,0.52c-0.25,0.57-0.56,1.12-0.7,1.73
		c-0.05,0.19-0.25,0.42-0.43,0.31c-0.23-0.14-0.6-0.09-0.67-0.49c-0.12-0.68-0.51-1.25-0.78-1.87c-0.34-0.8-0.71-1.58-0.41-2.53
		c0.2-0.63,0.19-1.33,0.27-2c0.02-0.19-0.04-0.42,0.25-0.46c0.04-0.01,0.11-0.11,0.11-0.11c-0.52-0.57,0.3-0.57,0.4-0.89
		c0.11-0.35,0.25-0.72,0.53-1.02c0.22-0.24,0.62-0.58,0.25-1.03c-0.03-0.04-0.05-0.13-0.03-0.16c0.2-0.29,0.18-0.56-0.16-0.67
		c-0.36-0.12-0.7,0.12-0.86,0.39c-0.57,0.93-1.3,1.84-1.43,2.91c-0.1,0.83-0.78,1.43-0.67,2.29c0.05,0.44-0.45,0.66-0.59,1.06
		c-0.06,0.16-0.25,0.02-0.24-0.08c0.02-0.76-0.22-1.5,0.05-2.29c0.17-0.48-0.28-1.08-0.16-1.65c0.2-0.89-0.18-1.78,0.03-2.65
		c0.26-1.1,0.38-2.21,1.25-3.14c0.45-0.48,0.94-0.77,1.43-1.14c0.43-0.32,0.83-0.7,1.28-1.02c0.08-0.06,0.14-0.24,0.02-0.38
		c-0.06-0.07-0.15-0.16-0.15-0.24c0-0.21,0.41-0.4-0.08-0.65c-0.53-0.26-0.87,0.01-1.09,0.3c-0.39,0.52-1.01,0.75-1.41,1.24
		c-0.06,0.07-0.76,0.28-0.96,0.01c-0.19-0.25-0.02-0.71,0.19-1.01c0.36-0.51,0.73-1.02,0.95-1.61c0.24-0.64,0.76-1.08,1.26-1.49
		c0.3-0.26,0.61-0.47,0.78-0.84c0.16-0.36,0.71-0.36,0.75-0.81c0.18-0.02,0.22,0.13,0.29,0.21c0.27,0.31,0.35,0.34,0.7-0.04
		c0.78-0.85,0.97-1.08,2.13-0.46c0.4,0.22,0.87,0.38,1.31,0.59c1.08,0.49,1.5,1.29,1.6,2.48c0.08,0.91,0.09,1.85,0.44,2.76
		c0.22,0.57,0.34,1.27,0.25,1.94c-0.03,0.23-0.16,0.58,0.25,0.7c0.08,0.02,0.09,0.16,0.01,0.19c-0.49,0.18-0.18,0.43-0.06,0.64
		c0.32,0.56,0.18,1.48-0.29,1.93c-0.19,0.19-0.44,0.33-0.46,0.67c-0.01,0.18-0.1,0.45-0.34,0.36c-0.18-0.07-0.48-0.13-0.45-0.47
		c0.02-0.32-0.05-0.65,0.02-0.96c0.16-0.7-0.32-1.24-0.4-1.87c-0.02-0.16-0.25-0.36-0.47-0.26c-0.29,0.13-0.7,0.19-0.7,0.63
		c0,0.49-0.04,0.98-0.02,1.47c0.03,0.77,0.58,1.57,0.02,2.34c0.61,0.67-0.52,0.84-0.4,1.43c0.11,0.56-0.33,1.07-0.47,1.62
		c-0.02,0.09-0.03,0.26-0.14,0.22c-0.74-0.25-0.62,0.44-0.84,0.75C16.52,21.14,16.64,21.55,16.82,22.01z"/>
	<path fill="#FDFDFD" d="M9.69,9.87c0.04,0.05,0.06,0.1-0.01,0.14c-0.01,0.01-0.05-0.04-0.08-0.06C9.64,9.92,9.67,9.89,9.69,9.87z"/>
</g>
</svg>
