<svg width="14" height="40" xmlns="http://www.w3.org/2000/svg">
  <g id="fleur">
   <g>
    <path d="m6.888226,39.379712c-1.540082,0.961863 -3.866054,-3.367561 -4.808221,-5.512456c-1.055405,-2.401526 -1.666909,-3.862056 -1.463077,-6.491009c0.120035,-1.556509 0.523178,-3.062937 1.327187,-6.075804c1.037288,-3.885005 1.503842,-4.385759 1.943219,-6.952119c0.106447,-0.619683 0.28537,-1.792279 0.74286,-4.502605c0.235542,-1.406278 0.396346,-2.301375 1.062202,-3.707658c0.42579,-0.897181 1.132414,-2.159497 2.491307,-3.686792c0.869692,-0.97647 1.352101,-1.521035 1.961337,-1.834007c1.685031,-0.867972 2.824237,0.801202 3.227375,2.000923c0.246862,0.730265 -0.507323,2.094819 -0.489201,5.668941c0.018117,3.567868 -0.278573,3.703487 -0.505056,5.679372c-0.305754,2.660251 -0.638679,3.075461 -1.078057,5.885933c-0.201569,1.297789 -0.287632,1.11209 -1.032759,4.404542c-0.912723,4.035231 -0.817602,3.668013 -1.25245,5.938097c-0.704358,3.657583 -1.068993,3.895441 -0.799479,4.8114c0.19251,0.65098 0.749656,1.990492 0.079266,3.569951c-0.240071,0.577955 -0.985198,0.540399 -1.406453,0.80329z"/>
   </g>
   <g>
    <path fill="#49717C" d="m11.972752,1.591645c-0.47335,0.229511 -0.269514,0.905529 -0.534499,1.642053c-0.260456,0.730265 -0.835719,1.374981 -1.100704,2.103162c-0.040764,0.11267 -0.147212,0.377649 -0.011321,0.609247c0.142682,0.244118 0.520906,0.150226 0.215157,1.312391c-0.559413,2.12194 -0.908194,2.658163 -1.136944,5.399786c-0.090592,1.097483 0.169863,0.859624 -0.097384,2.441171c-0.28537,1.69004 -0.321609,2.710326 -0.341989,2.950268c-0.018122,0.229511 -0.559413,1.310303 -0.548087,2.389012c0.01585,1.644136 -0.115506,1.994664 -0.187981,3.046247c-0.067945,1.020281 0.006792,1.625358 -0.187981,2.418216c-0.502794,2.046827 -0.804013,4.327341 -1.114292,8.834118c-0.122303,1.77976 0.539029,1.285265 0.727004,2.176192c0.029443,0.135619 0.360111,0.26915 0.244605,-0.452767c-0.058887,-0.363047 -0.074742,-0.742784 -0.169863,-0.811637c-0.575263,-0.413122 0.018117,-2.113593 0.552617,-3.713918c0.516377,-1.537731 0.158538,-1.180943 0.74286,-4.060274c0.579798,-2.848029 1.598968,-6.259411 2.22406,-10.376019c0.745127,-4.913639 0.251392,-4.769672 0.382753,-6.52439c0.08833,-1.153822 0.532232,-3.912136 0.82666,-6.036164c0.303487,-2.192877 -0.027176,-3.572034 -0.484671,-3.346695z"/>
   </g>
   <g>
    <path fill="#9B9A6D" d="m7.834921,38.647364c0.79042,-0.76365 -0.493735,-1.477224 -1.050881,-3.037905c-0.314808,-0.888833 -0.086063,-1.187203 0.278573,-5.347623c0.264985,-3.021209 0.106447,-2.424481 0.330668,-4.625706c0.231007,-2.267995 0.532232,-4.191722 0.88328,-6.455541c0.425785,-2.735364 0.423522,-2.353539 0.54582,-3.388427c0.509585,-4.243881 -0.2446,-3.851625 0.468821,-6.134227c0.502789,-1.610756 1.170911,-2.743707 0.591119,-3.342523c-0.169863,-0.175264 -0.609241,-0.469457 -0.233279,-1.143387c0.203836,-0.365135 0.484671,-0.548741 0.890076,-1.126697c0.113239,-0.16274 0.520911,-0.751126 0.636417,-1.293608c0.154008,-0.721922 -0.19704,-1.374985 -0.985198,-1.084969c-0.287637,0.10641 -0.554884,0.3088 -0.656802,0.386001c-0.575263,0.438155 -0.910456,0.995244 -0.921782,1.312386c-0.006797,0.175264 0.083801,0.221168 0.219686,0.350528c0.233279,0.221168 0.346518,0.534139 0.523178,0.797035c0.396341,0.59464 -0.310284,2.49333 -0.604712,3.436415c-0.321604,1.024458 0,0.396432 -0.561675,4.041496c-0.258188,1.679609 -0.287632,1.552333 -0.665856,3.922562c-0.278573,1.729685 -0.294428,2.003011 -0.514115,3.204821c-0.165334,0.897181 -0.219691,1.095395 -0.604712,2.994084c-0.464287,2.280514 -0.697561,3.419725 -0.770036,3.920479c-0.151746,1.078704 -0.065683,0.918047 -0.321604,3.857884c-0.190248,2.161585 -0.226483,2.130288 -0.22875,2.741623c-0.002262,0.824156 0.106447,1.629534 0.323872,3.238201c0.344251,2.53715 0.30122,0.926395 0.434843,2.030137c0.097389,0.805378 0.090592,1.416713 0.792688,1.314479c0.312546,-0.045904 0.871959,-0.248294 1.20036,-0.56752z"/>
   </g>
   <g>
    <path fill="#49717C" d="m4.904237,36.861345c0.233279,-0.156486 -0.221948,-1.285265 -0.360106,-3.611684c-0.038502,-0.642633 -0.033973,-1.397935 -0.024909,-2.910623c0.009059,-1.523124 0.01585,-2.284685 0.061149,-2.814648c0.117768,-1.333258 0.319337,-1.842354 0.867424,-4.477567c0.308016,-1.477219 0.493735,-2.524632 0.747394,-3.945516c0.788158,-4.404538 0.498259,-3.839106 0.881018,-5.128548c0.668123,-2.27425 1.277359,-3.071285 0.892338,-3.895441c-0.181184,-0.392256 -0.554884,-0.726088 -0.253659,-1.608667c0.215157,-0.623854 0.543558,-0.88675 0.844778,-1.733856c0.28537,-0.809549 0.24913,-1.320739 0.219686,-1.531471c-0.067945,-0.496578 -0.287632,-0.751131 -0.491468,-0.982725c-0.283102,-0.32549 -0.423517,-0.488235 -0.65,-0.379742c-0.541296,0.256636 -1.238862,1.65666 -1.564996,2.491246c-0.237804,0.611336 -0.285364,0.932654 -0.450699,1.831924c-0.412197,2.253388 -0.455228,2.063517 -0.600177,3.108841c-0.183451,1.32491 -0.056619,1.187203 -0.2446,2.393179c-0.181184,1.166341 -0.430319,2.1282 -0.577531,2.689465c-0.228745,0.870055 -0.341989,1.166336 -0.801746,2.664422c-0.231012,0.755302 -0.672652,2.186618 -1.084849,3.68262c-0.539029,1.946676 -0.806281,2.921059 -0.896873,3.780683c-0.144949,1.368726 0.004529,2.295121 0.10418,2.887678c0.110977,0.646804 0.199307,0.784511 0.736068,2.361882c0.727009,2.142807 0.901402,2.875159 1.558199,3.930909c0.163067,0.267072 0.844778,1.360383 1.089383,1.197638l-0.000005,0z"/>
   </g>
   <g>
    <path d="m2.134362,33.276787c0.067945,0.404775 1.893391,0.292105 2.425623,0.231599c0.120035,-0.014607 0.314813,-0.043816 0.396346,-0.173176c0.142682,-0.229516 -0.12457,-0.678106 -0.439378,-0.865889c-0.797217,-0.473628 -2.452805,0.406863 -2.382592,0.807466z"/>
    <path d="m4.729849,29.869581c-0.095127,0.338009 -2.137997,0.446502 -3.209257,-0.502842c-0.117768,-0.104322 -0.579793,-0.515356 -0.455228,-0.811637c0.106447,-0.248289 0.577531,-0.290017 0.681711,-0.298364c0.219686,-0.018778 0.704363,-0.018778 2.205937,0.984813c0.532237,0.358875 0.801746,0.538311 0.776837,0.628031z"/>
    <path d="m5.18281,25.327331c-0.138153,0.344268 -2.932947,-0.183607 -3.503681,-1.076616c-0.063416,-0.100151 -0.210628,-0.33175 -0.131356,-0.569608c0.054352,-0.156486 0.206098,-0.317143 0.38955,-0.35887c0.407667,-0.08972 0.563937,0.498666 1.395127,0.92639c0.604712,0.310883 1.00332,0.244118 1.558199,0.715663c0.199307,0.175264 0.326134,0.281674 0.292161,0.363042z"/>
    <path d="m5.674278,21.920126c-0.20836,0.413122 -3.20699,-0.110582 -3.379116,-1.047407c-0.018117,-0.08972 -0.040764,-0.367218 0.131361,-0.628026c0.040764,-0.062594 0.226483,-0.32549 0.518644,-0.388084c0.459757,-0.100151 0.622824,0.406863 1.750709,1.01611c0.178922,0.09598 0.462024,0.237858 0.713416,0.536222c0.154008,0.187783 0.326139,0.392256 0.264985,0.511185z"/>
    <path d="m6.675331,17.559404c-0.344251,0.287934 -1.74618,-0.897186 -2.205937,-1.285265c-0.113244,-0.09598 -0.310284,-0.267072 -0.292161,-0.477804c0.018117,-0.198213 0.215157,-0.383908 0.421255,-0.448591c0.595648,-0.185695 1.336245,0.596729 1.621615,0.897181c0.292161,0.3088 0.43711,0.573779 0.486933,0.865889c0.03624,0.216992 0.061154,0.369301 -0.031705,0.448591z"/>
    <path d="m7.166799,13.670223c-0.258193,0.229511 -1.950016,-0.56126 -2.373538,-1.848614c-0.163067,-0.494495 -0.165329,-1.143387 0.063416,-1.226847c0.240071,-0.085544 0.683978,0.479888 1.102971,1.016115c0.539029,0.688532 1.444955,1.846526 1.207151,2.059346z"/>
    <path d="m8.133874,8.116039c-0.2446,0.210732 -1.92283,-0.561265 -2.088164,-1.725513c-0.040769,-0.292105 -0.006797,-0.744872 0.206098,-0.815808c0.369165,-0.121017 1.100704,0.982725 1.295476,1.285265c0.360111,0.540394 0.742865,1.120432 0.586589,1.256056z"/>
    <path d="m10.647832,6.720187c-0.160805,-0.300452 0.869692,-1.43758 1.723528,-1.180943c0.308016,0.093891 0.654535,0.385996 0.602445,0.64055c-0.113244,0.565431 -2.142526,0.888833 -2.325973,0.540394z"/>
    <path d="m11.995399,10.715779c-0.412197,-0.517444 -2.375801,-0.292105 -2.724581,0.628031c-0.10871,0.285845 -0.077004,0.680189 0.172126,0.901352c0.550354,0.494495 2.113083,0.08972 2.52075,-0.784511c0.045294,-0.100151 0.231012,-0.496583 0.031705,-0.744872z"/>
    <path d="m8.881268,17.169232c-0.138153,-0.479888 2.34409,-1.775584 2.887648,-1.314474c0.246868,0.208644 0.074742,0.761562 -0.163067,1.076616c-0.697566,0.924307 -2.613604,0.621771 -2.724581,0.237858z"/>
    <path d="m8.102168,21.759469c0.351048,-1.135039 2.008898,-0.836675 2.171964,-0.801206c0.167596,0.033385 0.439378,0.087632 0.455233,0.235775c0.018117,0.173176 -0.326139,0.425636 -0.650005,0.519527c-0.405405,0.116846 -0.49373,-0.104322 -0.844783,-0.047987c-0.645471,0.10641 -0.964813,0.963952 -1.136939,0.801206c-0.090592,-0.087632 -0.077004,-0.440248 0.004529,-0.707315z"/>
    <path d="m7.680913,24.728515c0.120035,-0.281674 0.683973,-0.287929 1.589904,-0.298364c0.502789,-0.006259 0.636417,0.033385 0.681711,0.121017c0.067945,0.135619 -0.10871,0.367218 -0.285364,0.490318c-0.144949,0.102239 -0.394079,0.125189 -0.883285,0.166921c-0.568467,0.050075 -0.856104,0.073025 -0.973872,-0.029214c-0.120035,-0.104322 -0.194777,-0.298364 -0.129094,-0.450679z"/>
    <path d="m7.200771,29.391777c0.029438,-0.127272 0.154008,-0.158569 1.166382,-0.45485c0.194772,-0.056335 0.364636,-0.10641 0.455228,-0.029209c0.095121,0.083456 0.040769,0.267067 0.031711,0.298364c-0.147217,0.473628 -1.1075,0.832504 -1.492521,0.536222c-0.10418,-0.077196 -0.19251,-0.223251 -0.1608,-0.350528z"/>
    <path d="m7.06488,32.83028c-0.056619,-0.271238 0.702095,-0.786599 1.11203,-0.596729c0.106442,0.047987 0.203831,0.150226 0.217419,0.264984c0.029443,0.267067 -0.398608,0.580038 -0.810805,0.569608c-0.187981,-0.006259 -0.484671,-0.081373 -0.518644,-0.237858l0,-0.000005z"/>
   </g>
 </g>
</svg>