<svg width="22" height="20" xmlns="http://www.w3.org/2000/svg">
  <g id="fleur">
    <path d="m11.730157,17.084561l-1.365017,1.141964c0,0 -1.767995,0.816344 -2.576789,0.816344c-0.808794,0 -2.476044,-0.21708 -2.476044,-0.21708s-1.365017,-0.380655 -1.969484,-1.169481c-0.607305,-0.788827 -1.010283,-3.182824 -0.959201,-4.870546c0.051082,-1.687722 2.324218,-2.504066 2.324218,-2.504066l1.264273,-0.654298l-3.587072,-0.32562c0,0 -1.667251,0.21708 -2.122729,-1.305539c-0.455479,-1.524148 0.858457,-2.993261 0.858457,-2.993261s0.808794,-0.762838 1.919821,-1.305539s3.032268,-0.871378 3.435246,-0.924884c0.402978,-0.055034 1.566506,0.43416 2.172392,0.762838c0.607305,0.32562 1.16069,2.068377 1.16069,2.068377s0.201489,-0.654298 0.252571,-1.196999c0.051082,-0.544229 0.505141,-1.687722 0.708049,-2.013342c0.201489,-0.32562 0.455479,-0.654298 0.959201,-0.816344c0.503723,-0.163575 1.264273,-0.32562 2.020566,-0.43416c0.757712,-0.10854 2.324218,-0.183448 3.133012,-0.272115c0.808794,-0.088667 0.909538,0.599264 2.020566,1.415608c1.111027,0.816344 1.767995,1.141964 1.616169,2.176917c-0.151826,1.033424 -0.455479,2.285457 -1.16069,3.101801c-0.70663,0.816344 -1.819077,1.415608 -3.233757,1.579182c-1.41468,0.163575 -2.223474,0.163575 -3.032268,0.21708c-0.808794,0.055034 6.048927,-1.224516 6.048927,-1.224516s1.528195,0.843861 1.88151,1.49663c0.353315,0.654298 1.010283,1.305539 0.909538,2.121883c-0.100745,0.816344 -0.402978,2.013342 -0.808794,3.21187c-0.404397,1.198527 -0.252571,2.776181 -1.566506,2.776181c-1.313935,0 -2.223474,0.43416 -3.384164,0.380655c-1.16069,-0.055034 -2.020566,-0.32562 -2.476044,-0.762838c-0.455479,-0.43416 -1.365017,-1.088459 -1.365017,-1.088459l-0.601629,0.811758z" fill="#000000" />
    <path  d="m11.676238,11.611694c0.62717,2.950456 0.312166,4.448616 -1.830428,5.780143c-2.142594,1.333056 -5.112429,0.573275 -5.929736,-0.95393c-0.817308,-1.528734 -0.859876,-4.243765 1.282719,-5.57835c2.141175,-1.331527 6.11136,-0.96616 6.477446,0.752137z" fill="#5864AF" />
    <path d="m12.1005,10.715856c-0.208584,0.328678 0.410073,0.776597 0.539196,1.777917c0.110677,0.854562 -0.271017,1.05024 -0.100745,1.741228c0.17311,0.70016 0.713725,1.103746 1.179136,1.452297c0.869808,0.649712 1.741035,0.770482 2.256109,0.834689c0.62717,0.077965 1.224542,0.152873 1.919821,-0.143701c0.725077,-0.310333 1.140825,-0.848447 1.380625,-1.161838c0.225611,-0.291988 0.72082,-0.949344 0.875484,-1.923147c0.102163,-0.635953 -0.043987,-1.294838 -0.337707,-2.612606c-0.143313,-0.648183 -0.218516,-0.97839 -0.370342,-1.196999c-0.492371,-0.71239 -1.420356,-0.969217 -2.155365,-0.871378c-0.337707,0.045862 -0.607305,0.186506 -1.145082,0.472379c-1.072716,0.565632 -1.122379,0.906539 -1.919821,1.161838c-0.285206,0.091724 -0.725077,0.189563 -1.145082,0.255299c-0.678252,0.100896 -0.871227,0.050448 -0.976228,0.214023z" fill="#319390" />
    <path d="m9.508103,7.413791c-0.01277,0.113126 -0.07946,0.590091 -0.438451,0.979918c-0.385951,0.418873 -0.872646,0.480022 -1.111027,0.50754c-0.743523,0.082552 -0.939336,-0.279758 -1.716913,-0.399c-0.864132,-0.133 -0.922309,0.267528 -2.155365,0.32562c-0.813051,0.03669 -1.557992,0.073379 -2.122729,-0.472379c-0.658387,-0.635953 -0.610143,-1.618929 -0.607305,-1.669377c0.062433,-0.958516 0.739266,-1.504274 0.942174,-1.669377c0.236962,-0.189563 0.472506,-0.310333 1.583533,-0.580919c2.220636,-0.539643 2.88186,-0.449448 3.165648,-0.399c0.837173,0.148287 1.180555,0.447919 1.313935,0.580919c0.210003,0.207908 0.344802,0.492252 0.607305,1.053298c0.394464,0.848447 0.591697,1.282608 0.539196,1.742757z" fill="#319390"/>
    <path d="m17.019953,7.522331c-1.286976,0.466264 -1.369274,0.232368 -1.919821,0.544229c-0.742104,0.418873 -0.700955,0.908068 -1.515424,1.233688c-0.322099,0.128414 -0.62717,0.250712 -0.977647,0.14523c-0.401559,-0.122299 -0.46683,-0.426517 -1.313935,-1.378918c-0.422843,-0.475436 -0.449803,-0.44639 -0.571831,-0.654298c-0.370342,-0.619137 -0.370342,-1.273435 -0.370342,-1.632688c0,-0.785769 0.231287,-1.365159 0.370342,-1.706067c0.14615,-0.357724 0.283787,-0.694045 0.571831,-1.015079c0.130542,-0.14523 0.468249,-0.484609 1.684278,-0.834689c0.86697,-0.249184 1.443059,-0.415816 2.256109,-0.363839c0.651292,0.042805 1.426031,0.093253 1.986511,0.689459c0.151826,0.162046 0.290882,0.432632 0.571831,0.979918c0.246895,0.481551 0.475344,0.932528 0.63994,1.560837c0.154664,0.594677 0.25399,0.999792 0.068109,1.378918c-0.109258,0.220138 -0.271017,0.342436 -0.539196,0.544229c-0.417167,0.316448 -0.796023,0.457091 -0.940755,0.509068z" fill="#7A6FB9" />
  </g>
</svg>