<svg width="22" height="20" xmlns="http://www.w3.org/2000/svg">
  <g id="fleur">
    <path d="m6.300201,16.011048c-2.688874,0.064214 -2.638964,-0.014096 -3.503022,-0.391549c-0.467901,-0.203605 -1.207186,-0.538771 -1.751511,-1.335964c-0.385239,-0.565396 -0.508453,-1.119829 -0.552124,-1.400178c-0.152848,-0.992967 0.182482,-1.774498 0.421111,-2.313269c0.168445,-0.379019 1.002869,-2.256886 2.886952,-2.997696c1.18691,-0.466726 2.074363,-0.200473 2.270882,-0.717317c0.180922,-0.471425 -0.517811,-0.811289 -0.583317,-1.824616c-0.049909,-0.764303 0.294778,-1.367288 0.519371,-1.758836c0.506893,-0.886466 1.211865,-1.339096 1.622058,-1.595952c0.781395,-0.488653 1.464532,-0.24276 2.099318,-0.380585c0.882774,-0.191076 1.676647,-0.76117 2.604651,-0.499616c0.446066,0.126862 0.859379,0.39938 1.687565,0.944415c1.197828,0.789362 1.796742,1.185609 1.94647,1.694622c0.123214,0.418174 0.056148,0.85201 0.389918,1.595952c0.137251,0.305408 0.219914,0.393115 0.324412,0.422872c0.371202,0.104935 0.625428,-0.645272 1.3304,-0.880201c0.461663,-0.153487 0.874976,-0.004699 1.525359,0.228664c0.658181,0.236495 1.288289,0.462027 1.751511,1.074409c0.580198,0.769001 0.302576,2.723612 -0.246428,3.390811c-0.538087,0.654669 -1.345997,0.2224 -1.748392,0.947548c-0.23863,0.430703 0.062387,0.449498 0.307255,0.513712c0.681576,0.180112 0.611391,0.69539 0.940482,1.368854c0.411753,0.841046 0.19028,1.760402 0.0967,2.150385c-0.062387,0.256856 -0.087342,0.244326 -0.583317,1.368854c-0.620749,1.404876 -0.612951,1.494149 -0.843782,1.824616c-0.170004,0.24276 -0.600474,0.805024 -1.3304,1.237294c-0.781395,0.463594 -1.489486,0.534072 -2.367581,0.618647c-0.733046,0.072045 -1.501964,0.145656 -2.465841,-0.097104c-0.80635,-0.203605 -1.915277,-0.48552 -2.367581,-1.368854c-0.246428,-0.480822 -0.051469,-0.656235 -0.421111,-1.758836c-0.349366,-1.038387 -0.61763,-1.166815 -0.745523,-1.20597c-0.464782,-0.136259 -2.521989,1.12766 -3.214483,1.144888z" fill="#000000" />
    <path d="m11.133623,16.894853c-0.059268,-0.109634 -0.637906,-1.184043 -0.389918,-2.150385c0.152848,-0.595154 0.446066,-0.474557 1.102688,-1.433068c0.544325,-0.792494 0.422671,-0.989835 1.069935,-2.020391c0.433589,-0.689126 0.650383,-1.033688 1.038741,-1.270184c0.620749,-0.379019 1.275811,-0.336732 1.94647,-0.292878c0.559922,0.036022 1.171313,0.076744 1.817017,0.488653c0.61919,0.396247 0.938922,0.922488 1.069935,1.17308c0.42735,0.815987 0.357165,1.583422 0.291659,2.313269c-0.067066,0.736111 -0.14193,1.563062 -0.71433,2.346159c-0.375881,0.512146 -0.867177,0.798759 -1.84977,1.368854c-0.960758,0.557565 -1.597104,0.74081 -1.880964,0.814421c-0.491297,0.125296 -0.884334,0.220833 -1.394346,0.129994c-0.533408,-0.095538 -0.910848,-0.342997 -1.23214,-0.554433c-0.413313,-0.270952 -0.609832,-0.505881 -0.71433,-0.651537c-0.003119,-0.007831 -0.085782,-0.123729 -0.160646,-0.261554z" fill="#7A6FB9" />
    <path d="m12.172364,8.882203c0.361844,0.418174 0.113856,1.177778 -0.065506,1.725946c-0.185601,0.570095 -0.628548,1.865337 -1.94647,2.801922c-0.424231,0.300709 -0.823507,0.460461 -1.622058,0.781531c-1.018465,0.408777 -1.809219,0.58419 -2.56254,0.748641c-1.037182,0.225532 -1.56591,0.336732 -2.04317,0.228664c-0.798552,-0.181679 -1.325721,-0.673464 -1.525359,-0.880201c-0.224593,-0.233363 -0.552124,-0.573227 -0.681576,-1.107299c-0.135691,-0.562264 0.023395,-1.019593 0.291659,-1.791726c0.210556,-0.606117 0.453864,-1.027424 0.61607,-1.303074c0.414873,-0.709486 0.623869,-1.063446 1.005988,-1.303074c0.466342,-0.291312 0.698733,-0.123729 1.654811,-0.259988c1.278931,-0.183245 1.271132,-0.543469 2.367581,-0.651537c0.885893,-0.087707 1.628297,0.075177 2.011976,0.162884c0.600474,0.136259 0.503774,0.200473 1.556552,0.488653c0.625428,0.170715 0.792313,0.184811 0.942042,0.358659z" fill="#7A6FB9"/>
    <path d="m12.626228,8.617045c-0.792313,-0.029758 -1.032503,-1.184043 -2.04317,-1.531738c-0.408634,-0.140957 -0.80947,-0.103369 -1.556552,-0.03289c-0.66286,0.062648 -0.921766,0.186377 -1.297647,0.03289c-0.358724,-0.145656 -0.544325,-0.429137 -0.811029,-0.847311c-0.408634,-0.640573 -0.756441,-1.187175 -0.648823,-1.857507c0.134132,-0.825384 0.873416,-1.298375 1.135441,-1.465958c0.424231,-0.270952 0.641025,-0.253723 2.205376,-0.554433c1.793622,-0.342997 1.831054,-0.427571 2.238129,-0.358659c0.680017,0.114332 0.603593,0.35396 2.011976,0.880201c0.793873,0.296011 1.016906,0.294445 1.264894,0.585757c0.432029,0.509013 0.363403,1.237294 0.324412,1.661732c-0.021835,0.238062 -0.09358,0.91779 -0.552124,1.563062c-0.494416,0.696956 -0.910848,0.610816 -1.297647,1.303074c-0.065506,0.115898 -0.198078,0.377453 -0.486618,0.521543c0,0.001566 -0.216794,0.109634 -0.486618,0.100236z" fill="#54CAB3"/>
    <path d="m20.703767,7.802624c-0.029634,0.639007 -0.603593,1.221632 -1.135441,1.498848c-0.383679,0.200473 -0.446066,0.084574 -2.433088,0.129994c-0.800111,0.018794 -1.09333,0.043853 -1.459853,-0.162884c-0.077984,-0.043853 -0.720568,-0.418174 -0.778276,-1.043085c-0.020276,-0.216135 0.038992,-0.366489 0.681576,-1.368854c0.676897,-1.052483 0.845342,-0.711052 1.030943,-0.789362c0.38212,-0.159752 0.729926,-0.845745 1.604902,-0.836348c0.94828,0.009397 0.818828,0.211436 1.289848,0.41974c0.469461,0.208304 0.753321,0.657802 0.811029,0.748641c0.149728,0.236495 0.218354,0.455763 0.258905,0.585757c0.009358,0.036022 0.145049,0.477689 0.129453,0.817553z" fill="#54CAB3"/>
  </g>
</svg>